<?xml version="1.0" encoding="UTF-8"?>
<svg height="16px" viewBox="0 0 16 16" width="16px" xmlns="http://www.w3.org/2000/svg">
    <g fill="#222222">
        <path d="m 8 2 c -3.445312 0 -6.285156 2.320312 -7.835938 5.59375 c -0.132812 0.269531 -0.1289058 0.585938 0 0.859375 c 1.554688 3.230469 4.390626 5.546875 7.835938 5.546875 s 6.273438 -2.3125 7.894531 -5.550781 c 0.140625 -0.285157 0.140625 -0.613281 0 -0.898438 c -1.621093 -3.238281 -4.449219 -5.550781 -7.894531 -5.550781 z m 5.746094 6 c -1.324219 2.328125 -3.1875 4 -5.746094 4 s -4.460938 -1.6875 -5.734375 -4.035156 c 1.28125 -2.359375 3.15625 -4.007813 5.734375 -3.964844 s 4.445312 1.71875 5.746094 4 z m 0 0"/>
        <path d="m 8 4 c -2.210938 0 -4 1.789062 -4 4 s 1.789062 4 4 4 s 4 -1.789062 4 -4 s -1.789062 -4 -4 -4 z m 0 1 c 1.664062 0 3 1.335938 3 3 s -1.335938 3 -3 3 s -3 -1.335938 -3 -3 s 1.335938 -3 3 -3 z m 0 0" fill-opacity="0.501961"/>
        <path d="m 8 6 c -0.199219 0 -0.394531 0.03125 -0.585938 0.089844 c 0.355469 0.164062 0.585938 0.519531 0.585938 0.910156 c 0 0.550781 -0.449219 1 -1 1 c -0.390625 0 -0.746094 -0.230469 -0.910156 -0.585938 c -0.058594 0.191407 -0.089844 0.386719 -0.089844 0.585938 c 0 1.105469 0.894531 2 2 2 s 2 -0.894531 2 -2 s -0.894531 -2 -2 -2 z m 0 0"/>
    </g>
</svg>
