<?xml version="1.0" encoding="UTF-8"?>
<svg height="16px" viewBox="0 0 16 16" width="16px" xmlns="http://www.w3.org/2000/svg">
    <g fill="#222222">
        <path d="m 7.046875 6 c -0.726563 -0.03125 -1.242187 0.695312 -0.972656 1.371094 l 3.195312 8 c 0.335938 0.839844 1.527344 0.839844 1.863281 -0.003906 l 1.199219 -3.039063 l 3.035157 -1.199219 c 0.84375 -0.332031 0.84375 -1.523437 0.003906 -1.859375 l -8 -3.199219 c -0.101563 -0.039062 -0.210938 -0.0625 -0.324219 -0.070312 z m 1.746094 2.792969 l 3.5 1.402343 l -1.097657 0.4375 c -0.257812 0.101563 -0.460937 0.304688 -0.5625 0.5625 l -0.4375 1.097657 z m 0 0"/>
        <path d="m 3 1 c -1.644531 0 -3 1.355469 -3 3 v 7 c 0 1.644531 1.355469 3 3 3 h 1.996094 c 0.546875 0 0.992187 -0.445312 0.992187 -0.992188 v -0.015624 c 0 -0.546876 -0.445312 -0.992188 -0.992187 -0.992188 h -1.996094 c -0.570312 0 -1 -0.429688 -1 -1 v -7 c 0 -0.570312 0.429688 -1 1 -1 h 9.007812 c 0.570313 0 1 0.429688 1 1 v 2.011719 c 0 0.546875 0.441407 0.988281 0.988282 0.988281 h 0.023437 c 0.542969 0 0.988281 -0.441406 0.988281 -0.988281 v -2.011719 c 0 -1.644531 -1.355468 -3 -3 -3 z m 0 0"/>
    </g>
</svg>
