<?xml version="1.0" encoding="UTF-8"?>
<svg height="16px" viewBox="0 0 16 16" width="16px" xmlns="http://www.w3.org/2000/svg">
    <path d="m 8.515625 -0.0078125 c -3.027344 0 -5.5 2.4726565 -5.5 5.5000005 v 0.5 c 0 0.550781 0.445313 1 1 1 c 0.550781 0 1 -0.449219 1 -1 v -0.5 c 0 -1.945313 1.554687 -3.5 3.5 -3.5 c 1.941406 0 3.5 1.554687 3.5 3.5 v 0.207031 c 0 0.839843 -0.375 1.632812 -1.019531 2.171875 l -0.085938 0.074218 c -1.167968 0.972657 -1.972656 2.320313 -2.269531 3.8125 l -0.109375 0.539063 c -0.191406 0.972656 -1.027344 1.648437 -2.015625 1.675781 c -0.933594 -0.125 -1.601563 -0.933594 -1.507813 -1.878906 l 0.007813 -0.050781 v -0.050781 c 0 -0.550782 -0.449219 -1 -1 -1 c -0.554687 0 -1 1.550781 -1 1 v -0.015626 c -0.160156 2.007813 1.332031 3.804688 3.347656 4.011719 l 0.050781 0.003907 h 0.050782 c 1.953125 0 3.644531 -1.390626 4.03125 -3.304688 l 0.105468 -0.535156 c 0.210938 -1.046875 0.769532 -1.988282 1.589844 -2.671875 l 0.085938 -0.070313 c 1.101562 -0.917968 1.738281 -2.277344 1.738281 -3.710937 v -0.207031 c 0 -3.027344 -2.476563 -5.5000005 -5.5 -5.5000005 z m -0.015625 3.0078125 c -1.367188 0 -2.5 1.132812 -2.5 2.5 v 1.5 c 0 0.550781 0.449219 1 1 1 s 1 -0.449219 1 -1 v -1.5 c 0 -0.289062 0.210938 -0.5 0.5 -0.5 s 0.5 0.210938 0.5 0.5 v 0.5 c 0 0.550781 0.449219 1 1 1 s 1 -0.449219 1 -1 v -0.5 c 0 -1.367188 -1.132812 -2.5 -2.5 -2.5 z m 0 0" fill="#222222"/>
</svg>
