<?xml version="1.0" encoding="UTF-8" standalone="no"?>
<svg
   height="16px"
   viewBox="0 0 16 16"
   width="16px"
   version="1.1"
   id="svg4"
   sodipodi:docname="audio-speaker-left-back.svg"
   inkscape:version="1.2.2 (b0a8486541, 2022-12-01)"
   xmlns:inkscape="http://www.inkscape.org/namespaces/inkscape"
   xmlns:sodipodi="http://sodipodi.sourceforge.net/DTD/sodipodi-0.dtd"
   xmlns="http://www.w3.org/2000/svg"
   xmlns:svg="http://www.w3.org/2000/svg">
  <defs
     id="defs8" />
  <sodipodi:namedview
     id="namedview6"
     pagecolor="#ffffff"
     bordercolor="#000000"
     borderopacity="0.25"
     inkscape:showpageshadow="2"
     inkscape:pageopacity="0.0"
     inkscape:pagecheckerboard="0"
     inkscape:deskcolor="#d1d1d1"
     showgrid="false"
     inkscape:zoom="48.875"
     inkscape:cx="8.2557545"
     inkscape:cy="8"
     inkscape:window-width="1361"
     inkscape:window-height="1011"
     inkscape:window-x="20"
     inkscape:window-y="20"
     inkscape:window-maximized="0"
     inkscape:current-layer="svg4" />
  <path
     d="M 3.7601161,2.3498158 C 3.5474318,2.5569762 3.4397084,2.8470003 3.4645681,3.142549 L 3.7545922,8.0011462 3.0474854,8.708253 c -0.773398,0.773398 -0.8175922,2.010835 0,2.828427 l 1.4142136,1.414214 c 0.7706361,0.770636 2.057791,0.770636 2.8284271,0 l 0.7071068,-0.707107 4.8585971,0.290024 c 0.328694,0.03038 0.604907,-0.09115 0.798257,-0.290024 z M 7.9585626,2.366389 C 7.8259801,2.5155447 7.7320678,2.6978453 7.7044461,2.9077676 7.627107,3.4546709 8.0082814,3.9629039 8.5579466,4.037481 c 1.7677674,0.2485919 3.1543594,1.6351845 3.4029514,3.4029514 0.07458,0.5496652 0.58281,0.9308396 1.129713,0.8535005 0.546904,-0.077341 0.925316,-0.5828115 0.850738,-1.1269521 C 13.753524,5.8411563 13.14033,4.6589621 12.239874,3.7585055 11.339417,2.8580488 10.157223,2.244855 8.8313983,2.0570298 8.527563,2.0128356 8.2320143,2.1150345 8.0165673,2.3083843 7.997235,2.3277166 7.9778956,2.347056 7.9557985,2.3691531 Z m 0,0"
     fill="#2e3436"
     id="path2" />
</svg>
