<?xml version="1.0" encoding="UTF-8" standalone="no"?>
<svg
   height="16px"
   viewBox="0 0 16 16"
   width="16px"
   version="1.1"
   id="svg4"
   sodipodi:docname="audio-speaker-left.svg"
   inkscape:version="1.2.2 (b0a8486541, 2022-12-01)"
   xmlns:inkscape="http://www.inkscape.org/namespaces/inkscape"
   xmlns:sodipodi="http://sodipodi.sourceforge.net/DTD/sodipodi-0.dtd"
   xmlns="http://www.w3.org/2000/svg"
   xmlns:svg="http://www.w3.org/2000/svg">
  <defs
     id="defs8" />
  <sodipodi:namedview
     id="namedview6"
     pagecolor="#ffffff"
     bordercolor="#000000"
     borderopacity="0.25"
     inkscape:showpageshadow="2"
     inkscape:pageopacity="0.0"
     inkscape:pagecheckerboard="0"
     inkscape:deskcolor="#d1d1d1"
     showgrid="false"
     inkscape:zoom="48.875"
     inkscape:cx="8.2557545"
     inkscape:cy="8"
     inkscape:window-width="1361"
     inkscape:window-height="1011"
     inkscape:window-x="20"
     inkscape:window-y="20"
     inkscape:window-maximized="0"
     inkscape:current-layer="svg4" />
  <path
     d="M 13.654097,3.7640294 C 13.446937,3.5513451 13.156913,3.4436216 12.861364,3.4684814 L 8.0027671,3.7585055 7.2956603,3.0513987 c -0.773398,-0.773398 -2.0108349,-0.8175922 -2.8284271,0 L 3.0530196,4.4656123 c -0.770636,0.7706361 -0.770636,2.057791 0,2.8284271 L 3.7601264,8.0011462 3.4701023,12.859743 c -0.030384,0.328694 0.09115,0.604908 0.2900241,0.798257 z m -0.01657,4.1984465 C 13.488369,7.8298934 13.306068,7.7359811 13.096146,7.7083594 12.549242,7.6310203 12.041009,8.0121947 11.966432,8.5618599 11.71784,10.329627 10.331248,11.716219 8.5634809,11.964811 c -0.5496652,0.07458 -0.9308396,0.58281 -0.8535005,1.129714 0.077341,0.546903 0.5828115,0.925315 1.1269521,0.850738 1.3258245,-0.187826 2.5080185,-0.801019 3.4084755,-1.701476 0.900456,-0.900457 1.51365,-2.082651 1.701475,-3.4084754 0.0442,-0.3038353 -0.058,-0.5993841 -0.251354,-0.814831 -0.01933,-0.019332 -0.03867,-0.038672 -0.06077,-0.060769 z m 0,0"
     fill="#2e3436"
     id="path2" />
</svg>
