<?xml version="1.0" encoding="UTF-8" standalone="no"?>
<svg
   height="16px"
   viewBox="0 0 16 16"
   width="16px"
   version="1.1"
   id="svg4"
   sodipodi:docname="audio-speaker-right-side.svg"
   inkscape:version="1.2.2 (b0a8486541, 2022-12-01)"
   xmlns:inkscape="http://www.inkscape.org/namespaces/inkscape"
   xmlns:sodipodi="http://sodipodi.sourceforge.net/DTD/sodipodi-0.dtd"
   xmlns="http://www.w3.org/2000/svg"
   xmlns:svg="http://www.w3.org/2000/svg">
  <defs
     id="defs8" />
  <sodipodi:namedview
     id="namedview6"
     pagecolor="#ffffff"
     bordercolor="#000000"
     borderopacity="0.25"
     inkscape:showpageshadow="2"
     inkscape:pageopacity="0.0"
     inkscape:pagecheckerboard="0"
     inkscape:deskcolor="#d1d1d1"
     showgrid="false"
     inkscape:zoom="48.875"
     inkscape:cx="8.2557545"
     inkscape:cy="8"
     inkscape:window-width="1361"
     inkscape:window-height="1011"
     inkscape:window-x="20"
     inkscape:window-y="20"
     inkscape:window-maximized="0"
     inkscape:current-layer="svg4" />
  <path
     d="m 7,15.000015 c 0.296875,0.0039 0.578125,-0.125 0.769531,-0.351563 L 11,11.007827 h 1 c 1.09375,0 2,-0.84375 2,-2.0000004 v -2 c 0,-1.089844 -0.910156,-2 -2,-2 H 11 L 7.769531,1.3672016 C 7.558594,1.1132956 7.277344,1.0039206 7,1.0078266 Z M 4.042969,12.019546 c 0.199219,-0.01172 0.394531,-0.07422 0.5625,-0.203125 0.441406,-0.332032 0.53125,-0.960938 0.195312,-1.402344 -1.074219,-1.4257814 -1.074219,-3.3867194 0,-4.8125004 C 5.136719,5.1601706 5.046875,4.5312646 4.605469,4.1992326 4.164062,3.8672016 3.539062,3.9570456 3.207031,4.3945456 2.402344,5.4648576 2,6.7343886 2,8.0078266 c 0,1.273438 0.402344,2.5429694 1.207031,3.6132814 0.183594,0.246094 0.464844,0.382813 0.753907,0.398438 0.02734,0 0.05469,0 0.08594,0 z m 0,0"
     fill="#2e3436"
     id="path2" />
</svg>
