<?xml version="1.0" encoding="UTF-8" standalone="no"?>
<svg
   height="16px"
   viewBox="0 0 16 16"
   width="16px"
   version="1.1"
   id="svg4"
   sodipodi:docname="audio-speaker-left-of-center.svg"
   inkscape:version="1.2.2 (b0a8486541, 2022-12-01)"
   xmlns:inkscape="http://www.inkscape.org/namespaces/inkscape"
   xmlns:sodipodi="http://sodipodi.sourceforge.net/DTD/sodipodi-0.dtd"
   xmlns="http://www.w3.org/2000/svg"
   xmlns:svg="http://www.w3.org/2000/svg">
  <defs
     id="defs8" />
  <sodipodi:namedview
     id="namedview6"
     pagecolor="#ffffff"
     bordercolor="#000000"
     borderopacity="0.25"
     inkscape:showpageshadow="2"
     inkscape:pageopacity="0.0"
     inkscape:pagecheckerboard="0"
     inkscape:deskcolor="#d1d1d1"
     showgrid="false"
     inkscape:zoom="48.875"
     inkscape:cx="8.2557545"
     inkscape:cy="8"
     inkscape:window-width="1361"
     inkscape:window-height="1011"
     inkscape:window-x="20"
     inkscape:window-y="20"
     inkscape:window-maximized="0"
     inkscape:current-layer="svg4" />
  <path
     d="M 14.846238,6.2505008 C 14.736238,5.9747293 14.509514,5.7642183 14.22695,5.6740842 L 9.6272037,4.0827268 9.2445203,3.1588473 C 8.8259603,2.1483541 7.6996301,1.6339774 6.6313943,2.0764551 L 4.7836353,2.841822 C 3.7767507,3.2588872 3.2841778,4.4480633 3.7012431,5.4549479 L 4.0839265,6.3788274 1.9566746,10.756598 c -0.1538565,0.292046 -0.1472761,0.593744 -0.037532,0.848481 z M 13.224251,10.123017 C 13.137186,9.9434476 13.004701,9.7869206 12.821328,9.6810676 12.345652,9.4003248 11.730237,9.5579917 11.450989,10.037277 c -0.906164,1.538071 -2.7178349,2.28849 -4.4461706,1.841664 -0.5363639,-0.141448 -1.0830155,0.182229 -1.2208543,0.717098 -0.1378375,0.53487 0.1843447,1.077913 0.7156048,1.217245 1.2967797,0.333844 2.6236438,0.219733 3.8001471,-0.267591 1.176503,-0.487324 2.195427,-1.34487 2.876326,-2.497894 0.157102,-0.263795 0.175785,-0.575956 0.0796,-0.848995 -0.01046,-0.02526 -0.02093,-0.05053 -0.03289,-0.0794 z m 0,0"
     fill="#2e3436"
     id="path2" />
</svg>
