<?xml version="1.0" encoding="UTF-8" standalone="no"?>
<svg
   height="16px"
   viewBox="0 0 16 16"
   width="16px"
   version="1.1"
   id="svg4"
   sodipodi:docname="audio-speaker-right.svg"
   inkscape:version="1.2.2 (b0a8486541, 2022-12-01)"
   xmlns:inkscape="http://www.inkscape.org/namespaces/inkscape"
   xmlns:sodipodi="http://sodipodi.sourceforge.net/DTD/sodipodi-0.dtd"
   xmlns="http://www.w3.org/2000/svg"
   xmlns:svg="http://www.w3.org/2000/svg">
  <defs
     id="defs8" />
  <sodipodi:namedview
     id="namedview6"
     pagecolor="#ffffff"
     bordercolor="#000000"
     borderopacity="0.25"
     inkscape:showpageshadow="2"
     inkscape:pageopacity="0.0"
     inkscape:pagecheckerboard="0"
     inkscape:deskcolor="#d1d1d1"
     showgrid="false"
     inkscape:zoom="48.875"
     inkscape:cx="8.2557545"
     inkscape:cy="8"
     inkscape:window-width="1361"
     inkscape:window-height="1011"
     inkscape:window-x="20"
     inkscape:window-y="20"
     inkscape:window-maximized="0"
     inkscape:current-layer="svg4" />
  <path
     d="m 12.239884,13.658011 c 0.212684,-0.207161 0.320408,-0.497185 0.295548,-0.792733 L 12.245408,8.0066804 12.952515,7.2995736 c 0.773398,-0.773398 0.817592,-2.0108349 0,-2.8284271 L 11.538301,3.0569329 c -0.770636,-0.770636 -2.057791,-0.770636 -2.8284271,0 L 8.0027671,3.7640397 3.14417,3.4740156 C 2.8154763,3.443632 2.5392627,3.5651659 2.3459129,3.7640397 Z M 8.0414374,13.641438 C 8.1740199,13.492282 8.2679322,13.309981 8.2955539,13.100059 8.372893,12.553156 7.9917186,12.044923 7.4420534,11.970346 5.6742864,11.721754 4.2876938,10.335161 4.039102,8.5673942 3.9645248,8.0177289 3.4562918,7.6365546 2.9093886,7.7138937 2.3624853,7.7912342 1.9840729,8.2967052 2.0586507,8.8408458 2.246476,10.16667 2.8596698,11.348864 3.7601264,12.249321 c 0.9004567,0.900457 2.0826508,1.513651 3.4084753,1.701476 0.3038353,0.04419 0.599384,-0.058 0.814831,-0.251355 0.019332,-0.01933 0.038672,-0.03867 0.060769,-0.06077 z m 0,0"
     fill="#2e3436"
     id="path2" />
</svg>
