<?xml version="1.0" encoding="UTF-8" standalone="no"?>
<svg
   height="16px"
   viewBox="0 0 16 16"
   width="16px"
   version="1.1"
   id="svg4"
   sodipodi:docname="audio-speaker-right-of-center.svg"
   inkscape:version="1.2.2 (b0a8486541, 2022-12-01)"
   xmlns:inkscape="http://www.inkscape.org/namespaces/inkscape"
   xmlns:sodipodi="http://sodipodi.sourceforge.net/DTD/sodipodi-0.dtd"
   xmlns="http://www.w3.org/2000/svg"
   xmlns:svg="http://www.w3.org/2000/svg">
  <defs
     id="defs8" />
  <sodipodi:namedview
     id="namedview6"
     pagecolor="#ffffff"
     bordercolor="#000000"
     borderopacity="0.25"
     inkscape:showpageshadow="2"
     inkscape:pageopacity="0.0"
     inkscape:pagecheckerboard="0"
     inkscape:deskcolor="#d1d1d1"
     showgrid="false"
     inkscape:zoom="48.875"
     inkscape:cx="8.2557545"
     inkscape:cy="8"
     inkscape:window-width="1361"
     inkscape:window-height="1011"
     inkscape:window-x="20"
     inkscape:window-y="20"
     inkscape:window-maximized="0"
     inkscape:current-layer="svg4" />
  <path
     d="m 14.080871,11.605085 c 0.117218,-0.272782 0.105754,-0.581953 -0.03031,-0.845491 L 11.923304,6.3818225 12.305988,5.457943 C 12.724548,4.4474498 12.291831,3.2872948 11.223596,2.8448171 L 9.3758365,2.0794502 C 8.3689519,1.662385 7.1797758,2.1549579 6.7627105,3.1618424 L 6.3800271,4.0857219 1.7802812,5.6770793 C 1.4649806,5.774794 1.2563015,5.9927791 1.1537752,6.2505063 Z m -3.885201,1.591364 c 0.06541,-0.188539 0.08241,-0.392901 0.0276,-0.597415 C 10.085428,12.064165 9.5387763,11.740488 9.0024124,11.881936 7.2740767,12.328762 5.4624062,11.578344 4.5562422,10.040272 4.2769941,9.5609868 3.6615789,9.4033199 3.1859026,9.6840627 2.7102268,9.9648069 2.5540547,10.576613 2.8311892,11.050794 c 0.680899,1.153025 1.6998223,2.01057 2.8763256,2.497894 1.1765033,0.487324 2.5033674,0.601435 3.8001471,0.267592 0.2976196,-0.07544 0.5315611,-0.282964 0.6566161,-0.544044 0.01046,-0.02526 0.02093,-0.05053 0.03289,-0.0794 z m 0,0"
     fill="#2e3436"
     id="path2" />
</svg>
