<?xml version="1.0" encoding="UTF-8" standalone="no"?>
<svg
   height="16px"
   viewBox="0 0 16 16"
   width="16px"
   version="1.1"
   id="svg4"
   sodipodi:docname="audio-speaker-center-back.svg"
   inkscape:version="1.2.2 (b0a8486541, 2022-12-01)"
   xmlns:inkscape="http://www.inkscape.org/namespaces/inkscape"
   xmlns:sodipodi="http://sodipodi.sourceforge.net/DTD/sodipodi-0.dtd"
   xmlns="http://www.w3.org/2000/svg"
   xmlns:svg="http://www.w3.org/2000/svg">
  <defs
     id="defs8" />
  <sodipodi:namedview
     id="namedview6"
     pagecolor="#ffffff"
     bordercolor="#000000"
     borderopacity="0.25"
     inkscape:showpageshadow="2"
     inkscape:pageopacity="0.0"
     inkscape:pagecheckerboard="0"
     inkscape:deskcolor="#d1d1d1"
     showgrid="false"
     inkscape:zoom="48.875"
     inkscape:cx="8.2557545"
     inkscape:cy="8"
     inkscape:window-width="1361"
     inkscape:window-height="1011"
     inkscape:window-x="20"
     inkscape:window-y="20"
     inkscape:window-maximized="0"
     inkscape:current-layer="svg4" />
  <path
     d="m 1.0038987,7.0039133 c -0.003906,0.296875 0.125,0.578125 0.351563,0.769531 l 3.640625,3.2304687 v 1 c 0,1.09375 0.84375,2 2,2 h 2 c 1.0898443,0 2.0000003,-0.910156 2.0000003,-2 v -1 l 3.640625,-3.2304687 c 0.253906,-0.210937 0.363281,-0.492187 0.359375,-0.769531 z m 2.980469,-2.957031 c 0.011719,0.199219 0.074219,0.394531 0.203125,0.5625 0.332032,0.441406 0.960938,0.53125 1.402344,0.195312 1.425781,-1.074219 3.386719,-1.074219 4.8125003,0 0.441406,0.335938 1.070312,0.246094 1.402344,-0.195312 0.332031,-0.441407 0.242187,-1.066407 -0.195313,-1.398438 -1.070312,-0.804687 -2.3398433,-1.207031 -3.6132813,-1.207031 -1.273438,0 -2.542969,0.402344 -3.613281,1.207031 -0.246094,0.183594 -0.382813,0.464844 -0.398438,0.753907 0,0.02734 0,0.05469 0,0.08594 z m 0,0"
     fill="#2e3436"
     id="path2" />
</svg>
