<?xml version="1.0" encoding="UTF-8" standalone="no"?>
<svg
   height="16px"
   viewBox="0 0 16 16"
   width="16px"
   version="1.1"
   id="svg4"
   sodipodi:docname="audio-speaker-right-back.svg"
   inkscape:version="1.2.2 (b0a8486541, 2022-12-01)"
   xmlns:inkscape="http://www.inkscape.org/namespaces/inkscape"
   xmlns:sodipodi="http://sodipodi.sourceforge.net/DTD/sodipodi-0.dtd"
   xmlns="http://www.w3.org/2000/svg"
   xmlns:svg="http://www.w3.org/2000/svg">
  <defs
     id="defs8" />
  <sodipodi:namedview
     id="namedview6"
     pagecolor="#ffffff"
     bordercolor="#000000"
     borderopacity="0.25"
     inkscape:showpageshadow="2"
     inkscape:pageopacity="0.0"
     inkscape:pagecheckerboard="0"
     inkscape:deskcolor="#d1d1d1"
     showgrid="false"
     inkscape:zoom="48.875"
     inkscape:cx="8.2557545"
     inkscape:cy="8"
     inkscape:window-width="1361"
     inkscape:window-height="1011"
     inkscape:window-x="20"
     inkscape:window-y="20"
     inkscape:window-maximized="0"
     inkscape:current-layer="svg4" />
  <path
     d="m 2.3459026,12.243797 c 0.2071603,0.212684 0.4971844,0.320408 0.7927331,0.295548 l 4.8585972,-0.290024 0.7071068,0.707107 c 0.773398,0.773398 2.0108353,0.817592 2.8284273,0 l 1.414213,-1.414214 c 0.770636,-0.770636 0.770636,-2.0577907 0,-2.8284268 L 12.239874,8.0066804 12.529898,3.1480832 C 12.560281,2.8193896 12.438747,2.543176 12.239874,2.3498262 Z M 2.3624757,8.0453507 C 2.5116314,8.1779332 2.693932,8.2718454 2.9038544,8.2994672 3.4507576,8.3768063 3.9589906,7.9956319 4.0335677,7.4459666 4.2821596,5.6781997 5.6687522,4.2916071 7.4365191,4.0430153 7.9861843,3.9684381 8.3673587,3.4602051 8.2900196,2.9133019 8.2126791,2.3663986 7.7072081,1.9879862 7.1630675,2.062564 5.837243,2.2503893 4.6550488,2.8635831 3.7545922,3.7640397 2.8541356,4.6644964 2.2409417,5.8466905 2.0531165,7.172515 c -0.044194,0.3038353 0.058005,0.599384 0.2513545,0.814831 0.019332,0.019332 0.038672,0.038672 0.060769,0.060769 z m 0,0"
     fill="#2e3436"
     id="path2" />
</svg>
