<svg xmlns="http://www.w3.org/2000/svg" width="48" height="48" version="1.0"><defs><linearGradient id="c"><stop style="stop-color:#555753;stop-opacity:1" offset="0"/><stop offset="1" style="stop-color:#eeeeec;stop-opacity:1"/></linearGradient><linearGradient id="b"><stop offset="0" style="stop-color:#2e3436;stop-opacity:1"/><stop style="stop-color:#eeeeec;stop-opacity:1" offset="1"/></linearGradient><linearGradient id="a"><stop style="stop-color:#babdb6;stop-opacity:1" offset="0"/><stop offset="1" style="stop-color:#eeeeec;stop-opacity:1"/></linearGradient></defs><g style="display:inline;stroke-width:.5"><path d="M41 202h2.485l2.968-3 .547.016v12h-.475L43.485 208H41Z" style="color:#bebebe;display:inline;overflow:visible;visibility:visible;fill:#000;fill-opacity:1;fill-rule:nonzero;stroke:none;stroke-width:.5;marker:none" transform="scale(-2 2) rotate(45 251.456 34.829)"/><path style="color:#bebebe;display:inline;overflow:visible;visibility:visible;opacity:.1;fill:none;stroke:none;stroke-width:.5;marker:none" d="M41 197h16v16H41z" transform="scale(-2 2) rotate(45 251.456 34.829)"/><path style="color:#000;display:inline;overflow:visible;visibility:visible;fill:#000;fill-opacity:.23529412;fill-rule:nonzero;stroke:none;stroke-width:1.1639102;stroke-linecap:butt;stroke-linejoin:miter;stroke-miterlimit:4;stroke-dasharray:none;stroke-dashoffset:0;stroke-opacity:1;marker:none;enable-background:accumulate;font-variant-east_asian:normal;opacity:1;vector-effect:none" d="M56 205c0-2.814-1-5.172-2.585-7H52v1.48c1.265 1.52 2 3.22 2 5.52 0 2.3-.78 4-2 5.52V212h1.381c1.466-1.64 2.62-4.186 2.62-7z" transform="scale(-2 2) rotate(45 251.456 34.829)"/><path style="color:#000;display:inline;overflow:visible;visibility:visible;fill:#000;fill-opacity:.23529412;fill-rule:nonzero;stroke:none;stroke-width:1.1639102;stroke-linecap:butt;stroke-linejoin:miter;stroke-miterlimit:4;stroke-dasharray:none;stroke-dashoffset:0;stroke-opacity:1;marker:none;enable-background:accumulate;font-variant-east_asian:normal;opacity:1;vector-effect:none" d="M53 205c0-2.166-.739-4.02-2-5h-1v2c.607.789 1 1.76 1 3 0 1.241-.393 2.22-1 3v2h1c1.223-.995 2-2.873 2-5z" transform="scale(-2 2) rotate(45 251.456 34.829)"/><path style="color:#000;font-style:normal;font-variant:normal;font-weight:400;font-stretch:normal;font-size:medium;line-height:normal;font-family:Sans;-inkscape-font-specification:Sans;text-indent:0;text-align:start;text-decoration:none;text-decoration-line:none;letter-spacing:normal;word-spacing:normal;text-transform:none;writing-mode:lr-tb;direction:ltr;baseline-shift:baseline;text-anchor:start;display:inline;overflow:visible;visibility:visible;fill:#000;fill-opacity:.23529412;stroke:none;stroke-width:1.1639102;marker:none;enable-background:accumulate;font-variant-east_asian:normal;opacity:1;vector-effect:none;stroke-linecap:butt;stroke-linejoin:miter;stroke-miterlimit:4;stroke-dasharray:none;stroke-dashoffset:0;stroke-opacity:1" d="M50 205c0-1.257-.311-2.216-1-3h-1v6h1c.672-.837 1-1.742 1-3z" transform="scale(-2 2) rotate(45 251.456 34.829)"/></g></svg>