<?xml version="1.0" encoding="UTF-8" standalone="no"?>
<svg
   height="16px"
   viewBox="0 0 16 16"
   width="16px"
   version="1.1"
   id="svg4"
   sodipodi:docname="subwoofer-symbolic.svg"
   inkscape:version="1.2.2 (b0a8486541, 2022-12-01)"
   xmlns:inkscape="http://www.inkscape.org/namespaces/inkscape"
   xmlns:sodipodi="http://sodipodi.sourceforge.net/DTD/sodipodi-0.dtd"
   xmlns="http://www.w3.org/2000/svg"
   xmlns:svg="http://www.w3.org/2000/svg">
  <defs
     id="defs8" />
  <sodipodi:namedview
     id="namedview6"
     pagecolor="#ffffff"
     bordercolor="#000000"
     borderopacity="0.25"
     inkscape:showpageshadow="2"
     inkscape:pageopacity="0.0"
     inkscape:pagecheckerboard="0"
     inkscape:deskcolor="#d1d1d1"
     showgrid="false"
     inkscape:zoom="17.279922"
     inkscape:cx="9.3750423"
     inkscape:cy="13.483857"
     inkscape:window-width="1920"
     inkscape:window-height="1011"
     inkscape:window-x="0"
     inkscape:window-y="0"
     inkscape:window-maximized="1"
     inkscape:current-layer="svg4" />
  <g
     id="g31135"
     transform="matrix(3.7795274,0,0,3.7795274,26.571668,-1355.9266)">
    <g
       id="g31133"
       transform="translate(-222.25009,-21.166678)">
      <rect
         id="rect31127"
         width="4.2333336"
         height="4.2333336"
         x="379.92227"
         y="-219.453"
         style="fill:#99c1f1;fill-opacity:0;stroke-width:0.264583"
         transform="rotate(90)" />
      <path
         id="path31129"
         style="fill:#2e3436;fill-opacity:1;stroke-width:0.264583"
         d="m 218.39726,383.34995 c -0.002,-0.0519 -0.0196,-0.10363 -0.0532,-0.14832 -0.0879,-0.11672 -0.25379,-0.14009 -0.37052,-0.0522 -0.37803,0.28487 -0.8963,0.28487 -1.27434,0 -0.11672,-0.0879 -0.28261,-0.0645 -0.37051,0.0522 -0.0879,0.11673 -0.0645,0.28262 0.0522,0.37052 0.28233,0.21276 0.61897,0.31936 0.95549,0.31936 0.33653,0 0.67317,-0.1066 0.9555,-0.31936 0.0657,-0.0494 0.10203,-0.12382 0.10542,-0.19998 2.7e-4,-0.007 2.7e-4,-0.0148 0,-0.0222 z"
         sodipodi:nodetypes="sscssssssss" />
      <rect
         style="fill:#2e3436;fill-opacity:1;stroke:#99c1f1;stroke-width:0;stroke-linecap:round;stroke-dasharray:none;stroke-opacity:1"
         id="rect31131"
         width="2.1166658"
         height="2.1166656"
         x="216.27808"
         y="380.45145"
         rx="0.5291667"
         ry="0.5291667" />
    </g>
  </g>
</svg>
