<?xml version="1.0" encoding="UTF-8"?>
<svg xmlns="http://www.w3.org/2000/svg" height="16px" viewBox="0 0 16 16" width="16px"><g fill="#222222"><path d="m 7.992188 0 c -1.105469 0 -2 0.890625 -2 2 v 3.003906 c 0 0.632813 -0.476563 0.996094 -1 0.996094 h -1 c -1.105469 0 -2 0.890625 -2 2 v 1 h 12 v -1 c 0 -1.109375 -0.890626 -2 -2 -2 h -0.972657 c -0.53125 0 -1.027343 -0.359375 -1.027343 -1 v -3 c 0 -1.109375 -0.890626 -2 -2 -2 z m 0 1.40625 c 0.328124 0 0.59375 0.265625 0.59375 0.59375 s -0.265626 0.59375 -0.59375 0.59375 c -0.324219 0 -0.59375 -0.265625 -0.59375 -0.59375 s 0.269531 -0.59375 0.59375 -0.59375 z m 0 0"/><path d="m 2 10 h 12 l -0.800781 5.003906 c -0.199219 0.820313 -0.699219 0.996094 -1.246094 0.996094 h -1.953125 v -3 l -1.125 3 h -1.847656 l -0.027344 -3 l -1.035156 3 h -0.964844 v -1.5 l -1 1.5 h -3 l 0.207031 -1.046875 z m 0 0"/></g></svg>
