<?xml version="1.0" encoding="UTF-8" standalone="no"?>
<!-- Created with Inkscape (http://www.inkscape.org/) -->
<svg
   xmlns:dc="http://purl.org/dc/elements/1.1/"
   xmlns:cc="http://creativecommons.org/ns#"
   xmlns:rdf="http://www.w3.org/1999/02/22-rdf-syntax-ns#"
   xmlns:svg="http://www.w3.org/2000/svg"
   xmlns="http://www.w3.org/2000/svg"
   xmlns:xlink="http://www.w3.org/1999/xlink"
   xmlns:sodipodi="http://sodipodi.sourceforge.net/DTD/sodipodi-0.dtd"
   xmlns:inkscape="http://www.inkscape.org/namespaces/inkscape"
   width="48"
   height="48"
   id="svg3879"
   sodipodi:version="0.32"
   inkscape:version="0.46"
   version="1.0"
   sodipodi:docname="48-voice.svg"
   inkscape:output_extension="org.inkscape.output.svg.inkscape">
  <defs
     id="defs3881">
    <linearGradient
       inkscape:collect="always"
       id="linearGradient3617">
      <stop
         style="stop-color:#2e3436;stop-opacity:1;"
         offset="0"
         id="stop3619" />
      <stop
         style="stop-color:#0b0c0d;stop-opacity:1"
         offset="1"
         id="stop3621" />
    </linearGradient>
    <inkscape:perspective
       sodipodi:type="inkscape:persp3d"
       inkscape:vp_x="0 : 24 : 1"
       inkscape:vp_y="0 : 1000 : 0"
       inkscape:vp_z="48 : 24 : 1"
       inkscape:persp3d-origin="24 : 16 : 1"
       id="perspective96" />
    <linearGradient
       inkscape:collect="always"
       xlink:href="#linearGradient4555"
       id="linearGradient4563"
       gradientUnits="userSpaceOnUse"
       x1="-257.51324"
       y1="-50.301723"
       x2="-257.49792"
       y2="-51.439991"
       gradientTransform="matrix(0.96773657,0,0,1.1033764,283.17944,75.227551)" />
    <linearGradient
       id="linearGradient4555"
       inkscape:collect="always">
      <stop
         id="stop4557"
         offset="0"
         style="stop-color:#545652;stop-opacity:1;" />
      <stop
         id="stop4559"
         offset="1"
         style="stop-color:#80837d;stop-opacity:1" />
    </linearGradient>
    <linearGradient
       gradientTransform="translate(70.143605,-254.44307)"
       inkscape:collect="always"
       xlink:href="#linearGradient4976"
       id="linearGradient4984"
       x1="-24.687374"
       y1="245.84587"
       x2="-24.687374"
       y2="247.61009"
       gradientUnits="userSpaceOnUse" />
    <linearGradient
       inkscape:collect="always"
       id="linearGradient4976">
      <stop
         style="stop-color:#555753;stop-opacity:1;"
         offset="0"
         id="stop4978" />
      <stop
         style="stop-color:#808080;stop-opacity:1"
         offset="1"
         id="stop4980" />
    </linearGradient>
    <linearGradient
       inkscape:collect="always"
       xlink:href="#linearGradient4555"
       id="linearGradient4553"
       x1="-257.51324"
       y1="-50.301723"
       x2="-257.49792"
       y2="-51.439991"
       gradientUnits="userSpaceOnUse"
       gradientTransform="translate(254.47694,70.270976)" />
    <linearGradient
       inkscape:collect="always"
       xlink:href="#linearGradient5677-7"
       id="linearGradient5723-8"
       gradientUnits="userSpaceOnUse"
       gradientTransform="matrix(1,0,0,1.110704,-300.45156,160.82553)"
       x1="305.89481"
       y1="-120.46718"
       x2="306.04715"
       y2="-120.46718" />
    <linearGradient
       inkscape:collect="always"
       id="linearGradient5677-7">
      <stop
         style="stop-color:#ff2de7;stop-opacity:1"
         offset="0"
         id="stop5679-1" />
      <stop
         style="stop-color:#7b009b;stop-opacity:1"
         offset="1"
         id="stop5681-4" />
    </linearGradient>
    <radialGradient
       inkscape:collect="always"
       xlink:href="#linearGradient5043-9-6-1"
       id="radialGradient5721-4"
       gradientUnits="userSpaceOnUse"
       gradientTransform="matrix(0.93663395,1.7844755,-2.1045445,1.0450496,29.790687,695.97821)"
       cx="-306.03387"
       cy="-120.8595"
       fx="-306.03387"
       fy="-120.8595"
       r="3.03685" />
    <linearGradient
       inkscape:collect="always"
       id="linearGradient5043-9-6-1">
      <stop
         style="stop-color:#ffffff;stop-opacity:1;"
         offset="0"
         id="stop5045-4-8-8" />
      <stop
         style="stop-color:#ffffff;stop-opacity:0;"
         offset="1"
         id="stop5047-1-2-6" />
    </linearGradient>
    <linearGradient
       inkscape:collect="always"
       xlink:href="#linearGradient5655-9"
       id="linearGradient5719-5"
       gradientUnits="userSpaceOnUse"
       gradientTransform="matrix(1.0739995,0,0,1.2558918,322.6417,178.48569)"
       x1="-300.82822"
       y1="-126.31032"
       x2="-300.82822"
       y2="-114.83224" />
    <linearGradient
       id="linearGradient5655-9"
       inkscape:collect="always">
      <stop
         id="stop5657-5"
         offset="0"
         style="stop-color:#2e3436;stop-opacity:1" />
      <stop
         id="stop5659-1"
         offset="1"
         style="stop-color:#707e83;stop-opacity:0;" />
    </linearGradient>
    <linearGradient
       y2="-36.569096"
       x2="-219.25159"
       y1="-43.842201"
       x1="-219.25159"
       gradientTransform="matrix(-1.1341053,0,0,1.0684624,-250.41566,72.38903)"
       gradientUnits="userSpaceOnUse"
       id="linearGradient5758"
       xlink:href="#linearGradient5853"
       inkscape:collect="always" />
    <linearGradient
       id="linearGradient5853"
       inkscape:collect="always">
      <stop
         id="stop5855"
         offset="0"
         style="stop-color:#888a85;stop-opacity:1" />
      <stop
         id="stop5857"
         offset="1"
         style="stop-color:#555753;stop-opacity:1" />
    </linearGradient>
    <linearGradient
       inkscape:collect="always"
       xlink:href="#linearGradient5626"
       id="linearGradient5632"
       x1="-25.743168"
       y1="-243.09763"
       x2="-23.90864"
       y2="-240.62437"
       gradientUnits="userSpaceOnUse"
       gradientTransform="matrix(1,0,0,1.4970962,69.91678,375.11023)" />
    <linearGradient
       inkscape:collect="always"
       id="linearGradient5626">
      <stop
         style="stop-color:#babdb6;stop-opacity:1;"
         offset="0"
         id="stop5628" />
      <stop
         style="stop-color:#babdb6;stop-opacity:0;"
         offset="1"
         id="stop5630" />
    </linearGradient>
    <linearGradient
       inkscape:collect="always"
       xlink:href="#linearGradient4971"
       id="linearGradient4977"
       x1="-105.74262"
       y1="-282.20282"
       x2="-102.94624"
       y2="-282.20282"
       gradientUnits="userSpaceOnUse" />
    <linearGradient
       inkscape:collect="always"
       id="linearGradient4971">
      <stop
         style="stop-color:#ffffff;stop-opacity:1;"
         offset="0"
         id="stop4973" />
      <stop
         style="stop-color:#ffffff;stop-opacity:0;"
         offset="1"
         id="stop4975" />
    </linearGradient>
    <linearGradient
       inkscape:collect="always"
       xlink:href="#linearGradient4786"
       id="linearGradient4792"
       x1="-106.91152"
       y1="280.91522"
       x2="-101.28181"
       y2="282.32028"
       gradientUnits="userSpaceOnUse"
       gradientTransform="matrix(0.81265471,0,0,1,129.18772,-269.64677)" />
    <linearGradient
       inkscape:collect="always"
       id="linearGradient4786">
      <stop
         style="stop-color:#555753;stop-opacity:1"
         offset="0"
         id="stop4788" />
      <stop
         style="stop-color:#000000;stop-opacity:1"
         offset="1"
         id="stop4790" />
    </linearGradient>
    <linearGradient
       inkscape:collect="always"
       xlink:href="#linearGradient5677"
       id="linearGradient5449-8"
       gradientUnits="userSpaceOnUse"
       gradientTransform="matrix(1,0,0,1.110704,-269.59835,161.01943)"
       x1="305.89481"
       y1="-120.46718"
       x2="306.04715"
       y2="-120.46718" />
    <linearGradient
       inkscape:collect="always"
       id="linearGradient5677">
      <stop
         style="stop-color:#ff2de7;stop-opacity:1"
         offset="0"
         id="stop5679" />
      <stop
         style="stop-color:#7b009b;stop-opacity:1"
         offset="1"
         id="stop5681" />
    </linearGradient>
    <radialGradient
       inkscape:collect="always"
       xlink:href="#linearGradient5043-9-6"
       id="radialGradient5447-5"
       gradientUnits="userSpaceOnUse"
       gradientTransform="matrix(-0.93663395,1.7844755,2.1045445,1.0450496,1.0625172,696.17212)"
       cx="-306.03387"
       cy="-120.8595"
       fx="-306.03387"
       fy="-120.8595"
       r="3.03685" />
    <linearGradient
       inkscape:collect="always"
       id="linearGradient5043-9-6">
      <stop
         style="stop-color:#ffffff;stop-opacity:1;"
         offset="0"
         id="stop5045-4-8" />
      <stop
         style="stop-color:#ffffff;stop-opacity:0;"
         offset="1"
         id="stop5047-1-2" />
    </linearGradient>
    <linearGradient
       inkscape:collect="always"
       xlink:href="#linearGradient5655"
       id="linearGradient5443-6"
       gradientUnits="userSpaceOnUse"
       gradientTransform="matrix(1.0930233,0,0,1.2470295,297.52685,177.58046)"
       x1="-300.82822"
       y1="-126.31032"
       x2="-300.82822"
       y2="-114.83224" />
    <linearGradient
       id="linearGradient5655"
       inkscape:collect="always">
      <stop
         id="stop5657"
         offset="0"
         style="stop-color:#2e3436;stop-opacity:1" />
      <stop
         id="stop5659"
         offset="1"
         style="stop-color:#707e83;stop-opacity:0;" />
    </linearGradient>
    <linearGradient
       inkscape:collect="always"
       xlink:href="#linearGradient5661"
       id="linearGradient5667"
       x1="-219.25159"
       y1="-43.842201"
       x2="-219.25159"
       y2="-36.569096"
       gradientUnits="userSpaceOnUse"
       gradientTransform="matrix(1.1341053,0,0,1.0632786,281.26887,72.326317)" />
    <linearGradient
       inkscape:collect="always"
       id="linearGradient5661">
      <stop
         style="stop-color:#888a85;stop-opacity:1;"
         offset="0"
         id="stop5663" />
      <stop
         style="stop-color:#555753;stop-opacity:1"
         offset="1"
         id="stop5665" />
    </linearGradient>
    <linearGradient
       inkscape:collect="always"
       xlink:href="#linearGradient5206"
       id="linearGradient5212"
       x1="-304.49771"
       y1="-142.89493"
       x2="-262.4259"
       y2="-143.92334"
       gradientUnits="userSpaceOnUse" />
    <linearGradient
       inkscape:collect="always"
       id="linearGradient5206">
      <stop
         style="stop-color:#ffffff;stop-opacity:1"
         offset="0"
         id="stop5208" />
      <stop
         style="stop-color:#dededd;stop-opacity:0;"
         offset="1"
         id="stop5210" />
    </linearGradient>
    <linearGradient
       inkscape:collect="always"
       xlink:href="#linearGradient5388"
       id="linearGradient5394"
       x1="-283.80222"
       y1="-143.74782"
       x2="-283.80222"
       y2="-141.12897"
       gradientUnits="userSpaceOnUse"
       gradientTransform="translate(299.49582,147.12151)" />
    <linearGradient
       inkscape:collect="always"
       id="linearGradient5388">
      <stop
         style="stop-color:#555753;stop-opacity:1"
         offset="0"
         id="stop5390" />
      <stop
         style="stop-color:#000000;stop-opacity:1"
         offset="1"
         id="stop5392" />
    </linearGradient>
    <radialGradient
       inkscape:collect="always"
       xlink:href="#linearGradient5376"
       id="radialGradient5382"
       cx="-284.44626"
       cy="-153.18155"
       fx="-284.44626"
       fy="-153.18155"
       r="17.449057"
       gradientTransform="matrix(0.7493289,0.0071443,-0.00739936,0.77608101,227.05992,124.25584)"
       gradientUnits="userSpaceOnUse" />
    <linearGradient
       inkscape:collect="always"
       id="linearGradient5376">
      <stop
         style="stop-color:#babdb6;stop-opacity:1"
         offset="0"
         id="stop5378" />
      <stop
         style="stop-color:#434542;stop-opacity:1"
         offset="1"
         id="stop5380" />
    </linearGradient>
    <linearGradient
       inkscape:collect="always"
       xlink:href="#linearGradient3617"
       id="linearGradient3623"
       x1="1.421198"
       y1="19.01931"
       x2="1.421198"
       y2="34.927505"
       gradientUnits="userSpaceOnUse" />
    <linearGradient
       inkscape:collect="always"
       xlink:href="#linearGradient3617"
       id="linearGradient3627"
       gradientUnits="userSpaceOnUse"
       x1="1.421198"
       y1="19.01931"
       x2="1.421198"
       y2="34.927505"
       gradientTransform="translate(27.998451,0)" />
    <inkscape:perspective
       id="perspective3637"
       inkscape:persp3d-origin="0.5 : 0.33333333 : 1"
       inkscape:vp_z="1 : 0.5 : 1"
       inkscape:vp_y="0 : 1000 : 0"
       inkscape:vp_x="0 : 0.5 : 1"
       sodipodi:type="inkscape:persp3d" />
    <linearGradient
       inkscape:collect="always"
       xlink:href="#linearGradient3617-8"
       id="linearGradient3627-1"
       gradientUnits="userSpaceOnUse"
       x1="1.421198"
       y1="19.01931"
       x2="1.421198"
       y2="34.927505"
       gradientTransform="translate(27.998451,0)" />
    <linearGradient
       inkscape:collect="always"
       id="linearGradient3617-8">
      <stop
         style="stop-color:#2e3436;stop-opacity:1;"
         offset="0"
         id="stop3619-2" />
      <stop
         style="stop-color:#0b0c0d;stop-opacity:1"
         offset="1"
         id="stop3621-4" />
    </linearGradient>
    <linearGradient
       y2="34.927505"
       x2="1.421198"
       y1="19.01931"
       x1="1.421198"
       gradientTransform="translate(27.998451,2.9924335e-7)"
       gradientUnits="userSpaceOnUse"
       id="linearGradient3646"
       xlink:href="#linearGradient3617-8"
       inkscape:collect="always" />
  </defs>
  <sodipodi:namedview
     id="base"
     pagecolor="#ffffff"
     bordercolor="#666666"
     borderopacity="1.0"
     inkscape:pageopacity="0.0"
     inkscape:pageshadow="2"
     inkscape:zoom="1"
     inkscape:cx="41.836337"
     inkscape:cy="8.487141"
     inkscape:current-layer="layer1"
     showgrid="true"
     inkscape:grid-bbox="true"
     inkscape:document-units="px"
     inkscape:window-width="1280"
     inkscape:window-height="752"
     inkscape:window-x="0"
     inkscape:window-y="28" />
  <metadata
     id="metadata3884">
    <rdf:RDF>
      <cc:Work
         rdf:about="">
        <dc:format>image/svg+xml</dc:format>
        <dc:type
           rdf:resource="http://purl.org/dc/dcmitype/StillImage" />
        <dc:title />
      </cc:Work>
    </rdf:RDF>
  </metadata>
  <g
     id="layer1"
     inkscape:label="Layer 1"
     inkscape:groupmode="layer"
     transform="translate(8.5714283,-0.14285715)">
    <rect
       style="fill:#cc0000;fill-opacity:0;stroke:none"
       id="rect5861"
       width="48"
       height="48"
       x="-8.5714283"
       y="0.14285715"
       inkscape:export-xdpi="90.108963"
       inkscape:export-ydpi="90.108963"
       inkscape:export-filename="/home/hbons/Desktop/Pidgin VV/voice.png" />
    <path
       style="font-size:medium;font-style:normal;font-variant:normal;font-weight:normal;font-stretch:normal;text-indent:0;text-align:start;text-decoration:none;line-height:normal;letter-spacing:normal;word-spacing:normal;text-transform:none;direction:ltr;block-progression:tb;writing-mode:lr-tb;text-anchor:start;color:#000000;fill:#808080;fill-opacity:1;stroke:none;stroke-width:1;marker:none;visibility:visible;display:inline;overflow:visible;enable-background:accumulate;font-family:Bitstream Vera Sans;-inkscape-font-specification:Bitstream Vera Sans"
       d="m 8.7956674,3.2221118 c -6.82455,0 -12.3542402,5.47976 -12.3542402,12.2812502 l 0,6.40625 c 0,0.71914 0.0695,1.40908 0.18813,2.09375 l 1.0034,0 c -0.12713,-0.67917 -0.18814,-1.37616 -0.18814,-2.09375 l 0,-6.40625 c 0,-6.2647902 5.0648202,-11.2812502 11.3508502,-11.2812502 l 13.2912696,0 c 6.28603,0 11.35085,5.01646 11.35085,11.2812502 l 0,6.40625 c 0,0.71759 -0.061,1.41458 -0.18814,2.09375 l 1.00339,0 c 0.11864,-0.68467 0.18814,-1.37461 0.18814,-2.09375 l 0,-6.40625 c 0,-6.8014902 -5.52969,-12.2812502 -12.35424,-12.2812502 l -13.2912696,0 z"
       id="rect5549"
       sodipodi:nodetypes="ccccccccccccccccc"
       inkscape:export-filename="/home/hbons/Desktop/Pidgin VV/voice.png"
       inkscape:export-xdpi="90.108963"
       inkscape:export-ydpi="90.108963" />
    <path
       style="fill:url(#radialGradient5382);fill-opacity:1;stroke:none"
       d="m -1.5394328,9.4030418 c -0.34234,-0.23492 -0.47813,-0.54724 -0.45029,-1.03563 0.0286,-0.50183 0.14055,-0.65306 1.09192003,-1.4752 4.64793017,-4.01662 13.37392977,-5.87446 21.59445977,-4.59766 3.75498,0.58323 7.28842,1.86204 9.74819,3.52803 1.32365,0.89651 2.31811,1.86267 2.4306,2.36144 0.15327,0.67962 -0.31249,1.36291 -0.92947,1.36354 -0.20344,2.2e-4 -0.38709,-0.0843 -0.80622,-0.37099 -4.58901,-3.1391 -11.82576,-4.34498 -18.9107,-3.67751 -4.8043396,0.4526 -9.0149896,1.45025 -12.27576977,3.58044 -0.80479,0.52575 -1.10366003,0.59052 -1.49272003,0.32354 l 0,0 z"
       id="path5202"
       sodipodi:nodetypes="cssssssssscc"
       inkscape:export-filename="/home/hbons/Desktop/Pidgin VV/voice.png"
       inkscape:export-xdpi="90.108963"
       inkscape:export-ydpi="90.108963" />
    <path
       style="font-size:medium;font-style:normal;font-variant:normal;font-weight:normal;font-stretch:normal;text-indent:0;text-align:start;text-decoration:none;line-height:normal;letter-spacing:normal;word-spacing:normal;text-transform:none;direction:ltr;block-progression:tb;writing-mode:lr-tb;text-anchor:start;color:#000000;fill:url(#linearGradient5394);fill-opacity:1;stroke:none;stroke-width:1.36950052;marker:none;visibility:visible;display:inline;overflow:visible;enable-background:accumulate;font-family:Bitstream Vera Sans;-inkscape-font-specification:Bitstream Vera Sans"
       d="m 14.152067,1.1469218 c -1.25586,0.0451 -2.50746,0.15463 -3.71875,0.32324 -4.8155596,0.67034 -9.1494998,2.303 -11.9374998,4.78399 -0.0171,0.0152 -0.0455,0.017 -0.0625,0.0323 a 0.50262213,0.52231753 0 0 0 -0.0625,0.0969 c -0.83386,0.60798 -1.11293,1.78508 -0.59375,2.71524 0.51041,0.9144502 1.58283003,1.2501502 2.50000003,0.84042 0.0165,-0.007 0.0462,0.008 0.0625,0 a 0.4997817,0.5193658 0 0 0 0.125,-0.0646 c 0.008,-0.004 0.0233,0.005 0.0312,0 0.0189,-0.0126 0.0435,-0.0198 0.0625,-0.0323 0.0117,-0.007 0.0195,-0.0246 0.0312,-0.0323 6.35026017,-4.18918 18.36829977,-4.99194 26.59374977,-1.68086 1.15168,0.46359 2.18766,0.97193 3.09375,1.55156 a 0.50097,0.51819158 0 0 0 0.0312,0.0323 c 0.0119,0.007 0.0194,0.0246 0.0312,0.0323 a 0.50097,0.51819158 0 0 0 0.0937,0.0969 c 0.95145,0.5682002 2.20068,0.2407102 2.75,-0.74345 0.46922,-0.84064 0.27778,-1.87694 -0.375,-2.5213 a 0.50262213,0.52231753 0 0 0 -0.0312,-0.0647 c -0.006,-0.005 -0.0251,0.005 -0.0312,0 a 0.50262213,0.52231753 0 0 0 -0.0312,-0.0323 c -0.0275,-0.0237 -0.0336,-0.0747 -0.0625,-0.0969 a 0.50262213,0.52231753 0 0 0 0,-0.0323 c -1.77629,-1.631 -4.30344,-2.93446 -7.34375,-3.84658 -2.3514,-0.70544 -4.84998,-1.13016 -7.375,-1.29297 -1.26251,-0.0814 -2.52539,-0.10973 -3.78125,-0.0646 z m 1.875,1.03438 c 3.0708,0.0463 6.16037,0.47336 9,1.32529 l 0.0312,0 c 2.76259,0.83245 5.04679,2.04432 6.65625,3.42637 a 0.50005001,0.51723997 0 0 0 0.21875,0.22627 c 0.48342,0.28869 0.6541,0.92223 0.375,1.42227 -0.23724,0.42504 -0.72255,0.61655 -1.15625,0.48486 a 0.49889166,0.51844088 0 0 0 -0.15625,-0.0969 c -1.02284,-0.68188 -2.16864,-1.28682 -3.46875,-1.81017 -4.30756,-1.73396 -9.49646,-2.39535 -14.46875,-2.06875 -4.8872196,0.32102 -9.5421896,1.6205 -12.90624977,3.81426 -0.008,0.005 -0.0237,-0.005 -0.0312,0 a 0.50097251,0.51819418 0 0 0 -0.0625,0.0323 0.50097251,0.51819418 0 0 0 -0.0625,0.0323 c -0.0119,0.008 -0.0194,0.0244 -0.0312,0.0323 -0.47706,0.25937 -1.07163003,0.0673 -1.34375003,-0.42021 -0.26792,-0.48002 -0.12657,-1.08748 0.3125,-1.38995 a 0.50262213,0.52231753 0 0 0 0.0625,-0.0323 0.50005001,0.51723997 0 0 0 0.18750003,-0.16162 c 2.56214017,-2.25136 6.72203017,-3.84535 11.37499977,-4.49307 1.76729,-0.24602 3.62627,-0.35108 5.46875,-0.32324 z"
       id="path5194"
       inkscape:export-filename="/home/hbons/Desktop/Pidgin VV/voice.png"
       inkscape:export-xdpi="90.108963"
       inkscape:export-ydpi="90.108963" />
    <path
       sodipodi:type="arc"
       style="fill:none;stroke:url(#linearGradient5212);stroke-width:0.96893835;stroke-linecap:round;stroke-linejoin:miter;stroke-miterlimit:4;stroke-opacity:1;stroke-dasharray:none;stroke-dashoffset:220"
       id="path5204"
       sodipodi:cx="-285.49203"
       sodipodi:cy="-135.7495"
       sodipodi:rx="18.775068"
       sodipodi:ry="9.3875341"
       d="m -300.83968,-141.15673 c 5.97266,-4.23814 17.68585,-5.25293 26.16212,-2.26659 1.7838,0.62846 3.33482,1.4076 4.58342,2.30242"
       transform="matrix(-1.0296667,0,0,1.0344536,-278.49445,154.74398)"
       sodipodi:start="3.7554218"
       sodipodi:end="5.6740176"
       sodipodi:open="true"
       inkscape:export-filename="/home/hbons/Desktop/Pidgin VV/voice.png"
       inkscape:export-xdpi="90.108963"
       inkscape:export-ydpi="90.108963" />
    <path
       style="font-size:medium;font-style:normal;font-variant:normal;font-weight:normal;font-stretch:normal;text-indent:0;text-align:start;text-decoration:none;line-height:normal;letter-spacing:normal;word-spacing:normal;text-transform:none;direction:ltr;block-progression:tb;writing-mode:lr-tb;text-anchor:start;color:#000000;fill:#808080;fill-opacity:1;stroke:none;stroke-width:1;marker:none;visibility:visible;display:inline;overflow:visible;enable-background:accumulate;font-family:Bitstream Vera Sans;-inkscape-font-specification:Bitstream Vera Sans"
       d="m -3.5925728,33.735378 0,0.0312 c 0,6.80149 5.4797602,12.28125 12.2812502,12.28125 l 9.2499996,0 0,-1 -9.2499996,0 c -6.26479,0 -11.2812502,-5.01646 -11.2812502,-11.28125 l 0,-0.0312 -1,0 z"
       id="rect5551"
       sodipodi:nodetypes="ccccccccc"
       inkscape:export-filename="/home/hbons/Desktop/Pidgin VV/voice.png"
       inkscape:export-xdpi="90.108963"
       inkscape:export-ydpi="90.108963" />
    <path
       sodipodi:nodetypes="cccccccc"
       id="path5431"
       d="m 33.003467,19.691354 c 2.15778,0 3.89467,1.77306 3.89467,3.975801 l 0,6.984518 c 0,2.20273 -1.73689,3.9758 -3.89467,3.9758 l -3.07307,0.04092 -0.0268,-14.992278 c 1.3839,0.04051 1.81932,0.01533 3.0999,0.01533 l 0,-9.2e-5 z"
       style="fill:#ffffff;fill-opacity:1;stroke:url(#linearGradient5667);stroke-width:1;stroke-linecap:round;stroke-linejoin:miter;stroke-miterlimit:4;stroke-opacity:1;stroke-dasharray:none;stroke-dashoffset:220"
       inkscape:export-filename="/home/hbons/Desktop/Pidgin VV/voice.png"
       inkscape:export-xdpi="90.108963"
       inkscape:export-ydpi="90.108963" />
    <rect
       y="19.212761"
       x="-32.432659"
       height="14.883246"
       width="2.0379403"
       id="rect5433"
       style="fill:url(#linearGradient5443-6);fill-opacity:1;stroke:none"
       transform="scale(-1,1)"
       inkscape:export-filename="/home/hbons/Desktop/Pidgin VV/voice.png"
       inkscape:export-xdpi="90.108963"
       inkscape:export-ydpi="90.108963" />
    <path
       style="opacity:0.5;fill:url(#radialGradient5447-5);fill-opacity:1;stroke:none"
       d="m 32.779907,20.143134 c 1.82155,0 3.2878,1.657121 3.2878,3.715816 l 0,6.527768 c 0,2.058685 -1.46625,3.715805 -3.2878,3.715805 l -2.40128,-0.03334 0,-13.925911 c 1.16825,0.03784 1.32024,0 2.40128,0 l 0,-1.39e-4 z"
       id="path5437"
       sodipodi:nodetypes="cccccccc"
       inkscape:export-filename="/home/hbons/Desktop/Pidgin VV/voice.png"
       inkscape:export-xdpi="90.108963"
       inkscape:export-ydpi="90.108963" />
    <rect
       ry="2.0194242"
       rx="2.0194242"
       y="7.854322"
       x="43.456417"
       height="9.9894991"
       width="4.0564089"
       id="rect4784"
       style="fill:#555753;fill-opacity:1;stroke:url(#linearGradient4792);stroke-width:1;stroke-linecap:round;stroke-linejoin:miter;stroke-miterlimit:4;stroke-opacity:1;stroke-dasharray:none;stroke-dashoffset:220"
       transform="matrix(0,1,1,0,0,0)"
       inkscape:export-filename="/home/hbons/Desktop/Pidgin VV/voice.png"
       inkscape:export-xdpi="90.108963"
       inkscape:export-ydpi="90.108963" />
    <path
       sodipodi:type="inkscape:offset"
       inkscape:radius="-1.0081301"
       inkscape:original="M -103.46875 -287.5 C -104.58751 -287.5 -105.5 -286.58751 -105.5 -285.46875 L -105.5 -279.53125 C -105.5 -278.41249 -104.58751 -277.5 -103.46875 -277.5 L -102.53125 -277.5 C -101.41249 -277.5 -100.5 -278.41249 -100.5 -279.53125 L -100.5 -285.46875 C -100.5 -286.58751 -101.41249 -287.5 -102.53125 -287.5 L -103.46875 -287.5 z "
       style="opacity:0.6081081;fill:none;stroke:url(#linearGradient4977);stroke-width:1.22016776;stroke-linecap:round;stroke-linejoin:miter;stroke-miterlimit:4;stroke-opacity:1;stroke-dasharray:none;stroke-dashoffset:220"
       id="path4967"
       d="m -103.46875,-286.5 c -0.57059,0 -1.03125,0.46066 -1.03125,1.03125 l 0,5.9375 c 0,0.57059 0.46066,1.03125 1.03125,1.03125 l 0.9375,0 c 0.57059,0 1.03125,-0.46066 1.03125,-1.03125 l 0,-5.9375 c 0,-0.57059 -0.46066,-1.03125 -1.03125,-1.03125 l -0.9375,0 z"
       transform="matrix(0,0.67167761,1,0,295.34493,114.69191)"
       inkscape:export-filename="/home/hbons/Desktop/Pidgin VV/voice.png"
       inkscape:export-xdpi="90.108963"
       inkscape:export-ydpi="90.108963" />
    <rect
       transform="matrix(0,1,1,0,0,0)"
       style="fill:url(#linearGradient5632);fill-opacity:1;stroke:none"
       id="rect5572"
       width="3.0350325"
       height="8.8761415"
       x="43.98975"
       y="8.3505688"
       rx="1.5175163"
       ry="1.5023295"
       inkscape:export-filename="/home/hbons/Desktop/Pidgin VV/voice.png"
       inkscape:export-xdpi="90.108963"
       inkscape:export-ydpi="90.108963" />
    <path
       style="fill:#ffffff;fill-opacity:1;stroke:url(#linearGradient5758);stroke-width:1;stroke-linecap:round;stroke-linejoin:miter;stroke-miterlimit:4;stroke-opacity:1;stroke-dasharray:none;stroke-dashoffset:220"
       d="m -2.1502628,19.497458 c -2.15778,0 -3.89467,1.781702 -3.89467,3.995182 l 0,7.01857 c 0,2.213469 1.73689,3.995183 3.89467,3.995183 l 3.05582003,0.0024 0.023,-15.022765 c -1.3839,0.04071 -1.79824,0.0115 -3.07882003,0.0115 l 0,-9.6e-5 z"
       id="path5707"
       sodipodi:nodetypes="cccccccc"
       inkscape:export-filename="/home/hbons/Desktop/Pidgin VV/voice.png"
       inkscape:export-xdpi="90.108963"
       inkscape:export-ydpi="90.108963" />
    <rect
       style="fill:url(#linearGradient5719-5);fill-opacity:1;stroke:none"
       id="rect5709"
       width="2.0024707"
       height="14.989019"
       x="-1.5749686"
       y="18.992523"
       inkscape:export-filename="/home/hbons/Desktop/Pidgin VV/voice.png"
       inkscape:export-xdpi="90.108963"
       inkscape:export-ydpi="90.108963" />
    <rect
       style="fill:url(#linearGradient3623);fill-opacity:1;stroke:none"
       id="rect5711"
       width="1.9620597"
       height="15.908196"
       x="0.44016811"
       y="19.01931"
       rx="0.98102987"
       ry="0.98102987"
       inkscape:export-filename="/home/hbons/Desktop/Pidgin VV/voice.png"
       inkscape:export-xdpi="90.108963"
       inkscape:export-ydpi="90.108963" />
    <path
       sodipodi:nodetypes="cccccccc"
       id="path5713"
       d="m -1.9267028,19.949234 c -1.82155,0 -3.2878,1.657121 -3.2878,3.715816 l 0,6.527768 c 0,2.058685 1.46625,3.715805 3.2878,3.715805 l 2.40128003,-0.03334 0,-13.925911 c -1.16825,0.03784 -1.32024,0 -2.40128003,0 l 0,-1.39e-4 z"
       style="opacity:0.5;fill:url(#radialGradient5721-4);fill-opacity:1;stroke:none"
       inkscape:export-filename="/home/hbons/Desktop/Pidgin VV/voice.png"
       inkscape:export-xdpi="90.108963"
       inkscape:export-ydpi="90.108963" />
    <rect
       style="fill:url(#linearGradient4553);fill-opacity:1;stroke:none"
       id="rect5811"
       width="1.0079625"
       height="3.591476"
       x="-3.557543"
       y="18.549107"
       rx="0.50398123"
       ry="0.50398123"
       inkscape:export-filename="/home/hbons/Desktop/Pidgin VV/voice.png"
       inkscape:export-xdpi="90.108963"
       inkscape:export-ydpi="90.108963" />
    <path
       sodipodi:type="arc"
       style="fill:#dee1e3;fill-opacity:1;stroke:none"
       id="path5859"
       sodipodi:cx="-244.01906"
       sodipodi:cy="-24.045986"
       sodipodi:rx="0.83739835"
       sodipodi:ry="1.3739837"
       d="m -243.18166,-24.045986 c 0,0.75883 -0.37492,1.373984 -0.8374,1.373984 -0.46248,0 -0.8374,-0.615154 -0.8374,-1.373984 0,-0.75883 0.37492,-1.373984 0.8374,-1.373984 0.46248,0 0.8374,0.615154 0.8374,1.373984 z"
       transform="matrix(1.2048093,0,0,1.0941414,303.39913,71.819285)"
       inkscape:export-filename="/home/hbons/Desktop/Pidgin VV/voice.png"
       inkscape:export-xdpi="90.108963"
       inkscape:export-ydpi="90.108963" />
    <rect
       style="fill:url(#linearGradient4984);fill-opacity:1;stroke:none"
       id="rect5811-4"
       width="1.0079625"
       height="2.3272483"
       x="45.000946"
       y="-9.4003887"
       rx="0.50398123"
       ry="0.50398123"
       transform="matrix(0,1,-1,0,0,0)"
       inkscape:export-filename="/home/hbons/Desktop/Pidgin VV/voice.png"
       inkscape:export-xdpi="90.108963"
       inkscape:export-ydpi="90.108963" />
    <rect
       y="0.14285715"
       x="-8.5714283"
       height="48"
       width="48"
       id="rect5863"
       style="fill:#ffffff;fill-opacity:0;stroke:none"
       inkscape:export-xdpi="90.108963"
       inkscape:export-ydpi="90.108963"
       inkscape:export-filename="/home/hbons/Desktop/Pidgin VV/voice.png" />
    <rect
       ry="0.50398123"
       rx="0.50398123"
       y="18.158859"
       x="33.470028"
       height="3.9627495"
       width="0.97544211"
       id="rect4561"
       style="fill:url(#linearGradient4563);fill-opacity:1;stroke:none"
       inkscape:export-xdpi="90.108963"
       inkscape:export-ydpi="90.108963"
       inkscape:export-filename="/home/hbons/Desktop/Pidgin VV/voice.png" />
    <rect
       inkscape:export-ydpi="90.108963"
       inkscape:export-xdpi="90.108963"
       inkscape:export-filename="/home/hbons/Desktop/Pidgin VV/voice.png"
       ry="0.98102987"
       rx="0.98102987"
       y="19.01931"
       x="28.43862"
       height="15.908196"
       width="1.9620597"
       id="rect3625"
       style="fill:url(#linearGradient3646);fill-opacity:1;stroke:none" />
  </g>
</svg>
