<?xml version="1.0" encoding="UTF-8"?>
<svg height="16px" viewBox="0 0 16 16" width="16px" xmlns="http://www.w3.org/2000/svg">
    <path d="m 13 0 c -1.65625 0 -3 1.34375 -3 3 c 0 0.125 0.007812 0.25 0.023438 0.367188 l -4.941407 2.476562 c -0.539062 -0.523438 -1.273437 -0.84375 -2.082031 -0.84375 c -1.65625 0 -3 1.34375 -3 3 s 1.34375 3 3 3 c 0.808594 0 1.542969 -0.320312 2.082031 -0.84375 l 4.941407 2.476562 c -0.015626 0.117188 -0.023438 0.242188 -0.023438 0.367188 c 0 1.65625 1.34375 3 3 3 s 3 -1.34375 3 -3 s -1.34375 -3 -3 -3 c -0.808594 0 -1.542969 0.320312 -2.082031 0.84375 l -4.941407 -2.476562 c 0.015626 -0.117188 0.023438 -0.242188 0.023438 -0.367188 s -0.007812 -0.25 -0.023438 -0.367188 l 4.941407 -2.476562 c 0.539062 0.523438 1.273437 0.84375 2.082031 0.84375 c 1.65625 0 3 -1.34375 3 -3 s -1.34375 -3 -3 -3 z m 0 2 c 0.550781 0 1 0.449219 1 1 s -0.449219 1 -1 1 s -1 -0.449219 -1 -1 s 0.449219 -1 1 -1 z m -10 5 c 0.550781 0 1 0.449219 1 1 s -0.449219 1 -1 1 s -1 -0.449219 -1 -1 s 0.449219 -1 1 -1 z m 10 5 c 0.550781 0 1 0.449219 1 1 s -0.449219 1 -1 1 s -1 -0.449219 -1 -1 s 0.449219 -1 1 -1 z m 0 0" fill="#222222"/>
</svg>
