<?xml version="1.0" encoding="UTF-8"?>
<svg height="16px" viewBox="0 0 16 16" width="16px" xmlns="http://www.w3.org/2000/svg">
    <path d="m 6.414062 0 c -0.265624 0 -0.519531 0.105469 -0.707031 0.292969 l -1.707031 1.707031 h -1.085938 c -1.644531 0 -2.9999995 1.355469 -2.9999995 3 v 7 c 0 1.644531 1.3554685 3 2.9999995 3 h 10 c 1.644532 0 3 -1.355469 3 -3 v -7 c 0 -1.644531 -1.355468 -3 -3 -3 h -1.085937 l -1.707031 -1.707031 c -0.1875 -0.1875 -0.441406 -0.292969 -0.707032 -0.292969 z m 0.414063 2 h 2.171875 l 1.707031 1.707031 c 0.1875 0.1875 0.441407 0.292969 0.707031 0.292969 h 1.5 c 0.570313 0 1 0.429688 1 1 v 7 c 0 0.570312 -0.429687 1 -1 1 h -10 c -0.570312 0 -1 -0.429688 -1 -1 v -7 c 0 -0.570312 0.429688 -1 1 -1 h 1.5 c 0.265626 0 0.519532 -0.105469 0.707032 -0.292969 z m 1.085937 3 c -1.644531 0 -3 1.355469 -3 3 s 1.585938 3 3 3 c 1.414063 0 3 -1.355469 3 -3 s -1.355468 -3 -3 -3 z m 0 2 c 0.5625 0 1 0.4375 1 1 s -0.4375 1 -1 1 s -1 -0.4375 -1 -1 s 0.4375 -1 1 -1 z m 0 0" fill="#2e3434"/>
</svg>
