<?xml version="1.0" encoding="UTF-8"?>
<svg height="16px" viewBox="0 0 16 16" width="16px" xmlns="http://www.w3.org/2000/svg">
    <g fill="#222222">
        <path d="m 12 1 c 1.660156 0 3 1.339844 3 3 v 6 c 0 1.660156 -1.339844 3 -3 3 h -8 c -1.660156 0 -3 -1.339844 -3 -3 v -6 c 0 -1.660156 1.339844 -3 3 -3 z m 0 2 h -8 c -0.554688 0 -1 0.445312 -1 1 v 6 c 0 0.554688 0.445312 1 1 1 h 8 c 0.554688 0 1 -0.445312 1 -1 v -6 c 0 -0.554688 -0.445312 -1 -1 -1 z m -4 11 c -5 0 -5 1 -5 1 c 0 1 1 1 1 1 h 8 c 1 0 1 -1 1 -1 s 0 -1 -5 -1 z m 0 0"/>
        <path d="m 4.5 5.003906 s -0.5 0 -0.5 0.5 v 4 c 0 0.5 0.5 0.5 0.5 0.5 h 4 c 0.5 0 0.5 -0.5 0.5 -0.5 v -4 c 0 -0.5 -0.4375 -0.5 -0.5 -0.5 z m 0.5 1.996094 h 3 v 2 h -3 z m 5.5 -2.996094 s -0.5 0 -0.5 0.5 v 0.980469 s 0 0.5 0.5 0.5 l 1 0.003906 s 0.5 0 0.5 -0.5 v -0.984375 s 0 -0.5 -0.5 -0.5 z m 0 0"/>
    </g>
</svg>
