<?xml version="1.0" encoding="UTF-8"?>
<svg height="16px" viewBox="0 0 16 16" width="16px" xmlns="http://www.w3.org/2000/svg" xmlns:xlink="http://www.w3.org/1999/xlink">
    <filter id="a" height="100%" width="100%" x="0%" y="0%">
        <feColorMatrix color-interpolation-filters="sRGB" values="0 0 0 0 1 0 0 0 0 1 0 0 0 0 1 0 0 0 1 0"/>
    </filter>
    <mask id="b">
        <g filter="url(#a)">
            <path d="m -1.6 -1.6 h 19.2 v 19.2 h -19.2 z" fill-opacity="0.5"/>
        </g>
    </mask>
    <clipPath id="c">
        <path d="m 0 0 h 601 v 400 h -601 z"/>
    </clipPath>
    <path d="m 7.128906 1 c -2.765625 -0.058594 -5.054687 2.128906 -5.121094 4.890625 c -0.003906 0.035156 -0.007812 0.066406 -0.007812 0.101563 v 0.007812 c 0.003906 0.546875 0.449219 0.992188 1 0.992188 s 0.996094 -0.445313 1 -0.992188 v -0.007812 c 0 -1.476563 1.078125 -2.730469 2.535156 -2.957032 c 1.460938 -0.234375 2.871094 0.636719 3.320313 2.042969 c 0.457031 1.40625 -0.179688 2.9375 -1.503907 3.601563 l 0.074219 -0.035157 c -1.035156 0.421875 -1.628906 1.25 -1.921875 1.941407 c -0.292968 0.691406 -0.421875 1.246093 -0.640625 1.59375 c -0.359375 0.558593 -0.863281 0.683593 -1.246093 0.609374 c -0.382813 -0.074218 -0.617188 -0.21875 -0.617188 -0.789062 v -1 c 0 -0.003906 0 -0.007812 0 -0.007812 c 0 -0.554688 -0.449219 -1 -1 -1 s -1 0.445312 -1 1 v 0.007812 v 1 c 0 1.425781 1.054688 2.527344 2.238281 2.753906 c 1.183594 0.226563 2.53125 -0.289062 3.304688 -1.496094 c 0.476562 -0.742187 0.613281 -1.441406 0.804687 -1.894531 c 0.1875 -0.449219 0.296875 -0.648437 0.832032 -0.867187 l 0.039062 -0.015625 l 0.035156 -0.019531 c 2.195313 -1.109376 3.257813 -3.652344 2.507813 -5.996094 c -0.65625 -2.019532 -2.511719 -3.40625 -4.632813 -3.464844 z m 5.753906 0.179688 c -0.195312 -0.003907 -0.390624 0.054687 -0.554687 0.160156 c -0.464844 0.300781 -0.597656 0.921875 -0.296875 1.382812 c 1.292969 1.992188 1.292969 4.546875 0 6.535156 c -0.300781 0.464844 -0.167969 1.082032 0.296875 1.382813 c 0.460937 0.300781 1.078125 0.171875 1.382813 -0.292969 c 1.71875 -2.644531 1.71875 -6.066406 0 -8.714844 c -0.183594 -0.277343 -0.492188 -0.449218 -0.828126 -0.453124 z m -5.882812 2.820312 c -1.105469 0 -2 0.894531 -2 2 s 0.894531 2 2 2 s 2 -0.894531 2 -2 s -0.894531 -2 -2 -2 z m 0 0" fill="#222222"/>
    <g mask="url(#b)">
        <g clip-path="url(#c)" transform="matrix(1 0 0 1 -64 -340)">
            <path d="m 210.5 151 c 0 1.382812 -1.121094 2.5 -2.5 2.5 c -1.382812 0 -2.5 -1.121094 -2.5 -2.5 s 1.117188 -2.5 2.5 -2.5 c 1.378906 0 2.5 1.117188 2.5 2.5 z m 0 0" fill="#222222" fill-opacity="0.34902"/>
        </g>
    </g>
</svg>
