<?xml version="1.0" encoding="UTF-8"?>
<svg height="16px" viewBox="0 0 16 16" width="16px" xmlns="http://www.w3.org/2000/svg" xmlns:xlink="http://www.w3.org/1999/xlink">
    <filter id="a" height="100%" width="100%" x="0%" y="0%">
        <feColorMatrix color-interpolation-filters="sRGB" values="0 0 0 0 1 0 0 0 0 1 0 0 0 0 1 0 0 0 1 0"/>
    </filter>
    <mask id="b">
        <g filter="url(#a)">
            <path d="m -1.6 -1.6 h 19.2 v 19.2 h -19.2 z" fill-opacity="0.5"/>
        </g>
    </mask>
    <clipPath id="c">
        <path d="m 0 0 h 601 v 400 h -601 z"/>
    </clipPath>
    <path d="m 3 1 c -1.644531 0 -3 1.355469 -3 3 v 6 c 0 1.644531 1.355469 3 3 3 h 0.996094 c 0.546875 0 0.988281 -0.445312 0.992187 -0.992188 v -0.015624 c -0.003906 -0.546876 -0.445312 -0.992188 -0.992187 -0.992188 h -0.996094 c -0.570312 0 -1 -0.429688 -1 -1 v -6 c 0 -0.570312 0.429688 -1 1 -1 h 9.976562 c 0.570313 0 1 0.429688 1 1 v 0.011719 c 0 0.546875 0.441407 0.988281 0.988282 0.988281 h 0.023437 c 0.542969 0 0.988281 -0.441406 0.988281 -0.988281 v -0.011719 c 0 -1.644531 -1.355468 -3 -3 -3 z m 6.488281 3 c -2.488281 0 -4.5 2.015625 -4.5 4.5 s 2.011719 4.5 4.5 4.5 c 0.84375 0 1.675781 -0.242188 2.390625 -0.695312 l 2.402344 2.402343 c 0.390625 0.390625 1.023438 0.390625 1.414062 0 c 0.390626 -0.390625 0.390626 -1.023437 0 -1.414062 l -2.402343 -2.398438 c 0.453125 -0.71875 0.691406 -1.546875 0.695312 -2.394531 c 0 -2.484375 -2.015625 -4.5 -4.5 -4.5 z m 0 2 c 1.378907 0 2.5 1.121094 2.5 2.5 s -1.121093 2.5 -2.5 2.5 c -1.382812 0 -2.5 -1.121094 -2.5 -2.5 s 1.117188 -2.5 2.5 -2.5 z m -4.488281 8 c -1.105469 0 -2 0.894531 -2 2 h 10 c 0 -1.105469 -0.894531 -2 -2 -2 z m 0 0" fill="#212121"/>
    <g mask="url(#b)">
        <g clip-path="url(#c)" transform="matrix(1 0 0 1 -24 -340)">
            <path d="m 210.5 151 c 0 1.382812 -1.121094 2.5 -2.5 2.5 c -1.382812 0 -2.5 -1.121094 -2.5 -2.5 s 1.117188 -2.5 2.5 -2.5 c 1.378906 0 2.5 1.117188 2.5 2.5 z m 0 0" fill="#222222" fill-opacity="0.34902"/>
        </g>
    </g>
</svg>
