<?xml version="1.0" encoding="UTF-8"?>
<svg height="16px" viewBox="0 0 16 16" width="16px" xmlns="http://www.w3.org/2000/svg">
    <path d="m 3 0 c -1.660156 0 -3 1.339844 -3 3 v 7 c 0 1.660156 1.339844 3 3 3 h 10 c 1.660156 0 3 -1.339844 3 -3 v -7 c 0 -1.660156 -1.339844 -3 -3 -3 z m 0 2 h 10 c 0.554688 0 1 0.445312 1 1 v 3 h -2.640625 c -0.199219 0 -0.378906 0.121094 -0.457031 0.300781 l -0.386719 0.894531 l -1.550781 -3.882812 c -0.078125 -0.195312 -0.269532 -0.320312 -0.480469 -0.3125 s -0.394531 0.144531 -0.457031 0.34375 l -1.527344 4.574219 l -0.527344 -1.574219 c -0.066406 -0.207031 -0.257812 -0.34375 -0.472656 -0.34375 h -3.5 v -3 c 0 -0.554688 0.445312 -1 1 -1 z m 5.542969 2.957031 l 1.492187 3.730469 c 0.074219 0.1875 0.253906 0.308594 0.457032 0.3125 c 0.203124 0.003906 0.386718 -0.117188 0.464843 -0.300781 l 0.730469 -1.699219 h 2.3125 v 3 c 0 0.554688 -0.445312 1 -1 1 h -10 c -0.554688 0 -1 -0.445312 -1 -1 v -3 h 3.140625 l 0.886719 2.65625 c 0.066406 0.207031 0.257812 0.34375 0.472656 0.34375 s 0.40625 -0.136719 0.472656 -0.34375 z m -0.542969 9.042969 c -5 0 -5 1 -5 1 c 0 1 1 1 1 1 h 8 c 1 0 1 -1 1 -1 s 0 -1 -5 -1 z m 0 0" fill="#222222"/>
</svg>
