<?xml version="1.0" encoding="UTF-8"?>
<svg height="16px" viewBox="0 0 16 16" width="16px" xmlns="http://www.w3.org/2000/svg">
    <path d="m 3.5 0 c -1.367188 0 -2.5 1.132812 -2.5 2.5 v 6 c 0 1.894531 0.949219 3.667969 2.523438 4.71875 l 3.921874 2.613281 c 0.335938 0.222657 0.773438 0.222657 1.109376 0 l 3.921874 -2.613281 c 1.574219 -1.050781 2.523438 -2.824219 2.523438 -4.71875 v -6 c 0 -1.367188 -1.132812 -2.5 -2.5 -2.5 z m 0 2 h 9 c 0.289062 0 0.5 0.210938 0.5 0.5 v 6 c 0 1.230469 -0.613281 2.375 -1.636719 3.054688 l -3.363281 2.246093 l -3.363281 -2.246093 c -1.023438 -0.679688 -1.636719 -1.824219 -1.636719 -3.054688 v -6 c 0 -0.289062 0.210938 -0.5 0.5 -0.5 z m 4.5 2 c -1.105469 0 -2 0.894531 -2 2 c 0.003906 0.710938 0.382812 1.371094 1 1.726562 v 3.273438 h 2 v -3.273438 c 0.617188 -0.355468 0.996094 -1.015624 1 -1.726562 c 0 -1.105469 -0.894531 -2 -2 -2 z m 0 0" fill="#222222"/>
</svg>
