<?xml version="1.0" encoding="UTF-8" standalone="no"?>
<!-- Created with Inkscape (http://www.inkscape.org/) -->

<svg
   id="svg86343"
   version="1.1"
   inkscape:version="1.3 (0e150ed6c4, 2023-07-21)"
   width="190.54817"
   height="48.084461"
   sodipodi:docname="wacom-stylus-airbrush.svg"
   xmlns:inkscape="http://www.inkscape.org/namespaces/inkscape"
   xmlns:sodipodi="http://sodipodi.sourceforge.net/DTD/sodipodi-0.dtd"
   xmlns="http://www.w3.org/2000/svg"
   xmlns:svg="http://www.w3.org/2000/svg"
   xmlns:rdf="http://www.w3.org/1999/02/22-rdf-syntax-ns#"
   xmlns:cc="http://creativecommons.org/ns#"
   xmlns:dc="http://purl.org/dc/elements/1.1/">
  <metadata
     id="metadata86349">
    <rdf:RDF>
      <cc:Work
         rdf:about="">
        <dc:format>image/svg+xml</dc:format>
        <dc:type
           rdf:resource="http://purl.org/dc/dcmitype/StillImage" />
        <dc:title />
      </cc:Work>
    </rdf:RDF>
  </metadata>
  <defs
     id="defs86347" />
  <sodipodi:namedview
     pagecolor="#ffffff"
     bordercolor="#666666"
     borderopacity="1"
     objecttolerance="10"
     gridtolerance="10"
     guidetolerance="10"
     inkscape:pageopacity="0"
     inkscape:pageshadow="2"
     inkscape:window-width="1080"
     inkscape:window-height="651"
     id="namedview86345"
     showgrid="true"
     inkscape:snap-nodes="false"
     inkscape:snap-bbox="true"
     inkscape:zoom="1.566601"
     inkscape:cx="202.66806"
     inkscape:cy="10.213194"
     inkscape:window-x="0"
     inkscape:window-y="0"
     inkscape:window-maximized="1"
     inkscape:current-layer="svg86343"
     borderlayer="true"
     inkscape:showpageshadow="false"
     inkscape:pagecheckerboard="0"
     inkscape:deskcolor="#d1d1d1">
    <inkscape:grid
       type="xygrid"
       id="grid86802"
       empspacing="5"
       visible="true"
       enabled="true"
       snapvisiblegridlinesonly="true"
       originx="68.241145"
       originy="-71.955672"
       spacingy="1"
       spacingx="1"
       units="px" />
  </sodipodi:namedview>
  <path
     style="color:#000000;display:inline;overflow:visible;visibility:visible;fill:#d3d7cf;fill-opacity:1;fill-rule:nonzero;stroke:none;stroke-width:1px;stroke-linecap:butt;stroke-linejoin:miter;stroke-miterlimit:4;stroke-dasharray:none;stroke-dashoffset:0;stroke-opacity:1;marker:none;enable-background:accumulate"
     d="m 190.04818,14.311086 c 0,1.43276 -1.88644,2.59423 -4.21348,2.59423 -0.06,0 -0.11387,0.002 -0.17315,0 v 0.9224 L 97.4674,27.051651 c -11.934156,1.106026 -19.866911,9.366903 -27.226258,14.992676 -9,6.879952 -24.529312,6.802561 -30.030682,-0.695599 l -8.31149,-12.4523 -15.23774,-5.073157 v -0.5765 C 10.06256,22.765871 0.5,19.464966 0.5,17.943016 c 0,-2.11004 11.12955,-4.72727 19.16261,-4.72727 0.1448,0 0.28896,-0.002 0.43293,0 0,0 9.2445,-5.3861297 20.17264,-8.1285897 2.81141,-6.28314 13.64962,-5.78289004 16.4982,-0.49916 l 3.91974,0.009 c 0.84067,-0.83292 2.00027,-1.75859 3.53531,-1.75859 1.88597,0 3.49443,0.81769 4.21347,1.98891 l 14.74708,1.15341 102.47958,4.4678397 v 1.26829 c 0.0591,-0.002 0.11321,0 0.17315,0 2.32703,0 4.21347,1.16148 4.21347,2.59423 z"
     id="stylus"
     class="stylus"
     inkscape:connector-curvature="0"
     sodipodi:nodetypes="sscccsccccssccccsccccss" />
</svg>
