<?xml version="1.0" encoding="UTF-8" standalone="no"?>
<!-- Created with Inkscape (http://www.inkscape.org/) -->

<svg
   id="svg86343"
   version="1.1"
   inkscape:version="1.3.2 (091e20ef0f, 2023-11-25)"
   width="190"
   height="32"
   sodipodi:docname="wacom-stylus-no-eraser.svg"
   viewBox="0 0 190 32"
   xmlns:inkscape="http://www.inkscape.org/namespaces/inkscape"
   xmlns:sodipodi="http://sodipodi.sourceforge.net/DTD/sodipodi-0.dtd"
   xmlns="http://www.w3.org/2000/svg"
   xmlns:svg="http://www.w3.org/2000/svg"
   xmlns:rdf="http://www.w3.org/1999/02/22-rdf-syntax-ns#"
   xmlns:cc="http://creativecommons.org/ns#"
   xmlns:dc="http://purl.org/dc/elements/1.1/">
  <metadata
     id="metadata86349">
    <rdf:RDF>
      <cc:Work
         rdf:about="">
        <dc:format>image/svg+xml</dc:format>
        <dc:type
           rdf:resource="http://purl.org/dc/dcmitype/StillImage" />
      </cc:Work>
    </rdf:RDF>
  </metadata>
  <defs
     id="defs86347" />
  <sodipodi:namedview
     pagecolor="#ffffff"
     bordercolor="#666666"
     borderopacity="1"
     objecttolerance="10"
     gridtolerance="10"
     guidetolerance="10"
     inkscape:pageopacity="0"
     inkscape:pageshadow="2"
     inkscape:window-width="1080"
     inkscape:window-height="651"
     id="namedview86345"
     showgrid="true"
     inkscape:snap-nodes="false"
     inkscape:snap-bbox="true"
     inkscape:zoom="10.931504"
     inkscape:cx="66.733729"
     inkscape:cy="31.971814"
     inkscape:window-x="0"
     inkscape:window-y="0"
     inkscape:window-maximized="1"
     inkscape:current-layer="g10545"
     borderlayer="true"
     inkscape:showpageshadow="false"
     inkscape:pagecheckerboard="0"
     fit-margin-top="0"
     fit-margin-left="0"
     fit-margin-right="0"
     fit-margin-bottom="0"
     inkscape:deskcolor="#d1d1d1">
    <inkscape:grid
       type="xygrid"
       id="grid86802"
       empspacing="5"
       visible="true"
       enabled="true"
       snapvisiblegridlinesonly="true"
       originx="-2.9802322e-08"
       originy="-1"
       spacingy="1"
       spacingx="1"
       units="px" />
  </sodipodi:namedview>
  <g
     style="display:inline;stroke:none"
     transform="rotate(90,-55.655502,534.766)"
     id="g10545">
    <path
       id="stylus"
       style="color:#000000;display:inline;overflow:visible;visibility:visible;fill:#d3d7cf;fill-opacity:1;fill-rule:nonzero;stroke:none;stroke-width:1px;stroke-linecap:butt;stroke-linejoin:miter;stroke-miterlimit:4;stroke-dasharray:none;stroke-dashoffset:0;stroke-opacity:1;marker:none;enable-background:accumulate"
       class="stylus"
       d="M -589.4215 449.28042 C -589.6088 451.43554 -587.79561 453.20077 -585.6715 453.40542 L -581.0465 464.31167 L -579.51525 464.31167 L -579.51525 466.46792 L -575.90002 475.09683 L -574.9801 475.10659 L -574.9801 478.1105 C -574.9801 479.1105 -573.4215 479.1105 -573.4215 478.1105 L -573.4215 475.1105 L -572.77697 475.1105 L -569.01525 466.49917 L -569.01525 464.31167 L -567.484 464.31167 L -562.82775 453.34292 C -560.86081 452.99104 -559.28138 451.32076 -559.4215 449.28042 L -561.89025 420.15542 L -561.89025 295.84487 C -561.89025 293.85047 -563.4896 292.25112 -565.484 292.25112 L -566.89025 292.25112 L -581.89025 292.25112 L -583.2965 292.25112 C -585.2909 292.25112 -586.89025 293.85047 -586.89025 295.84487 L -586.89025 420.15542 L -589.4215 449.28042 z M -578.4215 414.8605 L -578.4215 411.6105 C -578.4215 409.1175 -576.4145 407.1105 -573.9215 407.1105 C -571.4285 407.1105 -569.4215 409.1175 -569.4215 411.6105 L -569.4215 414.8605 C -569.4215 417.3535 -571.4285 419.3605 -573.9215 419.3605 C -576.4145 419.3605 -578.4215 417.3535 -578.4215 414.8605 z M -578.4215 399.6105 L -578.4215 386.6105 C -578.4215 384.1175 -576.4145 382.1105 -573.9215 382.1105 C -571.4285 382.1105 -569.4215 384.1175 -569.4215 386.6105 L -569.4215 399.6105 C -569.4215 402.1035 -571.4285 404.1105 -573.9215 404.1105 C -576.4145 404.1105 -578.4215 402.1035 -578.4215 399.6105 z " />
  </g>
</svg>
