<?xml version="1.0" encoding="UTF-8" standalone="no"?>
<!-- Created with Inkscape (http://www.inkscape.org/) -->

<svg
   xmlns:dc="http://purl.org/dc/elements/1.1/"
   xmlns:cc="http://creativecommons.org/ns#"
   xmlns:rdf="http://www.w3.org/1999/02/22-rdf-syntax-ns#"
   xmlns:svg="http://www.w3.org/2000/svg"
   xmlns="http://www.w3.org/2000/svg"
   xmlns:sodipodi="http://sodipodi.sourceforge.net/DTD/sodipodi-0.dtd"
   xmlns:inkscape="http://www.inkscape.org/namespaces/inkscape"
   id="svg86343"
   version="1.1"
   inkscape:version="0.48.2 r9819"
   width="148"
   height="192"
   sodipodi:docname="wacom-stylus-art-pen.svg">
  <metadata
     id="metadata86349">
    <rdf:RDF>
      <cc:Work
         rdf:about="">
        <dc:format>image/svg+xml</dc:format>
        <dc:type
           rdf:resource="http://purl.org/dc/dcmitype/StillImage" />
        <dc:title />
      </cc:Work>
    </rdf:RDF>
  </metadata>
  <defs
     id="defs86347">
    <inkscape:path-effect
       effect="spiro"
       id="path-effect31574"
       is_visible="true" />
  </defs>
  <sodipodi:namedview
     pagecolor="#ffffff"
     bordercolor="#666666"
     borderopacity="1"
     objecttolerance="10"
     gridtolerance="10"
     guidetolerance="10"
     inkscape:pageopacity="0"
     inkscape:pageshadow="2"
     inkscape:window-width="1037"
     inkscape:window-height="741"
     id="namedview86345"
     showgrid="false"
     inkscape:snap-nodes="false"
     inkscape:snap-bbox="true"
     inkscape:zoom="4"
     inkscape:cx="84.005601"
     inkscape:cy="140.80529"
     inkscape:window-x="241"
     inkscape:window-y="26"
     inkscape:window-maximized="0"
     inkscape:current-layer="svg86343"
     borderlayer="true"
     inkscape:showpageshadow="false">
    <inkscape:grid
       type="xygrid"
       id="grid86802"
       empspacing="5"
       visible="true"
       enabled="true"
       snapvisiblegridlinesonly="true" />
  </sodipodi:namedview>
  <g
     style="display:inline"
     transform="translate(592.43375,-287.62088)"
     id="g10545">
    <path
       sodipodi:nodetypes="sscsscsccccccccccccccscsscsss"
       inkscape:connector-curvature="0"
       id="rect10526"
       transform="translate(-928.4063,-95.84375)"
       d="m 351.16741,385.06603 c -2.25232,0 -3.61834,1.53072 -4.16741,4.08946 L 345.53125,396 344.125,396 c -1.9944,0 -3.59375,1.59935 -3.59375,3.59375 L 340.53125,516 338,545.125 c -0.1873,2.15512 1.62589,3.92035 3.75,4.125 l 1.625,6.6639 2.20868,0 -1.40241,1.58029 c 0,0 3.53964,7.3799 5.83774,7.46829 l 1.42852,-6.9e-4 0.0512,7.31672 3.97602,-2.37893 -0.0292,-4.98639 1.38503,0.0197 c 2.82843,0 5.42789,-7.64858 5.42789,-7.64858 l -1.5299,-1.37038 2.20868,0 1.65625,-6.72641 c 1.96694,-0.35188 3.54637,-2.02216 3.40625,-4.0625 L 365.53125,516 l 0,-116.40625 c 0,-1.9944 -1.59935,-3.59375 -3.59375,-3.59375 l -1.40625,0 L 359,389.15549 c -0.53643,-2.39779 -1.88996,-4.08946 -4.16741,-4.08946 z"
       style="color:#000000;fill:#d3d7cf;fill-opacity:1;fill-rule:nonzero;stroke:#babdb6;stroke-width:1px;stroke-linecap:butt;stroke-linejoin:miter;stroke-miterlimit:4;stroke-opacity:1;stroke-dasharray:none;stroke-dashoffset:0;marker:none;visibility:visible;display:inline;overflow:visible;enable-background:accumulate" />
    <rect
       style="color:#000000;fill:#eeeeec;fill-opacity:1;fill-rule:nonzero;stroke:#babdb6;stroke-width:0.99999994px;stroke-linecap:butt;stroke-linejoin:miter;stroke-miterlimit:4;stroke-opacity:1;stroke-dasharray:none;stroke-dashoffset:0;marker:none;visibility:visible;display:inline;overflow:visible;enable-background:accumulate"
       id="rect10541"
       width="9.0059462"
       height="35.214661"
       x="-579.93378"
       y="385.90622"
       rx="3.25"
       ry="3.2499998" />
  </g>
  <g
     style="opacity:0.2;display:inline"
     id="g10631"
     transform="translate(592.43375,-302.48416)">
    <path
       style="fill:none;stroke:#000000;stroke-width:1px;stroke-linecap:butt;stroke-linejoin:miter;stroke-opacity:1"
       d="m 357.25,492.91161 35.28033,0 0,-52.04275 82.46967,0"
       id="path10552"
       inkscape:connector-curvature="0"
       transform="translate(-928.4063,-79.84375)"
       sodipodi:nodetypes="cccc" />
    <path
       sodipodi:nodetypes="cccc"
       inkscape:connector-curvature="0"
       id="path10556"
       d="m -568.1563,309.03125 32.25,0 0,14.94921 82.5,0"
       style="fill:none;stroke:#000000;stroke-width:1px;stroke-linecap:butt;stroke-linejoin:miter;stroke-opacity:1" />
    <path
       style="fill:none;stroke:#000000;stroke-width:1px;stroke-linecap:butt;stroke-linejoin:miter;stroke-opacity:1"
       d="m -577.26246,492.06786 41.38649,0 0,-48.24593 82.46967,0"
       id="path10629"
       inkscape:connector-curvature="0"
       sodipodi:nodetypes="cccc" />
    <path
       sodipodi:nodetypes="cccc"
       inkscape:connector-curvature="0"
       id="path86913"
       d="m -571.1563,430.06786 48.10785,0 0,-27.00932 69.64215,0"
       style="fill:none;stroke:#000000;stroke-width:1px;stroke-linecap:butt;stroke-linejoin:miter;stroke-opacity:1" />
  </g>
  <path
     style="opacity:0.5;color:#000000;fill:#eeeeec;fill-opacity:1;fill-rule:nonzero;stroke:#babdb6;stroke-width:1px;stroke-linecap:butt;stroke-linejoin:miter;stroke-miterlimit:4;stroke-opacity:1;stroke-dasharray:none;stroke-dashoffset:0;marker:none;visibility:visible;display:inline;overflow:visible;enable-background:accumulate"
     d="m 12.427494,118.46089 8.909363,0"
     id="path31572"
     inkscape:path-effect="#path-effect31574"
     inkscape:original-d="m 12.427494,118.46089 8.909363,0"
     inkscape:connector-curvature="0" />
</svg>
