<?xml version="1.0" encoding="UTF-8" standalone="no"?>
<!-- Created with Inkscape (http://www.inkscape.org/) -->

<svg
   id="svg86343"
   version="1.1"
   inkscape:version="1.3 (0e150ed6c4, 2023-07-21)"
   width="187.83311"
   height="23.792789"
   sodipodi:docname="wacom-stylus-classic.svg"
   xmlns:inkscape="http://www.inkscape.org/namespaces/inkscape"
   xmlns:sodipodi="http://sodipodi.sourceforge.net/DTD/sodipodi-0.dtd"
   xmlns="http://www.w3.org/2000/svg"
   xmlns:svg="http://www.w3.org/2000/svg"
   xmlns:rdf="http://www.w3.org/1999/02/22-rdf-syntax-ns#"
   xmlns:cc="http://creativecommons.org/ns#"
   xmlns:dc="http://purl.org/dc/elements/1.1/">
  <metadata
     id="metadata86349">
    <rdf:RDF>
      <cc:Work
         rdf:about="">
        <dc:format>image/svg+xml</dc:format>
        <dc:type
           rdf:resource="http://purl.org/dc/dcmitype/StillImage" />
        <dc:title />
      </cc:Work>
    </rdf:RDF>
  </metadata>
  <defs
     id="defs86347">
    <inkscape:path-effect
       effect="spiro"
       id="path-effect14408"
       is_visible="true"
       lpeversion="0" />
  </defs>
  <sodipodi:namedview
     pagecolor="#ffffff"
     bordercolor="#666666"
     borderopacity="1"
     objecttolerance="10"
     gridtolerance="10"
     guidetolerance="10"
     inkscape:pageopacity="0"
     inkscape:pageshadow="2"
     inkscape:window-width="1080"
     inkscape:window-height="651"
     id="namedview86345"
     showgrid="false"
     inkscape:snap-nodes="false"
     inkscape:snap-bbox="true"
     inkscape:zoom="1.3696365"
     inkscape:cx="152.96029"
     inkscape:cy="14.602414"
     inkscape:window-x="0"
     inkscape:window-y="0"
     inkscape:window-maximized="1"
     inkscape:current-layer="svg86343"
     borderlayer="true"
     inkscape:showpageshadow="false"
     inkscape:pagecheckerboard="0"
     inkscape:deskcolor="#d1d1d1">
    <inkscape:grid
       type="xygrid"
       id="grid86802"
       empspacing="5"
       visible="false"
       enabled="true"
       snapvisiblegridlinesonly="true"
       originx="76.060233"
       originy="-84.128949"
       spacingy="1"
       spacingx="1"
       units="px" />
  </sodipodi:namedview>
  <g
     style="display:inline;opacity:0.2"
     id="g10631"
     transform="translate(668.49398,-386.61311)" />
  <path
     style="color:#000000;display:inline;overflow:visible;visibility:visible;fill:#d3d7cf;fill-opacity:1;fill-rule:nonzero;stroke:none;stroke-width:1px;stroke-linecap:butt;stroke-linejoin:miter;stroke-miterlimit:4;stroke-dasharray:none;stroke-dashoffset:0;stroke-opacity:1;marker:none;enable-background:accumulate"
     d="M 46.887667,3.360306 C 36.117047,3.865161 22.240407,1.93488 22.240407,1.93488 l -1.05225,1.559872 c 0,0 -5.49117,1.362729 -8.2077,1.850845 -2.71653,0.488109 -7.5711996,3.679579 -7.5711996,3.679579 l -1e-5,1.545431 -3.89851,-8e-6 c -1.30925997,-0.03586 -1.38545997,1.983788 -9e-5,1.983788 l 3.89851,8e-6 v 1.451666 c 0,0 4.8546896,3.19148 7.5712196,3.6796 2.71652,0.48811 8.20768,1.85083 8.20768,1.85083 l 1.05226,1.55987 c 0,0 11.863,-1.78649 21.63127,-1.54542 1.0038,0.0248 2.07462,2.59748 3.20226,2.65033 5.78108,0.27099 18.64287,0.70763 26.63126,1.0898 1.13744,0.0544 2.29772,-1.42261 3.48097,-1.37103 7.90158,0.34438 10.82762,0.61119 20.817562,0.61119 18.010761,0 60.275061,-2.76938 77.215201,-4.16159 0.58366,-0.048 0.70379,-1.39578 1.12075,-1.43172 2.25841,-0.19467 7.22786,-1.00842 7.52125,-1.084447 1.88483,-0.488463 3.53687,-2.23225 3.47014,-4.278453 0.002,-0.03684 -0.001,-0.07529 0,-0.11193 0.0688,-2.047734 -1.58423,-3.789705 -3.47014,-4.278452 -0.28392,-0.07358 -5.1712,-0.882492 -7.30532,-1.068191 C 176.0687,6.074088 175.88151,4.715969 175.18201,4.658534 158.21463,3.265341 116.00137,0.499981 98.003683,0.5 76.011317,0.500023 57.658267,2.855443 46.887667,3.360306 Z"
     id="stylus"
     class="button"
     inkscape:connector-curvature="0"
     sodipodi:nodetypes="sccsccccccsccssssssssccssscs" />
</svg>
