<?xml version="1.0" encoding="UTF-8" standalone="no"?>
<!-- Created with Inkscape (http://www.inkscape.org/) -->

<svg
   xmlns:dc="http://purl.org/dc/elements/1.1/"
   xmlns:cc="http://creativecommons.org/ns#"
   xmlns:rdf="http://www.w3.org/1999/02/22-rdf-syntax-ns#"
   xmlns:svg="http://www.w3.org/2000/svg"
   xmlns="http://www.w3.org/2000/svg"
   xmlns:sodipodi="http://sodipodi.sourceforge.net/DTD/sodipodi-0.dtd"
   xmlns:inkscape="http://www.inkscape.org/namespaces/inkscape"
   id="svg86343"
   version="1.1"
   inkscape:version="0.48.2 r9819"
   width="148"
   height="192"
   sodipodi:docname="wacom-stylus-classic.svg">
  <metadata
     id="metadata86349">
    <rdf:RDF>
      <cc:Work
         rdf:about="">
        <dc:format>image/svg+xml</dc:format>
        <dc:type
           rdf:resource="http://purl.org/dc/dcmitype/StillImage" />
        <dc:title />
      </cc:Work>
    </rdf:RDF>
  </metadata>
  <defs
     id="defs86347">
    <inkscape:path-effect
       effect="spiro"
       id="path-effect14408"
       is_visible="true" />
  </defs>
  <sodipodi:namedview
     pagecolor="#ffffff"
     bordercolor="#666666"
     borderopacity="1"
     objecttolerance="10"
     gridtolerance="10"
     guidetolerance="10"
     inkscape:pageopacity="0"
     inkscape:pageshadow="2"
     inkscape:window-width="1037"
     inkscape:window-height="741"
     id="namedview86345"
     showgrid="false"
     inkscape:snap-nodes="false"
     inkscape:snap-bbox="true"
     inkscape:zoom="6"
     inkscape:cx="72.723556"
     inkscape:cy="29.510722"
     inkscape:window-x="241"
     inkscape:window-y="26"
     inkscape:window-maximized="0"
     inkscape:current-layer="svg86343"
     borderlayer="true"
     inkscape:showpageshadow="false">
    <inkscape:grid
       type="xygrid"
       id="grid86802"
       empspacing="5"
       visible="true"
       enabled="true"
       snapvisiblegridlinesonly="true" />
  </sodipodi:namedview>
  <g
     style="opacity:0.2;display:inline"
     id="g10631"
     transform="translate(592.43375,-302.48416)" />
  <path
     style="color:#000000;fill:#d3d7cf;fill-opacity:1;fill-rule:nonzero;stroke:#babdb6;stroke-width:0.99999994px;stroke-linecap:butt;stroke-linejoin:miter;stroke-miterlimit:4;stroke-opacity:1;stroke-dasharray:none;stroke-dashoffset:0;marker:none;visibility:visible;display:inline;overflow:visible;enable-background:accumulate"
     d="m 9.320334,143.05408 c 0.5048552,10.77062 -1.425426,24.64726 -1.425426,24.64726 l 1.559872,1.05225 c 0,0 1.362729,5.49117 1.850845,8.2077 0.488109,2.71653 3.679579,7.5712 3.679579,7.5712 l 1.545431,1e-5 -8e-6,3.89851 c -0.03586,1.30926 1.983788,1.38546 1.983788,9e-5 l 8e-6,-3.89851 1.451666,0 c 0,0 3.191479,-4.85469 3.679602,-7.57122 0.488109,-2.71652 1.850829,-8.20768 1.850829,-8.20768 l 1.559865,-1.05226 c 0,0 -1.786488,-11.863 -1.545414,-21.63127 0.02477,-1.0038 2.597475,-2.07462 2.650333,-3.20226 0.270987,-5.78108 0.707625,-18.64287 1.089793,-26.63126 0.05442,-1.13744 -1.422603,-2.29772 -1.371031,-3.48097 0.344388,-7.90158 0.611194,-10.82762 0.611194,-20.817562 0,-18.010758 -2.769382,-60.275057 -4.161591,-77.215202 -0.04797,-0.583659 -1.395782,-0.703789 -1.431722,-1.120751 -0.194665,-2.258415 -1.008414,-7.2278662 -1.084445,-7.5212464 -0.488463,-1.884831 -2.23225,-3.5368788 -4.278453,-3.4701457 -0.03684,-0.00219 -0.07529,0.00133 -0.11193,0 -2.047734,-0.068768 -3.789705,1.5842322 -4.278452,3.470141 -0.07358,0.2839198 -0.882492,5.1712001 -1.068191,7.3053231 -0.04236,0.486815 -1.400479,0.674009 -1.457914,1.373508 -1.3931925,16.967387 -4.1585528,59.180639 -4.158534,77.178329 2.3e-5,21.992366 2.3554437,40.345416 2.860306,51.116016 z"
     id="path14406"
     inkscape:connector-curvature="0"
     sodipodi:nodetypes="sccsccccccsccssssssssccssscs" />
  <path
     style="opacity:0.2;fill:none;stroke:#000000;stroke-width:1px;stroke-linecap:butt;stroke-linejoin:miter;stroke-opacity:1;display:inline"
     d="m 28.911333,120.55337 27.646447,0 0,-61.96967 82.46967,0"
     id="path10552"
     inkscape:connector-curvature="0"
     sodipodi:nodetypes="cccc" />
  <path
     sodipodi:nodetypes="cccc"
     inkscape:connector-curvature="0"
     id="path10556"
     d="m 24.27745,6.54709 32.25,0 0,15 82.5,0"
     style="opacity:0.2;fill:none;stroke:#000000;stroke-width:1px;stroke-linecap:butt;stroke-linejoin:miter;stroke-opacity:1;display:inline" />
  <path
     style="opacity:0.2;fill:none;stroke:#000000;stroke-width:1px;stroke-linecap:butt;stroke-linejoin:miter;stroke-opacity:1;display:inline"
     d="m 17.02745,189.5837 64.53033,0 0,-48 57.46967,0"
     id="path10629"
     inkscape:connector-curvature="0"
     sodipodi:nodetypes="cccc" />
  <path
     sodipodi:nodetypes="cccc"
     inkscape:connector-curvature="0"
     id="path86913"
     d="m 28.02745,138.52564 41.53033,0 0,-37.94194 69.46967,0"
     style="opacity:0.2;fill:none;stroke:#000000;stroke-width:1px;stroke-linecap:butt;stroke-linejoin:miter;stroke-opacity:1;display:inline" />
</svg>
