<?xml version="1.0" encoding="UTF-8" standalone="no"?>
<!-- Created with Inkscape (http://www.inkscape.org/) -->

<svg
   id="svg86343"
   version="1.1"
   inkscape:version="1.3 (0e150ed6c4, 2023-07-21)"
   width="189.31738"
   height="23.031231"
   sodipodi:docname="wacom-stylus-inking.svg"
   xmlns:inkscape="http://www.inkscape.org/namespaces/inkscape"
   xmlns:sodipodi="http://sodipodi.sourceforge.net/DTD/sodipodi-0.dtd"
   xmlns="http://www.w3.org/2000/svg"
   xmlns:svg="http://www.w3.org/2000/svg"
   xmlns:rdf="http://www.w3.org/1999/02/22-rdf-syntax-ns#"
   xmlns:cc="http://creativecommons.org/ns#"
   xmlns:dc="http://purl.org/dc/elements/1.1/">
  <metadata
     id="metadata86349">
    <rdf:RDF>
      <cc:Work
         rdf:about="">
        <dc:format>image/svg+xml</dc:format>
        <dc:type
           rdf:resource="http://purl.org/dc/dcmitype/StillImage" />
        <dc:title />
      </cc:Work>
    </rdf:RDF>
  </metadata>
  <defs
     id="defs86347">
    <inkscape:path-effect
       effect="spiro"
       id="path-effect14408"
       is_visible="true"
       lpeversion="0" />
  </defs>
  <sodipodi:namedview
     pagecolor="#ffffff"
     bordercolor="#666666"
     borderopacity="1"
     objecttolerance="10"
     gridtolerance="10"
     guidetolerance="10"
     inkscape:pageopacity="0"
     inkscape:pageshadow="2"
     inkscape:window-width="1080"
     inkscape:window-height="651"
     id="namedview86345"
     showgrid="false"
     inkscape:snap-nodes="false"
     inkscape:snap-bbox="true"
     inkscape:zoom="1.2481956"
     inkscape:cx="90.93126"
     inkscape:cy="28.841633"
     inkscape:window-x="0"
     inkscape:window-y="0"
     inkscape:window-maximized="1"
     inkscape:current-layer="svg86343"
     borderlayer="true"
     inkscape:showpageshadow="false"
     inkscape:pagecheckerboard="0"
     inkscape:deskcolor="#d1d1d1">
    <inkscape:grid
       type="xygrid"
       id="grid86802"
       empspacing="5"
       visible="false"
       enabled="true"
       snapvisiblegridlinesonly="true"
       originx="77.183018"
       originy="-83.767469"
       spacingy="1"
       spacingx="1"
       units="px" />
  </sodipodi:namedview>
  <path
     style="color:#000000;display:inline;overflow:visible;visibility:visible;fill:#d3d7cf;fill-opacity:1;fill-rule:nonzero;stroke:none;stroke-width:1px;stroke-linecap:butt;stroke-linejoin:miter;stroke-miterlimit:4;stroke-dasharray:none;stroke-dashoffset:0;stroke-opacity:1;marker:none;enable-background:accumulate"
     d="M 47.073937,3.360306 C 36.294607,3.86557 22.240407,1.93488 22.240407,1.93488 l -1.05225,1.559872 C 15.514662,4.5198836 10.314695,5.9535295 5.4092574,9.025176 l -1e-5,1.545431 -3.89851,-8e-6 c -1.30925997,-0.03586 -1.38545997,1.983788 -9e-5,1.983788 l 3.89851,8e-6 v 1.451666 c 4.6512596,3.49214 10.2982016,4.192165 15.7788996,5.53043 l 1.05226,1.55987 c 0,0 14.0542,-1.93069 24.83354,-1.42541 10.77934,0.50526 28.937381,2.86028 50.929782,2.86028 21.992401,-10e-6 83.129171,-4.12918 85.865071,-4.8382 2.68626,-0.69619 5.04077,-3.181414 4.94566,-6.097669 0.003,-0.0525 -0.002,-0.107307 0,-0.159523 0.098,-2.918438 -2.25786,-5.401094 -4.94566,-6.097665 C 181.13281,4.629146 119.99605,0.499977 98.003683,0.5 76.011318,0.500023 57.853267,2.855035 47.073937,3.360306 Z"
     id="stylus"
     class="stylus"
     inkscape:connector-curvature="0"
     sodipodi:nodetypes="sccccccccccsssccscs" />
</svg>
