<?xml version="1.0" encoding="UTF-8" standalone="no"?>
<!-- Created with Inkscape (http://www.inkscape.org/) -->

<svg
   xmlns:dc="http://purl.org/dc/elements/1.1/"
   xmlns:cc="http://creativecommons.org/ns#"
   xmlns:rdf="http://www.w3.org/1999/02/22-rdf-syntax-ns#"
   xmlns:svg="http://www.w3.org/2000/svg"
   xmlns="http://www.w3.org/2000/svg"
   xmlns:sodipodi="http://sodipodi.sourceforge.net/DTD/sodipodi-0.dtd"
   xmlns:inkscape="http://www.inkscape.org/namespaces/inkscape"
   id="svg86343"
   version="1.1"
   inkscape:version="0.48.1 r9760"
   width="148"
   height="192"
   sodipodi:docname="wacom-stylus.svg">
  <metadata
     id="metadata86349">
    <rdf:RDF>
      <cc:Work
         rdf:about="">
        <dc:format>image/svg+xml</dc:format>
        <dc:type
           rdf:resource="http://purl.org/dc/dcmitype/StillImage" />
        <dc:title />
      </cc:Work>
    </rdf:RDF>
  </metadata>
  <defs
     id="defs86347" />
  <sodipodi:namedview
     pagecolor="#ffffff"
     bordercolor="#666666"
     borderopacity="1"
     objecttolerance="10"
     gridtolerance="10"
     guidetolerance="10"
     inkscape:pageopacity="0"
     inkscape:pageshadow="2"
     inkscape:window-width="1037"
     inkscape:window-height="858"
     id="namedview86345"
     showgrid="false"
     inkscape:snap-nodes="false"
     inkscape:snap-bbox="true"
     inkscape:zoom="1"
     inkscape:cx="12.294"
     inkscape:cy="37.051122"
     inkscape:window-x="2037"
     inkscape:window-y="328"
     inkscape:window-maximized="0"
     inkscape:current-layer="svg86343"
     borderlayer="true"
     inkscape:showpageshadow="false">
    <inkscape:grid
       type="xygrid"
       id="grid86802"
       empspacing="5"
       visible="true"
       enabled="true"
       snapvisiblegridlinesonly="true" />
  </sodipodi:namedview>
  <g
     style="opacity:0.2;display:inline"
     id="g10631"
     transform="translate(592.43375,-302.48416)">
    <path
       style="fill:none;stroke:#000000;stroke-width:1px;stroke-linecap:butt;stroke-linejoin:miter;stroke-opacity:1"
       d="m 352,493 40,0 0,-38 83,0"
       id="path10552"
       inkscape:connector-curvature="0"
       transform="translate(-928.4063,-79.84375)"
       sodipodi:nodetypes="cccc" />
    <path
       sodipodi:nodetypes="cccc"
       inkscape:connector-curvature="0"
       id="path10556"
       d="m -577.4063,309.15625 41,0 0,19 83,0"
       style="fill:none;stroke:#000000;stroke-width:1px;stroke-linecap:butt;stroke-linejoin:miter;stroke-opacity:1" />
    <path
       style="fill:none;stroke:#000000;stroke-width:1px;stroke-linecap:butt;stroke-linejoin:miter;stroke-opacity:1"
       d="m -573.4063,489.15625 37,0 0,-15 83,0"
       id="path10629"
       inkscape:connector-curvature="0"
       sodipodi:nodetypes="cccc" />
    <path
       sodipodi:nodetypes="cccc"
       inkscape:connector-curvature="0"
       id="path86913"
       d="m -573.4063,430.15625 37,0 0,-5 83,0"
       style="fill:none;stroke:#000000;stroke-width:1px;stroke-linecap:butt;stroke-linejoin:miter;stroke-opacity:1" />
  </g>
  <path
     style="color:#000000;fill:#d3d7cf;fill-opacity:1;fill-rule:nonzero;stroke:#babdb6;stroke-width:1px;stroke-linecap:butt;stroke-linejoin:miter;stroke-miterlimit:4;stroke-opacity:1;stroke-dasharray:none;stroke-dashoffset:0;marker:none;visibility:visible;display:inline;overflow:visible;enable-background:accumulate"
     d="m 36.76199,1.22591 c -1.43276,0 -2.59423,1.88644 -2.59423,4.21347 0,0.06 -0.002,0.11387 0,0.17315 l -0.9224,0 -9.22393,88.19416 c 0.9224,9.23499 -19.83144,30.93722 -19.83144,30.93722 -2.30598,6.46449 -0.4612,21.70223 5.53436,26.31972 l 12.4523,8.31149 5.07316,15.23774 0.5765,0 c 0.4809,6.59867 3.7818,16.16123 5.30375,16.16123 2.11004,0 4.72727,-11.12955 4.72727,-19.16261 0,-0.1448 0.002,-0.28896 0,-0.43293 0,0 5.38613,-9.2445 8.12859,-20.17264 2.69044,-0.51411 4.78491,-4.21891 4.78491,-8.71552 0,-3.8497 -1.53235,-7.09847 -3.66075,-8.28268 l -0.25942,-3.23224 c 0.83292,-0.84067 1.38359,-2.18777 1.38359,-3.72281 0,-1.88597 -0.81769,-3.49443 -1.98891,-4.21347 L 45.09235,108.09211 40.62451,5.61253 l -1.26829,0 c 0.002,-0.0591 0,-0.11322 0,-0.17315 0,-2.32703 -1.16148,-4.21347 -2.59423,-4.21347 z"
     id="path5306"
     inkscape:connector-curvature="0" />
</svg>
