<?xml version="1.0" encoding="UTF-8" standalone="no"?>
<!-- Created with Inkscape (http://www.inkscape.org/) -->

<svg
   xmlns:dc="http://purl.org/dc/elements/1.1/"
   xmlns:cc="http://creativecommons.org/ns#"
   xmlns:rdf="http://www.w3.org/1999/02/22-rdf-syntax-ns#"
   xmlns:svg="http://www.w3.org/2000/svg"
   xmlns="http://www.w3.org/2000/svg"
   xmlns:sodipodi="http://sodipodi.sourceforge.net/DTD/sodipodi-0.dtd"
   xmlns:inkscape="http://www.inkscape.org/namespaces/inkscape"
   id="svg86343"
   version="1.1"
   inkscape:version="0.48.1 r9760"
   width="148"
   height="192"
   sodipodi:docname="wacom-stylus-inking.svg">
  <metadata
     id="metadata86349">
    <rdf:RDF>
      <cc:Work
         rdf:about="">
        <dc:format>image/svg+xml</dc:format>
        <dc:type
           rdf:resource="http://purl.org/dc/dcmitype/StillImage" />
        <dc:title></dc:title>
      </cc:Work>
    </rdf:RDF>
  </metadata>
  <defs
     id="defs86347">
    <inkscape:path-effect
       effect="spiro"
       id="path-effect14408"
       is_visible="true" />
  </defs>
  <sodipodi:namedview
     pagecolor="#ffffff"
     bordercolor="#666666"
     borderopacity="1"
     objecttolerance="10"
     gridtolerance="10"
     guidetolerance="10"
     inkscape:pageopacity="0"
     inkscape:pageshadow="2"
     inkscape:window-width="1037"
     inkscape:window-height="858"
     id="namedview86345"
     showgrid="false"
     inkscape:snap-nodes="false"
     inkscape:snap-bbox="true"
     inkscape:zoom="1"
     inkscape:cx="44.721178"
     inkscape:cy="166.09232"
     inkscape:window-x="2037"
     inkscape:window-y="328"
     inkscape:window-maximized="0"
     inkscape:current-layer="g10631"
     borderlayer="true"
     inkscape:showpageshadow="false">
    <inkscape:grid
       type="xygrid"
       id="grid86802"
       empspacing="5"
       visible="true"
       enabled="true"
       snapvisiblegridlinesonly="true" />
  </sodipodi:namedview>
  <g
     style="opacity:0.2;display:inline"
     id="g10631"
     transform="translate(592.43375,-302.48416)">
    <path
       style="fill:none;stroke:#000000;stroke-width:1px;stroke-linecap:butt;stroke-linejoin:miter;stroke-opacity:1"
       d="m 353.5,569.875 38.0625,0 0,-115 83.4375,0"
       id="path10552"
       inkscape:connector-curvature="0"
       transform="translate(-928.4063,-79.84375)"
       sodipodi:nodetypes="cccc" />
    <path
       sodipodi:nodetypes="cccc"
       inkscape:connector-curvature="0"
       id="path10556"
       d="m -569.0978,309.06786 32.24956,0 0,19 83.44194,0"
       style="fill:none;stroke:#000000;stroke-width:1px;stroke-linecap:butt;stroke-linejoin:miter;stroke-opacity:1" />
  </g>
  <path
     style="color:#000000;fill:#d3d7cf;fill-opacity:1;fill-rule:nonzero;stroke:#babdb6;stroke-width:0.99999994px;stroke-linecap:butt;stroke-linejoin:miter;stroke-miterlimit:4;stroke-opacity:1;stroke-dasharray:none;stroke-dashoffset:0;marker:none;visibility:visible;display:inline;overflow:visible;enable-background:accumulate"
     d="m 8.320334,142.8678 c 0.567219,12.10109 -0.425426,24.83354 -0.425426,24.83354 l 1.559872,1.05225 c 0,0 0.283618,5.05089 0.850845,8.20769 0.567219,3.15681 4.679579,7.57121 4.679579,7.57121 l 1.545431,1e-5 -8e-6,3.89851 c -0.03586,1.30926 1.983788,1.38546 1.983788,9e-5 l 8e-6,-3.89851 1.451666,0 c 0,0 4.112367,-4.41441 4.679602,-7.57121 0.567219,-3.1568 0.850829,-8.20769 0.850829,-8.20769 l 1.559865,-1.05226 c 0,0 -0.992646,-12.73244 -0.425411,-24.83353 C 27.198196,130.7668 28.49126,113.93051 28.49126,91.938108 28.491252,69.945706 24.362076,8.8089377 23.653056,6.0730443 22.956873,3.3867824 20.471645,1.0322717 17.55539,1.12738 c -0.0525,-0.00312 -0.107307,0.0019 -0.159523,0 C 14.477429,1.029372 11.994773,3.3852354 11.298202,6.0730375 10.589174,8.8089377 6.460005,69.945698 6.460028,91.938064 6.460051,113.93043 7.753107,130.76672 8.320334,142.8678 z"
     id="path14406"
     inkscape:connector-curvature="0"
     sodipodi:nodetypes="sccsccccccsccsssccscs" />
</svg>
