<?xml version="1.0" encoding="UTF-8"?>
<svg height="16px" viewBox="0 0 16 16" width="16px" xmlns="http://www.w3.org/2000/svg">
    <g fill="#2e3434">
        <path d="m 8.085938 0.015625 c -2.203126 0 -4 1.796875 -4 4 s 1.796874 4 4 4 c 2.203124 0 4 -1.796875 4 -4 s -1.796876 -4 -4 -4 z m 0 1.972656 c 1.121093 -0.003906 2.03125 0.90625 2.027343 2.027344 c 0.003907 1.121094 -0.90625 2.03125 -2.027343 2.027344 c -1.121094 0.003906 -2.027344 -0.90625 -2.027344 -2.027344 s 0.90625 -2.03125 2.027344 -2.027344 z m 0 0"/>
        <path d="m 4.070312 7.015625 c -2.21875 0 -4.0312495 1.8125 -4.0312495 4.03125 s 1.8124995 4.03125 4.0312495 4.03125 c 2.222657 0 4.03125 -1.8125 4.03125 -4.03125 s -1.808593 -4.03125 -4.03125 -4.03125 z m 0 1.988281 c 1.132813 -0.003906 2.046876 0.914063 2.042969 2.042969 c 0.003907 1.128906 -0.910156 2.046875 -2.042969 2.042969 c -1.128906 0.003906 -2.042968 -0.914063 -2.042968 -2.042969 s 0.914062 -2.046875 2.042968 -2.042969 z m 0 0"/>
        <path d="m 15.992188 11 c 0 2.207031 -1.789063 4 -4 4 c -2.207032 0 -4 -1.789062 -4 -4 s 1.792968 -4 4 -4 c 2.210937 0 4 1.792969 4 4 z m 0 0"/>
        <path d="m 6.898438 11 c 0 1.554688 -1.257813 2.8125 -2.8125 2.8125 c -1.550782 0 -2.8125 -1.257812 -2.8125 -2.8125 s 1.261718 -2.8125 2.8125 -2.8125 c 1.554687 0 2.8125 1.257812 2.8125 2.8125 z m 0 0" fill-opacity="0.5"/>
    </g>
</svg>
