<?xml version="1.0" encoding="UTF-8"?>
<svg height="16px" viewBox="0 0 16 16" width="16px" xmlns="http://www.w3.org/2000/svg">
    <g fill="#222222">
        <path d="m 8 12 c -0.703125 0 -1.355469 0.371094 -1.714844 0.972656 h -3.285156 c -0.554688 0 -1 0.445313 -1 1 c 0 0.550782 0.445312 1 1 1 h 3.246094 c 0.351562 0.636719 1.023437 1.035156 1.753906 1.039063 c 0.730469 -0.003907 1.398438 -0.402344 1.75 -1.039063 h 3.261719 c 0.550781 0 1 -0.449218 1 -1 c 0 -0.554687 -0.449219 -1 -1 -1 h -3.292969 c -0.363281 -0.605468 -1.015625 -0.972656 -1.71875 -0.972656 z m 0 1 c 0.554688 0 1.003906 0.449219 1.003906 1.003906 c 0 0.558594 -0.449218 1.007813 -1.003906 1.007813 s -1.007812 -0.449219 -1.007812 -1.007813 c 0 -0.554687 0.453124 -1.003906 1.007812 -1.003906 z m 0 0"/>
        <path d="m 7 10 h 2.003906 v 3 h -2.003906 z m 0 0"/>
        <path d="m 4.507812 0 c -1.371093 0 -2.5 1.132812 -2.5 2.5 v 6 c 0 1.367188 1.128907 2.5 2.5 2.5 h 7 c 1.367188 0 2.5 -1.132812 2.5 -2.5 v -6 c 0 -1.367188 -1.132812 -2.5 -2.5 -2.5 z m 0 2 h 7 c 0.292969 0 0.5 0.207031 0.5 0.5 v 5 c 0 0.292969 -0.207031 0.5 -0.5 0.5 h -7 c -0.296874 0 -0.5 -0.207031 -0.5 -0.5 v -5 c 0 -0.292969 0.203126 -0.5 0.5 -0.5 z m 0 0"/>
    </g>
</svg>
