<?xml version="1.0" encoding="UTF-8"?>
<svg height="16px" viewBox="0 0 16 16" width="16px" xmlns="http://www.w3.org/2000/svg" xmlns:xlink="http://www.w3.org/1999/xlink">
    <filter id="a" height="100%" width="100%" x="0%" y="0%">
        <feColorMatrix color-interpolation-filters="sRGB" values="0 0 0 0 1 0 0 0 0 1 0 0 0 0 1 0 0 0 1 0"/>
    </filter>
    <mask id="b">
        <g filter="url(#a)">
            <path d="m -1.6 -1.6 h 19.2 v 19.2 h -19.2 z" fill-opacity="0.5"/>
        </g>
    </mask>
    <clipPath id="c">
        <path d="m 0 0 h 601 v 400 h -601 z"/>
    </clipPath>
    <path d="m 3.019531 1 c -1.652343 0 -3.0117185 1.363281 -3.0117185 3.011719 c 0 1.652343 1.3593755 3.011719 3.0117185 3.011719 h 3.980469 v 0.976562 c 0 1.117188 -0.882812 2 -2 2 h -1.269531 c -0.347657 -0.597656 -0.996094 -1 -1.730469 -1 c -1.097656 0 -2 0.902344 -2 2 s 0.902344 2 2 2 c 0.734375 0 1.382812 -0.402344 1.730469 -1 h 1.269531 c 0.726562 0 1.410156 -0.199219 2 -0.542969 v 0.6875 c -0.597656 0.347657 -1 0.992188 -1 1.730469 c 0 1.097656 0.902344 2 2 2 s 2 -0.902344 2 -2 c 0 -0.738281 -0.402344 -1.382812 -1 -1.730469 v -0.6875 c 0.589844 0.34375 1.273438 0.542969 2 0.542969 h 1.269531 c 0.347657 0.597656 0.996094 1 1.730469 1 c 1.097656 0 2 -0.902344 2 -2 s -0.902344 -2 -2 -2 c -0.734375 0 -1.382812 0.402344 -1.730469 1 h -1.269531 c -1.117188 0 -2 -0.882812 -2 -2 v -0.976562 h 3.980469 c 1.652343 0 3.011719 -1.359376 3.011719 -3.011719 c 0 -1.648438 -1.359376 -3.011719 -3.011719 -3.011719 z m 0 2 h 0.101563 c 0.496094 0.0625 0.871094 0.476562 0.871094 0.988281 c 0 0.558594 -0.441407 1 -1 1 c -0.410157 0 -0.757813 -0.238281 -0.914063 -0.589843 c -0.046875 -0.117188 -0.070313 -0.246094 -0.070313 -0.386719 c 0 -0.574219 0.433594 -1.011719 1.011719 -1.011719 z m 1.707031 0 h 8.253907 c 0.578125 0 1.011719 0.4375 1.011719 1.011719 c 0 0.578125 -0.433594 1.011719 -1.011719 1.011719 h -8.28125 c 0.1875 -0.300782 0.292969 -0.65625 0.292969 -1.035157 c 0 -0.359375 -0.097657 -0.695312 -0.265626 -0.988281 z m -2.726562 7 c 0.558594 0 1 0.441406 1 1 s -0.441406 1 -1 1 s -1 -0.441406 -1 -1 s 0.441406 -1 1 -1 z m 12 0 c 0.558594 0 1 0.441406 1 1 s -0.441406 1 -1 1 s -1 -0.441406 -1 -1 s 0.441406 -1 1 -1 z m -6 2.875 c 0.558594 0 1 0.441406 1 1 c 0 0.554688 -0.441406 1 -1 1 s -1 -0.445312 -1 -1 c 0 -0.558594 0.441406 -1 1 -1 z m 0 0" fill="#222222"/>
    <g mask="url(#b)">
        <g clip-path="url(#c)" transform="matrix(1 0 0 1 -24 -120)">
            <path d="m 210.5 151 c 0 1.382812 -1.121094 2.5 -2.5 2.5 c -1.382812 0 -2.5 -1.121094 -2.5 -2.5 s 1.117188 -2.5 2.5 -2.5 c 1.378906 0 2.5 1.117188 2.5 2.5 z m 0 0" fill="#222222" fill-opacity="0.34902"/>
        </g>
    </g>
</svg>
