<?xml version="1.0" encoding="UTF-8"?>
<svg height="16px" viewBox="0 0 16 16" width="16px" xmlns="http://www.w3.org/2000/svg">
    <path d="m 7.988281 0.0078125 c -0.429687 0 -0.8125 0.2734375 -0.949219 0.6835935 l -1.449218 4.339844 l -4.589844 -0.015625 c -0.9804688 -0.003906 -1.382812 1.257813 -0.582031 1.820313 l 3.625 2.554687 l -1.5 4.285156 c -0.316407 0.902344 0.6875 1.691407 1.492187 1.171875 l 4.003906 -2.59375 l 3.894532 2.585938 c 0.800781 0.53125 1.816406 -0.257813 1.5 -1.160156 l -1.503906 -4.289063 l 3.644531 -2.578125 c 0.789062 -0.5625 0.394531 -1.808594 -0.574219 -1.8125 l -4.660156 -0.015625 l -1.402344 -4.285156 c -0.132812 -0.410157 -0.515625 -0.6875002 -0.949219 -0.6914065 z m 0 0" fill="#2e3436"/>
</svg>
