<?xml version="1.0" encoding="UTF-8"?>
<svg xmlns="http://www.w3.org/2000/svg" xmlns:xlink="http://www.w3.org/1999/xlink" width="16px" height="16px" viewBox="0 0 16 16" version="1.1">
<g id="surface4574">
<path style=" stroke:none;fill-rule:nonzero;fill:rgb(13.333334%,13.333334%,13.333334%);fill-opacity:1;" d="M 7.128906 1 C 4.363281 0.9375 2.074219 3.125 2.007812 5.890625 C 2.003906 5.921875 2 5.957031 2 5.988281 L 2 5.996094 C 2.003906 6.546875 2.449219 6.988281 3 6.988281 C 3.550781 6.988281 3.996094 6.546875 4 5.996094 L 4 5.988281 C 4 4.511719 5.078125 3.257812 6.535156 3.035156 C 7.996094 2.800781 9.40625 3.667969 9.855469 5.078125 C 10.3125 6.484375 9.675781 8.015625 8.351562 8.675781 L 8.425781 8.640625 C 7.390625 9.0625 6.796875 9.890625 6.503906 10.585938 C 6.210938 11.277344 6.082031 11.832031 5.863281 12.175781 C 5.503906 12.734375 5 12.859375 4.617188 12.785156 C 4.234375 12.710938 4 12.570312 4 11.996094 L 4 10.996094 C 4 10.992188 4 10.992188 4 10.988281 C 4 10.4375 3.550781 9.988281 3 9.988281 C 2.449219 9.988281 2 10.4375 2 10.988281 C 2 10.992188 2 10.992188 2 10.996094 L 2 11.996094 C 2 13.425781 3.054688 14.523438 4.238281 14.75 C 5.421875 14.976562 6.769531 14.460938 7.542969 13.253906 C 8.019531 12.511719 8.15625 11.8125 8.347656 11.363281 C 8.535156 10.910156 8.644531 10.710938 9.179688 10.496094 L 9.21875 10.480469 L 9.253906 10.460938 C 11.449219 9.347656 12.511719 6.804688 11.761719 4.464844 C 11.105469 2.445312 9.25 1.054688 7.128906 1 Z M 12.882812 1.175781 C 12.6875 1.175781 12.492188 1.230469 12.328125 1.339844 C 11.863281 1.640625 11.730469 2.257812 12.03125 2.722656 C 13.324219 4.710938 13.324219 7.265625 12.03125 9.257812 C 11.730469 9.71875 11.863281 10.339844 12.328125 10.640625 C 12.789062 10.941406 13.40625 10.808594 13.710938 10.347656 C 15.429688 7.699219 15.429688 4.277344 13.710938 1.632812 C 13.527344 1.351562 13.21875 1.179688 12.882812 1.175781 Z M 7 3.996094 C 5.894531 3.996094 5 4.890625 5 5.996094 C 5 7.101562 5.894531 7.996094 7 7.996094 C 8.105469 7.996094 9 7.101562 9 5.996094 C 9 4.890625 8.105469 3.996094 7 3.996094 Z M 7 3.996094 "/>
</g>
</svg>
