<?xml version="1.0" encoding="UTF-8"?>
<svg xmlns="http://www.w3.org/2000/svg" xmlns:xlink="http://www.w3.org/1999/xlink" width="16px" height="16px" viewBox="0 0 16 16" version="1.1">
<g id="surface4908">
<path style=" stroke:none;fill-rule:nonzero;fill:rgb(18.039216%,20.392157%,21.176471%);fill-opacity:1;" d="M 2.5 2 C 1.132812 2 0 3.132812 0 4.5 L 0 11.5 C 0 12.867188 1.132812 14 2.5 14 L 13.5 14 C 14.867188 14 16 12.867188 16 11.5 L 16 4.5 C 16 3.132812 14.867188 2 13.5 2 Z M 2.5 4 L 3.5 4 C 3.777344 4 4 4.222656 4 4.5 L 4 5.5 C 4 5.777344 3.777344 6 3.5 6 L 2.5 6 C 2.222656 6 2 5.777344 2 5.5 L 2 4.5 C 2 4.257812 2.171875 4.054688 2.398438 4.011719 C 2.429688 4.003906 2.464844 4 2.5 4 Z M 5.5 4 L 6.5 4 C 6.777344 4 7 4.222656 7 4.5 L 7 5.5 C 7 5.777344 6.777344 6 6.5 6 L 5.5 6 C 5.222656 6 5 5.777344 5 5.5 L 5 4.5 C 5 4.222656 5.222656 4 5.5 4 Z M 8.5 4 L 9.5 4 C 9.777344 4 10 4.222656 10 4.5 L 10 5.5 C 10 5.777344 9.777344 6 9.5 6 L 8.5 6 C 8.222656 6 8 5.777344 8 5.5 L 8 4.5 C 8 4.222656 8.222656 4 8.5 4 Z M 11.5 4 L 12.5 4 C 12.777344 4 13 4.222656 13 4.5 L 13 5.5 C 13 5.777344 12.777344 6 12.5 6 L 11.5 6 C 11.222656 6 11 5.777344 11 5.5 L 11 4.5 C 11 4.222656 11.222656 4 11.5 4 Z M 3.5 7 L 4.5 7 C 4.777344 7 5 7.222656 5 7.5 L 5 8.5 C 5 8.777344 4.777344 9 4.5 9 L 3.5 9 C 3.222656 9 3 8.777344 3 8.5 L 3 7.5 C 3 7.222656 3.222656 7 3.5 7 Z M 6.5 7 L 7.5 7 C 7.777344 7 8 7.222656 8 7.5 L 8 8.5 C 8 8.777344 7.777344 9 7.5 9 L 6.5 9 C 6.222656 9 6 8.777344 6 8.5 L 6 7.5 C 6 7.222656 6.222656 7 6.5 7 Z M 9.5 7 L 10.5 7 C 10.777344 7 11 7.222656 11 7.5 L 11 8.5 C 11 8.777344 10.777344 9 10.5 9 L 9.5 9 C 9.222656 9 9 8.777344 9 8.5 L 9 7.5 C 9 7.222656 9.222656 7 9.5 7 Z M 12.5 7 L 13.5 7 C 13.777344 7 14 7.222656 14 7.5 L 14 8.5 C 14 8.777344 13.777344 9 13.5 9 L 12.5 9 C 12.222656 9 12 8.777344 12 8.5 L 12 7.5 C 12 7.222656 12.222656 7 12.5 7 Z M 2.5 10 L 3.5 10 C 3.777344 10 4 10.222656 4 10.5 L 4 11.5 C 4 11.777344 3.777344 12 3.5 12 L 2.5 12 C 2.222656 12 2 11.777344 2 11.5 L 2 10.5 C 2 10.222656 2.222656 10 2.5 10 Z M 5.5 10 L 9.5 10 C 9.777344 10 10 10.222656 10 10.5 L 10 11.5 C 10 11.777344 9.777344 12 9.5 12 L 5.5 12 C 5.222656 12 5 11.777344 5 11.5 L 5 10.5 C 5 10.222656 5.222656 10 5.5 10 Z M 11.5 10 L 12.5 10 C 12.777344 10 13 10.222656 13 10.5 L 13 11.5 C 13 11.777344 12.777344 12 12.5 12 L 11.5 12 C 11.222656 12 11 11.777344 11 11.5 L 11 10.5 C 11 10.222656 11.222656 10 11.5 10 Z M 11.5 10 "/>
</g>
</svg>
