<?xml version="1.0" encoding="UTF-8"?>
<svg xmlns="http://www.w3.org/2000/svg" xmlns:xlink="http://www.w3.org/1999/xlink" width="16px" height="16px" viewBox="0 0 16 16" version="1.1">
<g id="surface4797">
<path style=" stroke:none;fill-rule:nonzero;fill:rgb(13.333334%,13.333334%,13.333334%);fill-opacity:1;" d="M 3.019531 1 C 1.375 1 0.0195312 2.355469 0.0195312 4 L 0.0195312 10 C 0.0195312 11.644531 1.375 13 3.019531 13 L 4.015625 13 C 4.5625 13 5.003906 12.554688 5.007812 12.007812 L 5.007812 11.992188 C 5.003906 11.445312 4.5625 11 4.015625 11 L 3.019531 11 C 2.449219 11 2.019531 10.570312 2.019531 10 L 2.019531 4 C 2.019531 3.429688 2.449219 3 3.019531 3 L 11.996094 3 C 12.566406 3 12.996094 3.429688 12.996094 4 L 12.996094 4.011719 C 12.996094 4.558594 13.4375 5 13.984375 5 L 14.007812 5 C 14.550781 5 14.996094 4.558594 14.996094 4.011719 L 14.996094 4 C 14.996094 2.355469 13.640625 1 11.996094 1 Z M 9.507812 4 C 7.019531 4 5.007812 6.015625 5.007812 8.5 C 5.007812 10.984375 7.019531 13 9.507812 13 C 10.351562 13 11.183594 12.757812 11.898438 12.304688 L 14.300781 14.707031 C 14.691406 15.097656 15.324219 15.097656 15.714844 14.707031 C 16.105469 14.316406 16.105469 13.683594 15.714844 13.292969 L 13.3125 10.894531 C 13.765625 10.175781 14.003906 9.347656 14.007812 8.5 C 14.007812 6.015625 11.992188 4 9.507812 4 Z M 9.507812 6 C 10.886719 6 12.007812 7.121094 12.007812 8.5 C 12.007812 9.878906 10.886719 11 9.507812 11 C 8.125 11 7.007812 9.878906 7.007812 8.5 C 7.007812 7.121094 8.125 6 9.507812 6 Z M 5.019531 14 C 3.914062 14 3.019531 14.894531 3.019531 16 L 13.019531 16 C 13.019531 14.894531 12.125 14 11.019531 14 Z M 5.019531 14 "/>
</g>
</svg>
