<?xml version="1.0" encoding="UTF-8"?>
<svg height="16px" viewBox="0 0 16 16" width="16px" xmlns="http://www.w3.org/2000/svg">
    <path d="m 2.492188 -0.0078125 c -1.375 0 -2.5000005 1.1250005 -2.5000005 2.5000005 v 3 c 0 1.375 1.1250005 2.5 2.5000005 2.5 h 1.007812 c -0.316406 0.417968 -0.507812 0.9375 -0.507812 1.5 v 3 c 0 1.375 1.125 2.5 2.5 2.5 h 4 c 1.375 0 2.5 -1.125 2.5 -2.5 v -3 c 0 -0.5625 -0.191407 -1.082032 -0.503907 -1.5 h 1.003907 c 1.375 0 2.5 -1.125 2.5 -2.5 v -3 c 0 -1.375 -1.125 -2.5000005 -2.5 -2.5000005 h -3 c -0.816407 0 -1.542969 0.3945315 -2 1.0039065 c -0.457032 -0.609375 -1.183594 -1.0039065 -2 -1.0039065 z m 0 1.0000005 h 3 c 0.839843 0 1.5 0.660156 1.5 1.5 v 1.558593 c -0.976563 0.199219 -1.742188 0.964844 -1.941407 1.941407 h -2.558593 c -0.839844 0 -1.5 -0.660157 -1.5 -1.5 v -2 c 0 -0.839844 0.660156 -1.5 1.5 -1.5 z m 7 0 h 3 c 0.839843 0 1.5 0.660156 1.5 1.5 v 2 c 0 0.839843 -0.660157 1.5 -1.5 1.5 h -2.550782 c -0.199218 -0.980469 -0.96875 -1.75 -1.949218 -1.949219 v -1.550781 c 0 -0.839844 0.660156 -1.5 1.5 -1.5 z m -2 4 c 0.828124 0 1.5 0.671874 1.5 1.5 c 0 0.828124 -0.671876 1.5 -1.5 1.5 c -0.828126 0 -1.5 -0.671876 -1.5 -1.5 c 0 -0.828126 0.671874 -1.5 1.5 -1.5 z m -2 3 h 0.007812 c 0.46875 0.628906 1.207031 0.996093 1.992188 1 c 0.785156 -0.003907 1.519531 -0.375 1.992187 -1 h 0.007813 c 0.839843 0 1.5 0.660156 1.5 1.5 v 2 c 0 0.839843 -0.660157 1.5 -1.5 1.5 h -4 c -0.839844 0 -1.5 -0.660157 -1.5 -1.5 v -2 c 0 -0.839844 0.660156 -1.5 1.5 -1.5 z m 0 0" fill="#222222"/>
</svg>
