<svg xmlns="http://www.w3.org/2000/svg" width="32" height="32" viewBox="0 0 8.467 8.467">
    <path style="line-height:normal;font-variant-ligatures:normal;font-variant-position:normal;font-variant-caps:normal;font-variant-numeric:normal;font-variant-alternates:normal;font-feature-settings:normal;text-indent:0;text-align:start;text-decoration-line:none;text-decoration-style:solid;text-decoration-color:#000;text-transform:none;text-orientation:mixed;white-space:normal;shape-padding:0;isolation:auto;mix-blend-mode:normal;solid-color:#000;solid-opacity:1" d="M 16.132812,0.99023438 C 13.902514,0.96755721 11.66847,1.5168081 9.65625,2.6425781 8.4831917,3.288913 9.4616217,5.0473362 10.628906,4.390625 14.036766,2.4839667 18.198267,2.527856 21.566406,4.5039062 24.934547,6.4799188 27,10.08815 27,13.994141 v 2 c -5.97e-4,1.33435 1.999403,1.33435 2,0 v -2 c 3.54e-4,-0.03325 -9.56e-4,-0.06649 -0.0039,-0.09961 C 28.961052,9.320245 26.52689,5.092052 22.578125,2.7753906 20.589365,1.6086127 18.363092,1.0130627 16.132812,0.99023438 Z M 5.7617188,6.640625 C 5.4310747,6.6594699 5.1312075,6.840853 4.9609375,7.125 3.6959444,9.158537 3.0222407,11.500805 3.0039062,13.894531 3.00095,13.927649 2.9996462,13.960893 3,13.994141 v 10.128906 c 0,1.333754 2,1.333754 2,0 V 13.994141 C 5,11.939136 5.5747962,9.9244686 6.6601562,8.1796875 7.1014645,7.4921558 6.5771855,6.5940433 5.7617188,6.640625 Z M 16,6.9921875 c -3.813165,0 -6.9283277,3.0816025 -6.9941406,6.8808595 -0.0044,0.04021 -0.00636,0.08065 -0.00586,0.121094 v 2 c 5.96e-4,1.333157 2.000596,1.333157 2,0 v -2 c 0,-2.774325 2.22666,-5.0019535 5,-5.0019535 2.77334,0 5,2.2276285 5,5.0019535 V 22.125 c 0.426667,0.161975 0.81076,0.41915 1.123047,0.751953 L 23,23.753906 v -9.759765 c 2.65e-4,-0.03849 -0.0017,-0.07697 -0.0059,-0.115235 C 22.931551,10.076928 19.815145,6.9921875 16,6.9921875 Z m -0.01563,5.9863285 C 15.43218,12.98705 14.991449,13.441767 15,13.994141 v 10.003906 c 0,0 -5.87e-4,1.09432 0.269531,2.445312 0.2701,1.350992 0.787778,3.027578 2.023438,4.263672 0.942205,0.981983 2.395438,-0.47125 1.414062,-1.414062 -0.690333,-0.690533 -1.138586,-1.835412 -1.390625,-2.898438 l -0.002,-0.002 C 16.951575,25.742041 16.843618,24.979658 17.011719,24.253906 17.009401,24.177001 17,23.998047 17,23.998047 V 13.994141 c 0.0087,-0.564623 -0.451183,-1.024549 -1.015625,-1.015625 z m -6,8.001953 C 9.4321797,20.989003 8.9914495,21.44372 9,21.996094 v 6.001953 c -5.966e-4,1.33435 1.999403,1.33435 2,0 v -6.001953 c 0.0087,-0.564623 -0.451183,-1.024549 -1.015625,-1.015625 z m 20.998047,0.0059 a 1.0001,1.0001 0 0 0 -0.6875,0.302734 l -6.296875,6.289063 -3.291016,-3.292969 a 1.0001,1.0001 0 1 0 -1.410156,1.417969 l 4.701172,4.703125 7.707031,-7.707031 a 1.0001,1.0001 0 0 0 -0.722656,-1.712891 z" transform="scale(.26458)" class="success" color="#000" font-weight="400" font-family="sans-serif" overflow="visible" fill="#33d17a"/>
</svg>
