<svg xmlns="http://www.w3.org/2000/svg" width="32" height="32" viewBox="0 0 8.467 8.467">
    <path d="m 4.2684727,288.79533 c -0.5901,-0.006 -1.1811905,0.13932 -1.7135904,0.43718 a 0.26457931,0.26466281 0 1 0 0.2573486,0.46251 c 0.9016629,-0.50447 2.0027268,-0.49283 2.8938802,0.03 0.8911538,0.52282 1.4376385,1.4775 1.4376385,2.51096 v 0.52916 a 0.26458335,0.26466684 0 1 0 0.5291667,0 v -0.52916 a 0.26456806,0.26465154 0 0 0 -0.00103,-0.0264 c -0.00927,-1.21028 -0.6533118,-2.32899 -1.6980893,-2.94194 -0.5261927,-0.30871 -1.1152275,-0.46628 -1.7053224,-0.47232 z m -2.7440185,1.495 a 0.26456806,0.26465154 0 0 0 -0.2118734,0.12816 c -0.3346961,0.53804 -0.51294685,1.15776 -0.51779785,1.7911 a 0.26456806,0.26465154 0 0 0 -0.001034,0.0264 v 2.67994 a 0.26458334,0.26466683 0 0 0 0.52916665,0 v -2.67994 c 0,-0.54372 0.1520815,-1.07677 0.4392497,-1.53841 a 0.26456806,0.26465154 0 0 0 -0.2377116,-0.40721 z m 2.7088787,0.093 c -1.0089,0 -1.8331201,0.81534 -1.8505331,1.82056 a 0.26456806,0.26465154 0 0 0 -0.00155,0.032 v 0.52916 a 0.26458335,0.26466684 0 1 0 0.5291667,0 v -0.52916 c 0,-0.73404 0.5891371,-1.32344 1.3229167,-1.32344 0.7337795,0 1.3229167,0.5894 1.3229167,1.32344 v 2.64686 c 0,0 0.00212,0.18248 0.079582,0.41445 0.077301,0.23197 0.2313432,0.5351 0.5270998,0.83096 a 0.26456806,0.26465154 0 1 0 0.3741372,-0.37414 c -0.2334101,-0.23348 -0.3439509,-0.45923 -0.3989419,-0.62425 -0.054991,-0.16503 -0.05271,-0.24702 -0.05271,-0.24702 v -2.64686 a 0.26456806,0.26465154 0 0 0 -0.00156,-0.0305 c -0.016571,-1.00594 -0.8410985,-1.82211 -1.8505223,-1.82211 z m -0.00414,1.58388 a 0.26456806,0.26465154 0 0 0 -0.2604479,0.26872 v 2.64686 c 0,0 -1.558e-4,0.28954 0.071313,0.64699 0.071464,0.35745 0.208433,0.80105 0.535368,1.1281 a 0.26456806,0.26465154 0 1 0 0.3741373,-0.37414 c -0.2022317,-0.20229 -0.329846,-0.55309 -0.3906737,-0.85731 -0.060823,-0.30422 -0.060978,-0.54364 -0.060978,-0.54364 v -2.64686 a 0.26456806,0.26465154 0 0 0 -0.2687175,-0.26872 z m -1.5875,2.11718 a 0.26456806,0.26465154 0 0 0 -0.2604479,0.26872 v 1.58802 a 0.26458335,0.26466684 0 1 0 0.5291667,0 v -1.58802 a 0.26456806,0.26465154 0 0 0 -0.2687175,-0.26872 z m 4.7625001,0 a 0.26456806,0.26465154 0 0 0 -0.2604479,0.26769 v 0.52968 a 0.26458335,0.26466684 0 1 0 0.5291667,0 v -0.52968 a 0.26456806,0.26465154 0 0 0 -0.2687175,-0.26769 z" style="line-height:normal;font-variant-ligatures:normal;font-variant-position:normal;font-variant-caps:normal;font-variant-numeric:normal;font-variant-alternates:normal;font-feature-settings:normal;text-indent:0;text-align:start;text-decoration-line:none;text-decoration-style:solid;text-decoration-color:#000;text-transform:none;text-orientation:mixed;white-space:normal;shape-padding:0;isolation:auto;mix-blend-mode:normal;solid-color:#000;solid-opacity:1" color="#000" font-weight="400" font-family="sans-serif" overflow="visible" fill="#3d3846" transform="translate(0 -288.533)"/>
</svg>
