<svg version="1.0" width="48" height="48" xml:space="preserve" xmlns="http://www.w3.org/2000/svg"><defs><linearGradient id="f"><stop style="stop-color:#fffffc;stop-opacity:1" offset="0"/><stop style="stop-color:#fffffc;stop-opacity:0" offset="1"/></linearGradient><linearGradient id="e"><stop style="stop-color:#73d216;stop-opacity:1" offset="0"/><stop offset=".315" style="stop-color:#73d216;stop-opacity:1"/><stop style="stop-color:#4e9a06;stop-opacity:1" offset="1"/></linearGradient><linearGradient id="c"><stop offset="0" style="stop-color:#fff;stop-opacity:1"/><stop offset="1" style="stop-color:#fff;stop-opacity:0"/></linearGradient><linearGradient id="b"><stop style="stop-color:#52a714;stop-opacity:1" offset="0"/><stop style="stop-color:#398800;stop-opacity:1" offset="1"/></linearGradient><linearGradient id="a"><stop offset="0" style="stop-color:#398800;stop-opacity:1"/><stop offset="1" style="stop-color:#84c706;stop-opacity:1"/></linearGradient><linearGradient id="d"><stop offset="0" style="stop-color:white;stop-opacity:1"/><stop offset="1" style="stop-color:white;stop-opacity:0"/></linearGradient></defs><path style="color:#000;font-style:normal;font-variant:normal;font-weight:400;font-stretch:normal;font-size:medium;line-height:normal;font-family:sans-serif;font-variant-ligatures:normal;font-variant-position:normal;font-variant-caps:normal;font-variant-numeric:normal;font-variant-alternates:normal;font-variant-east-asian:normal;font-feature-settings:normal;font-variation-settings:normal;text-indent:0;text-align:start;text-decoration:none;text-decoration-line:none;text-decoration-style:solid;text-decoration-color:#000;letter-spacing:normal;word-spacing:normal;text-transform:none;writing-mode:lr-tb;direction:ltr;text-orientation:mixed;dominant-baseline:auto;baseline-shift:baseline;text-anchor:start;white-space:normal;shape-padding:0;shape-margin:0;inline-size:0;clip-rule:nonzero;display:inline;overflow:visible;visibility:visible;isolation:auto;mix-blend-mode:normal;color-interpolation:sRGB;color-interpolation-filters:linearRGB;solid-color:#000;solid-opacity:1;vector-effect:none;fill:#77767b;fill-opacity:1;fill-rule:nonzero;stroke:none;stroke-width:4;stroke-linecap:round;stroke-linejoin:round;stroke-miterlimit:4;stroke-dasharray:none;stroke-dashoffset:56;stroke-opacity:1;color-rendering:auto;image-rendering:auto;shape-rendering:auto;text-rendering:auto;enable-background:accumulate;stop-color:#000" d="M17 3c-2.402-.025-4.81.57-6.977 1.781a2 2 0 0 0 1.95 3.492 9.994 9.994 0 0 1 9.941.102A9.991 9.991 0 0 1 26.855 17v1.145l3.739-3.739a13.986 13.986 0 0 0-6.657-9.484A13.986 13.986 0 0 0 17 3zM6.602 8.66a2 2 0 0 0-1.633.942 13.997 13.997 0 0 0-2.094 7.113v.004a2 2 0 0 0-.02.281v10.125a2 2 0 1 0 4 0V17c0-1.868.525-3.7 1.512-5.285A2 2 0 0 0 6.602 8.66zM16.855 9c-4.262 0-7.752 3.4-7.96 7.613a2 2 0 0 0-.04.387v2a2 2 0 1 0 4 0v-2c0-2.233 1.768-4 4-4 2.233 0 4 1.767 4 4v7.145l4-4V17a2 2 0 0 0-.039-.398C24.602 12.393 21.114 9 16.856 9zm0 6a2 2 0 0 0-2 2v10s0 1.19.29 2.64c.01.058.026.118.039.176l3.671-3.671V17a2 2 0 0 0-2-2zm-6 8a2 2 0 0 0-2 2v6a2 2 0 1 0 4 0v-6a2 2 0 0 0-2-2z"/><g style="display:inline;enable-background:new;fill:#ed333b;fill-opacity:1" transform="matrix(1.5 0 0 -1.5 6.149 1050.007)"><path style="display:inline;fill:#ed333b;fill-opacity:1;stroke-width:1.5;stroke-linecap:square;stroke-linejoin:round;enable-background:new" d="M19.794 668.005c-4.377 0-7.893 3.623-7.893 8a8 8 0 1 0 8-8h-.107zm-.56 3.346h1.334c.37 0 .668.297.668.667v1.335c0 .37-.298.667-.668.667h-1.335a.666.666 0 0 1-.667-.667v-1.335c0-.37.298-.667.667-.667zm-.666 3.987h2.666v6h-2.666z"/></g><path style="fill:none;stroke:#77767b;stroke-width:1px;stroke-linecap:butt;stroke-linejoin:miter;stroke-opacity:1" d="m9 36 25-25"/></svg>