<svg version="1.0" width="48" height="48" viewBox="0 0 40.425 46.214" xml:space="preserve" xmlns="http://www.w3.org/2000/svg"><defs><linearGradient id="a"><stop offset="0" style="stop-color:#fff;stop-opacity:1"/><stop style="stop-color:#27dc16;stop-opacity:1" offset="1"/></linearGradient></defs><circle style="fill:#8ff0a4;stroke:#2ec27e;stroke-width:.949928;stroke-miterlimit:4;stroke-dasharray:none;stop-color:#000" cx="-3.418" cy="28.463" r="5.706" transform="scale(-1 1)"/><g style="stroke-width:1.06881"><path style="fill:#241f31;stroke:none;stroke-width:1.06881px;stroke-linecap:butt;stroke-linejoin:miter;stroke-opacity:1" d="M437.016 124.536h.029a14.986 14.986 45 0 1 14.985 14.986v54.153a4.504 4.504 45 0 0 4.504 4.504 4.216 4.216 130.946 0 0 3.908-4.504v-63.748a14 14 135 0 1 14-14 13.257 13.257 48.306 0 1 12.47 14v63.897a4.355 4.355 45 0 0 4.355 4.355 4.149 4.149 132.08 0 0 3.932-4.355v-63.897a14 14 135 0 1 14-14 13.11 13.11 49.036 0 1 12.155 14v64.019a4.233 4.233 45 0 0 4.233 4.233h.202a4.233 4.233 135 0 0 4.233-4.233v-40.661a14 14 135 0 1 14-14 13.005 13.005 49.527 0 1 11.946 14L555.833 260a30.038 30.038 135.036 0 1-30.039 30H450a48.284 48.284 22.5 0 1-34.142-14.142l-37.801-37.801a15.702 15.702 86.658 0 1-1.217-20.839 14.154 14.154 173.662 0 1 19.896-2.21l21.76 17.2a2.181 2.181 154.16 0 0 3.534-1.712v-90.974a14.986 14.986 135 0 1 14.986-14.986z" transform="matrix(.22259 0 0 .22259 -83.281 -22.001)"/><path style="fill:#000;fill-opacity:.470966;stroke:none;stroke-width:1.06881px;stroke-linecap:butt;stroke-linejoin:miter;stroke-opacity:1" d="M374.444 222.919c-1.992 5.044.075 11.54 3.91 15.375l37.503 37.563A48.284 48.284 0 0 0 450 290h75.794c16.569 0 30-13.431 30-30v-10c0 16.569-13.431 30-30 30H450a48.284 48.284 0 0 1-34.143-14.143l-38.377-38.313a13.61 13.61 0 0 1-3.036-4.625z" transform="matrix(.22259 0 0 .22259 -83.281 -22.001)"/></g></svg>