<?xml version="1.0" encoding="UTF-8" standalone="no"?>
<!-- Generator: Adobe Illustrator 13.0.2, SVG Export Plug-In . SVG Version: 6.00 Build 14948)  -->

<svg
   version="1.0"
   x="0px"
   y="0px"
   width="48"
   height="48"
   viewBox="0 0 40.425 46.214"
   enable-background="new 0 0 40.425 46.214"
   xml:space="preserve"
   id="svg2"
   sodipodi:version="0.32"
   inkscape:version="1.1 (c68e22c387, 2021-05-23)"
   sodipodi:docname="right-index-finger.svg"
   inkscape:output_extension="org.inkscape.output.svg.inkscape"
   xmlns:inkscape="http://www.inkscape.org/namespaces/inkscape"
   xmlns:sodipodi="http://sodipodi.sourceforge.net/DTD/sodipodi-0.dtd"
   xmlns:xlink="http://www.w3.org/1999/xlink"
   xmlns="http://www.w3.org/2000/svg"
   xmlns:svg="http://www.w3.org/2000/svg"
   xmlns:rdf="http://www.w3.org/1999/02/22-rdf-syntax-ns#"
   xmlns:cc="http://creativecommons.org/ns#"
   xmlns:dc="http://purl.org/dc/elements/1.1/"><metadata
   id="metadata44"><rdf:RDF><cc:Work
       rdf:about=""><dc:format>image/svg+xml</dc:format><dc:type
         rdf:resource="http://purl.org/dc/dcmitype/StillImage" /></cc:Work></rdf:RDF></metadata><defs
   id="defs42"><inkscape:perspective
   sodipodi:type="inkscape:persp3d"
   inkscape:vp_x="0 : 23.107 : 1"
   inkscape:vp_y="0 : 1000 : 0"
   inkscape:vp_z="40.424999 : 23.107 : 1"
   inkscape:persp3d-origin="20.2125 : 15.404667 : 1"
   id="perspective46" />
	
	
	
	
	
	
<radialGradient
   r="8.341651"
   fy="9.3411446"
   fx="38.658855"
   cy="9.3411446"
   cx="38.658855"
   gradientUnits="userSpaceOnUse"
   id="radialGradient2479"
   xlink:href="#linearGradient2378"
   inkscape:collect="always" /><linearGradient
   id="linearGradient2378"><stop
     id="stop2386"
     offset="0"
     style="stop-color:#ffffff;stop-opacity:1;" /><stop
     style="stop-color:#27dc16;stop-opacity:1;"
     offset="1"
     id="stop2382" /></linearGradient><linearGradient
   id="linearGradient3702"><stop
     id="stop3704"
     offset="0"
     style="stop-color:black;stop-opacity:0;" /><stop
     style="stop-color:black;stop-opacity:1;"
     offset="0.5"
     id="stop3710" /><stop
     id="stop3706"
     offset="1"
     style="stop-color:black;stop-opacity:0;" /></linearGradient><linearGradient
   id="linearGradient6732"><stop
     id="stop6734"
     offset="0"
     style="stop-color:#ffffff;stop-opacity:1;" /><stop
     id="stop6736"
     offset="1"
     style="stop-color:#dddddd;stop-opacity:1;" /></linearGradient><linearGradient
   id="linearGradient4585"><stop
     id="stop4587"
     offset="0"
     style="stop-color:#9e9e9e;stop-opacity:1;" /><stop
     id="stop4589"
     offset="1"
     style="stop-color:#dddddd;stop-opacity:0;" /></linearGradient><inkscape:perspective
   id="perspective2516"
   inkscape:persp3d-origin="24 : 16 : 1"
   inkscape:vp_z="48 : 24 : 1"
   inkscape:vp_y="0 : 1000 : 0"
   inkscape:vp_x="0 : 24 : 1"
   sodipodi:type="inkscape:persp3d" /><inkscape:path-effect
   effect="fillet_chamfer"
   id="path-effect705"
   is_visible="true"
   lpeversion="1"
   satellites_param="F,0,0,1,0,14.985621,0,1 @ F,0,0,1,0,14.985621,0,1 @ F,0,0,1,0,4.5037992,0,1 @ F,0,0,1,0,4.5037992,0,1 @ F,0,0,1,0,14,0,1 @ F,0,0,1,0,14,0,1 @ F,0,0,1,0,4.3545564,0,1 @ F,0,0,1,0,4.3545564,0,1 @ F,0,0,1,0,14,0,1 @ F,0,0,1,0,14,0,1 @ F,0,1,1,0,4.2330301,0,1 @ F,0,0,1,0,4.2330301,0,1 @ F,0,0,1,0,14,0,1 @ F,0,0,1,0,14,0,1 @ F,0,0,1,0,30,0,1 @ F,0,0,1,0,20,0,1 @ F,0,0,1,0,13.969939,0,1 @ F,0,0,1,0,14.239701,0,1 @ F,0,0,1,0,4.5037992,0,1"
   unit="px"
   method="auto"
   mode="F"
   radius="0"
   chamfer_steps="1"
   flexible="false"
   use_knot_distance="true"
   apply_no_radius="true"
   apply_with_radius="true"
   only_selected="false"
   hide_knots="false" /></defs><sodipodi:namedview
   inkscape:window-height="922"
   inkscape:window-width="1302"
   inkscape:pageshadow="2"
   inkscape:pageopacity="0.0"
   guidetolerance="10.0"
   gridtolerance="10.0"
   objecttolerance="10.0"
   borderopacity="1.0"
   bordercolor="#666666"
   pagecolor="#ffffff"
   id="base"
   showgrid="true"
   inkscape:zoom="11.122171"
   inkscape:cx="15.672125"
   inkscape:cy="30.299841"
   inkscape:window-x="36"
   inkscape:window-y="91"
   inkscape:current-layer="svg2"
   inkscape:pagecheckerboard="1"><inkscape:grid
     type="xygrid"
     id="grid132" /></sodipodi:namedview>
<g
   id="Background"
   transform="matrix(-1,0,0,1,40.436754,0)">
</g>
<g
   id="Guides"
   display="none"
   style="display:none">
</g>

<g
   style="display:inline"
   inkscape:label="Base"
   id="layer1"
   transform="matrix(-1,0,0,1,92.903401,2.6102791)" /><circle
   style="fill:#8ff0a4;stroke:#2ec27e;stroke-width:0.962791;stroke-miterlimit:4;stroke-dasharray:none;stop-color:#000000"
   id="path942"
   cx="-14.102299"
   cy="9.2030573"
   r="5.782784"
   transform="scale(-1,1)" /><g
   id="g729"
   transform="matrix(0.22258678,0,0,0.22258678,-83.161668,-22.001369)"
   style="stroke-width:1.06881"><path
     style="fill:#241f31;stroke:none;stroke-width:1.06881px;stroke-linecap:butt;stroke-linejoin:miter;stroke-opacity:1"
     d="m 437.01588,124.53632 h 0.0288 a 14.985621,14.985621 45 0 1 14.98562,14.98562 v 54.15303 a 4.5037992,4.5037992 45 0 0 4.5038,4.5038 4.2162977,4.2162977 130.94639 0 0 3.9077,-4.5038 v -63.74761 a 14,14 135 0 1 14,-14 13.257429,13.257429 48.306446 0 1 12.47072,14 v 63.89685 a 4.3545564,4.3545564 45 0 0 4.35456,4.35456 4.1486159,4.1486159 132.08015 0 0 3.9319,-4.35456 v -63.89685 a 14,14 135 0 1 14,-14 13.109783,13.109783 49.036091 0 1 12.15454,14 v 64.01838 a 4.2330301,4.2330301 45 0 0 4.23303,4.23303 h 0.20273 a 4.2330301,4.2330301 135 0 0 4.23303,-4.23303 v -40.66083 a 14,14 135 0 1 14,-14 13.005154,13.005154 49.527265 0 1 11.9456,13.99999 l -0.13535,106.71512 A 30.038075,30.038075 135.03634 0 1 525.79447,290 H 450 a 48.284271,48.284271 22.5 0 1 -34.14214,-14.14214 l -37.80085,-37.80085 a 15.70245,15.70245 86.658408 0 1 -1.21675,-20.83898 14.154071,14.154071 173.66236 0 1 19.89529,-2.20969 l 21.76126,17.199 a 2.1810508,2.1810508 154.16053 0 0 3.53345,-1.71114 v -90.97426 a 14.985621,14.985621 135 0 1 14.98562,-14.98562 z"
     id="path703"
     sodipodi:nodetypes="cccccccccccccccccccc"
     inkscape:path-effect="#path-effect705"
     inkscape:original-d="m 422.03026,124.53632 h 30 v 73.64245 h 8.4115 v -82.25141 h 26.47072 v 82.25141 h 8.28646 v -82.25141 h 26.15454 v 82.25141 h 8.66879 v -58.89386 h 25.96336 L 555.79447,290 H 430 l -61.82123,-61.82123 17.38504,-22 L 422.03026,235 Z" /><path
     id="path713"
     style="fill:#000000;fill-opacity:0.470966;stroke:none;stroke-width:1.06881px;stroke-linecap:butt;stroke-linejoin:miter;stroke-opacity:1"
     d="m 374.44439,222.91901 c -1.99255,5.0443 0.0749,11.54016 3.91016,15.375 l 37.50287,37.56341 C 424.91251,284.91275 437.194,290 450,290 h 75.79447 c 16.56854,0 30,-13.43146 30,-30 v -10 c 0,16.56854 -13.43146,30 -30,30 H 450 c -12.806,0 -25.08749,-5.08725 -34.14258,-14.14258 l -38.37787,-38.31341 c -1.31765,-1.31764 -2.35071,-2.89182 -3.03516,-4.625 z"
     sodipodi:nodetypes="cccssscssccc" /></g></svg>
