/* XPM */
static char * 16_mode_descriptions_xpm[] = {
"24 24 75 1",
" 	c None",
".	c #000000",
"+	c #7C90A3",
"@	c #5C778F",
"#	c #4D667E",
"$	c #5F798F",
"%	c #4B6983",
"&	c #374F64",
"*	c #FFFFFF",
"=	c #FCFCFC",
"-	c #FBFBFB",
";	c #FAFAFA",
">	c #F9F9F9",
",	c #F7F7F7",
"'	c #A4A4A4",
")	c #990000",
"!	c #B39169",
"~	c #A6A6A6",
"{	c #C1C1C1",
"]	c #CDCDCD",
"^	c #E4E4E4",
"/	c #C9C9C9",
"(	c #E0E0E0",
"_	c #F6F6F6",
":	c #A0A0A0",
"<	c #C2C2C2",
"[	c #A3A3A3",
"}	c #B5B5B5",
"|	c #BABABA",
"1	c #B2B2B2",
"2	c #AEAEAE",
"3	c #F4F4F4",
"4	c #A1A1A1",
"5	c #F8F8F8",
"6	c #F5F5F5",
"7	c #F3F3F3",
"8	c #314E6C",
"9	c #CFCFCF",
"0	c #DCDCDC",
"a	c #DBDBDB",
"b	c #F2F2F2",
"c	c #969696",
"d	c #A7A7A7",
"e	c #C7C7C7",
"f	c #B3B3B3",
"g	c #B6B6B6",
"h	c #A8A8A8",
"i	c #F1F1F1",
"j	c #8F8F8F",
"k	c #FEFEFE",
"l	c #EFEFEF",
"m	c #909090",
"n	c #FDFDFD",
"o	c #267726",
"p	c #DADADA",
"q	c #BFBFBF",
"r	c #E5E5E5",
"s	c #BEBEBE",
"t	c #D7D7D7",
"u	c #EEEEEE",
"v	c #8C8C8C",
"w	c #CCCCCC",
"x	c #A5A5A5",
"y	c #BDBDBD",
"z	c #EDEDED",
"A	c #F0F0F0",
"B	c #959595",
"C	c #E2E2E2",
"D	c #C6C6C6",
"E	c #9E9E9E",
"F	c #9D9D9D",
"G	c #9C9C9C",
"H	c #9B9B9B",
"I	c #9F9F9F",
"J	c #646464",
"                        ",
"                        ",
"                        ",
"                        ",
"                        ",
"    ................    ",
"    .+@@@@@@@@@@@@#.    ",
"    .$%%%%%%%%%%%%&.    ",
"    .*=======-;>>,'.    ",
"    .*=)!==~{]^/(_:.    ",
"    .*=))==<[}|1234.    ",
"    .*===-;>>5,_67:.    ",
"    .*=88;>90a]]]bc.    ",
"    .*=!8>5deffghij.    ",
"    .k;>>5,_637bilm.    ",
"    .n>oo_6apqrstuv.    ",
"    .=5oo63wqxsyyzv.    ",
"    .537bbiAluzzzzB.    ",
"    .C<DD~EEFGGHIBJ.    ",
"    ................    ",
"                        ",
"                        ",
"                        ",
"                        "};
