/* XPM */
static char * 16_mode_tree_xpm[] = {
"24 24 50 1",
" 	c None",
".	c #000000",
"+	c #7C90A3",
"@	c #5C778F",
"#	c #4D667E",
"$	c #5F798F",
"%	c #4B6983",
"&	c #374F64",
"*	c #FFFFFF",
"=	c #FCFCFC",
"-	c #FBFBFB",
";	c #FAFAFA",
">	c #F9F9F9",
",	c #F7F7F7",
"'	c #A4A4A4",
")	c #ADADAD",
"!	c #990000",
"~	c #B39169",
"{	c #F8F8F8",
"]	c #F6F6F6",
"^	c #A0A0A0",
"/	c #F4F4F4",
"(	c #A1A1A1",
"_	c #F5F5F5",
":	c #F3F3F3",
"<	c #314E6C",
"[	c #F2F2F2",
"}	c #969696",
"|	c #F1F1F1",
"1	c #8F8F8F",
"2	c #FEFEFE",
"3	c #EFEFEF",
"4	c #909090",
"5	c #FDFDFD",
"6	c #267726",
"7	c #F0F0F0",
"8	c #EEEEEE",
"9	c #8C8C8C",
"0	c #EDEDED",
"a	c #959595",
"b	c #E2E2E2",
"c	c #C2C2C2",
"d	c #C6C6C6",
"e	c #A6A6A6",
"f	c #9E9E9E",
"g	c #9D9D9D",
"h	c #9C9C9C",
"i	c #9B9B9B",
"j	c #9F9F9F",
"k	c #646464",
"                        ",
"                        ",
"                        ",
"                        ",
"                        ",
"    ................    ",
"    .+@@@@@@@@@@@@#.    ",
"    .$%%%%%%%%%%%%&.    ",
"    .*=======-;>>,'.    ",
"    .*=)===!~;>{,]^.    ",
"    .*=)))=!!>{,]/(.    ",
"    .*=)=-;>>{,]_:^.    ",
"    .*=)-;>{,]<</[}.    ",
"    .*=))))))_~<:|1.    ",
"    .2;>>{)]_/:[|34.    ",
"    .5>{,])_/:66789.    ",
"    .={,]_)))[66309.    ",
"    .{/:[[|7380000a.    ",
"    .bcddeffghhijak.    ",
"    ................    ",
"                        ",
"                        ",
"                        ",
"                        "};
