<?xml version="1.0" encoding="UTF-8"?>
<svg height="16px" viewBox="0 0 16 16" width="16px" xmlns="http://www.w3.org/2000/svg">
    <g fill="#222222">
        <path d="m 3.011719 1 c -1.644531 0 -3.0000002 1.355469 -3.0000002 3 v 6 c 0 1.644531 1.3554692 3 3.0000002 3 h 10 c 1.644531 0 3 -1.355469 3 -3 v -5 h -0.011719 c 0 -0.550781 -0.449219 -1 -1 -1 s -1 0.449219 -1 1 v 0.5 l 0.011719 4.5 c 0 0.570312 -0.429688 1 -1 1 h -10 c -0.570313 0 -1 -0.429688 -1 -1 v -6 c 0 -0.570312 0.429687 -1 1 -1 h 4.988281 c 0.550781 0 1 -0.449219 1 -1 c 0 -0.542969 -0.4375 -0.988281 -0.980469 -1 z m 0 0"/>
        <path d="m 11.011719 7 c 0 1.65625 -1.339844 3.007812 -3 3 h -3 v -3 c 0 -1.660156 1.34375 -3 3 -3 c 1.660156 0 3 1.339844 3 3 z m 0 0"/>
        <path d="m 13.410156 0 l -3.46875 3.457031 c 0.683594 0.355469 1.234375 0.910157 1.589844 1.589844 l 0.171875 -0.171875 l 0.007813 0.007812 l 4.300781 -4.300781 v -0.582031 z m 0 0"/>
        <path d="m 5.011719 14 c -1.105469 0 -2 0.894531 -2 2 h 10 c 0 -1.105469 -0.894531 -2 -2 -2 z m 0 0"/>
    </g>
</svg>
