<?xml version="1.0" encoding="UTF-8"?>
<svg height="16px" viewBox="0 0 16 16" width="16px" xmlns="http://www.w3.org/2000/svg">
    <path d="m 5.914062 0 c -0.546874 0.0195312 -1.085937 0.183594 -1.558593 0.492188 c -0.949219 0.617187 -1.464844 1.726562 -1.335938 2.847656 c 0.132813 1.121094 0.894531 2.078125 1.957031 2.460937 c 0.519532 0.1875 1.089844 -0.078125 1.277344 -0.597656 c 0.191406 -0.519531 -0.078125 -1.09375 -0.597656 -1.28125 c -0.359375 -0.128906 -0.605469 -0.445313 -0.648438 -0.816406 c -0.042968 -0.371094 0.125 -0.734375 0.441407 -0.941407 c 0.316406 -0.207031 0.722656 -0.21875 1.050781 -0.03125 c 0.480469 0.277344 1.09375 0.113282 1.367188 -0.367187 c 0.273437 -0.480469 0.109374 -1.089844 -0.367188 -1.367187 c -0.492188 -0.28125 -1.039062 -0.414063 -1.585938 -0.398438 z m 5.085938 2 c -1.640625 0 -3 1.351562 -3 2.992188 c 0 1.640624 1.359375 2.988281 3 2.988281 s 3 -1.347657 3 -2.988281 c 0 -1.640626 -1.359375 -2.992188 -3 -2.992188 z m 0 2 c 0.566406 0 1 0.4375 1 0.992188 c 0 0.554687 -0.433594 0.988281 -1 0.988281 s -1 -0.433594 -1 -0.988281 c 0 -0.554688 0.433594 -0.992188 1 -0.992188 z m -6.199219 3 c -2.085937 0 -3.800781 1.707031 -3.800781 3.789062 v 1.210938 c 0 0.550781 0.449219 1 1 1 s 1 -0.449219 1 -1 v -1.210938 c 0 -0.996093 0.792969 -1.789062 1.800781 -1.789062 h 1.199219 c 0.550781 0 1 -0.449219 1 -1 s -0.449219 -1 -1 -1 z m 5 2 c -2.085937 0 -3.800781 1.707031 -3.800781 3.789062 v 1.210938 c 0 0.550781 0.449219 1 1 1 s 1 -0.449219 1 -1 v -1.210938 c 0 -0.996093 0.792969 -1.789062 1.800781 -1.789062 h 2.398438 c 1.011719 0 1.800781 0.792969 1.800781 1.789062 v 1.210938 c 0 0.550781 0.449219 1 1 1 s 1 -0.449219 1 -1 v -1.210938 c 0 -2.082031 -1.714844 -3.789062 -3.800781 -3.789062 z m 0 0"/>
</svg>
