/* XPM */
static char * checked_disabled_xpm[] = {
"16 16 3 2",
"  	g None",
". 	g #000000",
"+ 	g #D9D9D9",
"                                ",
"                                ",
"    . . . . . . . . . . . .     ",
"    . + + + + + + + + + + .     ",
"    . + + + + + + + + . + .     ",
"    . + + + + + + + . . + .     ",
"    . + + + + + + . . . + .     ",
"    . + . + + + . . . + + .     ",
"    . + . . + . . . + + + .     ",
"    . + . . . . . + + + + .     ",
"    . + + . . . + + + + + .     ",
"    . + + + . + + + + + + .     ",
"    . + + + + + + + + + + .     ",
"    . . . . . . . . . . . .     ",
"                                ",
"                                "};
