<svg version="1.0" width="48" height="48" xml:space="preserve" xmlns="http://www.w3.org/2000/svg"><defs><linearGradient id="f"><stop style="stop-color:#fffffc;stop-opacity:1" offset="0"/><stop style="stop-color:#fffffc;stop-opacity:0" offset="1"/></linearGradient><linearGradient id="e"><stop style="stop-color:#73d216;stop-opacity:1" offset="0"/><stop offset=".315" style="stop-color:#73d216;stop-opacity:1"/><stop style="stop-color:#4e9a06;stop-opacity:1" offset="1"/></linearGradient><linearGradient id="c"><stop offset="0" style="stop-color:#fff;stop-opacity:1"/><stop offset="1" style="stop-color:#fff;stop-opacity:0"/></linearGradient><linearGradient id="b"><stop style="stop-color:#52a714;stop-opacity:1" offset="0"/><stop style="stop-color:#398800;stop-opacity:1" offset="1"/></linearGradient><linearGradient id="a"><stop offset="0" style="stop-color:#398800;stop-opacity:1"/><stop offset="1" style="stop-color:#84c706;stop-opacity:1"/></linearGradient><linearGradient id="d"><stop offset="0" style="stop-color:white;stop-opacity:1"/><stop offset="1" style="stop-color:white;stop-opacity:0"/></linearGradient></defs><path style="color:#000;font-style:normal;font-variant:normal;font-weight:400;font-stretch:normal;font-size:medium;line-height:normal;font-family:sans-serif;font-variant-ligatures:normal;font-variant-position:normal;font-variant-caps:normal;font-variant-numeric:normal;font-variant-alternates:normal;font-variant-east-asian:normal;font-feature-settings:normal;font-variation-settings:normal;text-indent:0;text-align:start;text-decoration:none;text-decoration-line:none;text-decoration-style:solid;text-decoration-color:#000;letter-spacing:normal;word-spacing:normal;text-transform:none;writing-mode:lr-tb;direction:ltr;text-orientation:mixed;dominant-baseline:auto;baseline-shift:baseline;text-anchor:start;white-space:normal;shape-padding:0;shape-margin:0;inline-size:0;clip-rule:nonzero;display:inline;overflow:visible;visibility:visible;isolation:auto;mix-blend-mode:normal;color-interpolation:sRGB;color-interpolation-filters:linearRGB;solid-color:#000;solid-opacity:1;vector-effect:none;fill:#77767b;fill-opacity:1;fill-rule:nonzero;stroke:none;stroke-width:4;stroke-linecap:round;stroke-linejoin:round;stroke-miterlimit:4;stroke-dasharray:none;stroke-dashoffset:56;stroke-opacity:1;color-rendering:auto;image-rendering:auto;shape-rendering:auto;text-rendering:auto;enable-background:accumulate;stop-color:#000" d="M17 3c-2.402-.025-4.81.57-6.977 1.781a2 2 0 0 0 1.95 3.492 9.994 9.994 0 0 1 9.941.102A9.991 9.991 0 0 1 26.855 17v2a2 2 0 1 0 4 0v-2c0-.077-.006-.154-.015-.23a14.002 14.002 0 0 0-6.902-11.848A13.986 13.986 0 0 0 17 3ZM6.602 8.66a2 2 0 0 0-1.633.942 13.997 13.997 0 0 0-2.094 7.113v.004a2 2 0 0 0-.02.281v10.125a2 2 0 1 0 4 0V17c0-1.868.525-3.7 1.512-5.285A2 2 0 0 0 6.602 8.66ZM16.855 9c-4.262 0-7.752 3.4-7.96 7.613a2 2 0 0 0-.04.387v2a2 2 0 1 0 4 0v-2c0-2.233 1.768-4 4-4 2.233 0 4 1.767 4 4v10s.018.88.352 1.883c.172.515.432 1.107.81 1.728.66-1.69 1.621-3.247 2.838-4.593V17a2 2 0 0 0-.039-.398C24.602 12.393 21.114 9 16.856 9Zm0 6a2 2 0 0 0-2 2v10s0 1.19.29 2.64c.29 1.452.825 3.303 2.296 4.774a2 2 0 0 0 2.829-2.828c-.53-.529-.994-1.678-1.204-2.727-.21-1.048-.21-1.859-.21-1.859V17a2 2 0 0 0-2-2zm-6 8a2 2 0 0 0-2 2v6a2 2 0 1 0 4 0v-6a2 2 0 0 0-2-2z"/><path style="display:inline;fill:#26a269;fill-opacity:1;stroke-width:2.25;stroke-linecap:square;stroke-linejoin:round;enable-background:new" d="M36 24c-6.627 0-12 5.373-12 12 0 6.565 5.275 12 11.84 12H36c6.627 0 12-5.373 12-12s-5.373-12-12-12zm6.154 7.006a2 2 0 0 1 1.364.693 2 2 0 0 1-.217 2.819l-8.406 7.207-5.31-5.31a2 2 0 0 1 0-2.83 2 2 0 0 1 2.83 0l2.69 2.69 5.594-4.793a2 2 0 0 1 1.455-.476z"/></svg>