<?xml version="1.0" encoding="UTF-8" standalone="no"?>
<!--
  SPDX-License-Identifier: CC0-1.0
  SPDX-FileCopyrightText: 2024 Sam Hewitt
-->

<svg
   height="16px"
   viewBox="0 0 16 16"
   width="16px"
   version="1.1"
   id="svg2"
   xmlns="http://www.w3.org/2000/svg"
   xmlns:svg="http://www.w3.org/2000/svg">
  <defs
     id="defs1" />
  <path
     id="path501"
     style="fill:#000000;fill-opacity:1"
     d="m 3,1 v 1 c 0,2.633333 0.5541687,4.1340095 1.1679688,5.0546875 0.3068999,0.460337 0.6131656,0.7683421 0.7597656,0.9394531 0.01,0.008 0.00967,0.00869 0.013672,0.015625 -0.014,0.0171 -0.010297,0.0088 -0.029297,0.035156 -0.1487,0.182379 -0.4478,0.4987706 -0.75,0.9628906 C 3.5576094,9.9360505 3,11.433963 3,14 v 1 a 1,1 45 0 0 1,1 h 8 a 1,1 135 0 0 1,-1 v -1 c 0,-2.566037 -0.557609,-4.0639485 -1.162109,-4.9921875 -0.3022,-0.46412 -0.6013,-0.7805116 -0.75,-0.9628906 -0.022,-0.02636 -0.0163,-0.018046 -0.0293,-0.035156 0.01,-0.0069 0.01163,-0.0076 0.01563,-0.015625 0.1466,-0.171111 0.452865,-0.4791161 0.759765,-0.9394531 C 12.336704,6.3006276 12.798557,5.1554306 12.949288,3.3189242 13.001687,2.6804885 13,1.6407366 13,1 A 1,1 45 0 0 12,0 H 4 A 1,1 135 0 0 3,1 Z m 2,1 h 6 C 11,4.366667 10.554169,5.3659895 10.167969,5.9453125 9.9748684,6.2349735 9.7811344,6.4269704 9.5527344,6.6933594 9.3244344,6.9597494 9,7.416667 9,8 9,8.583333 9.3109094,9.0312206 9.5371094,9.3085938 9.7634094,9.5859666 9.9643102,9.7959292 10.162109,10.099609 10.557609,10.706972 11,11.708447 11,14 H 5 c 0,-2.291553 0.4423906,-3.293028 0.8378906,-3.900391 0.1978,-0.3036798 0.3987,-0.5136425 0.625,-0.7910152 C 6.6890906,9.0312206 7,8.583333 7,8 7,7.416667 6.6755656,6.9597494 6.4472656,6.6933594 6.2188656,6.4269704 6.0251313,6.2349735 5.8320312,5.9453125 5.4462313,5.3659505 5,4.366667 5,2 Z" />
  <path
     id="path505"
     style="fill:#000000;fill-opacity:0.35;stroke:none;stroke-width:1px;stroke-linecap:butt;stroke-linejoin:miter;stroke-opacity:1"
     d="M 6,4 C 6,5 8,6.414063 8,7.414063 8,6.414062 10,5 10,4 Z m 2,8 c 0,0 -2,1 -2,2 h 4 C 10,13 8,12 8,12 Z" />
</svg>
