<?xml version="1.0" encoding="UTF-8" standalone="no"?>
<svg
   width="160"
   height="94"
   viewBox="0 0 42.333 24.871"
   version="1.1"
   id="svg20"
   sodipodi:docname="active-screen-edges-rtl.svg"
   inkscape:version="1.1.1 (3bf5ae0d25, 2021-09-20)"
   xmlns:inkscape="http://www.inkscape.org/namespaces/inkscape"
   xmlns:sodipodi="http://sodipodi.sourceforge.net/DTD/sodipodi-0.dtd"
   xmlns="http://www.w3.org/2000/svg"
   xmlns:svg="http://www.w3.org/2000/svg">
  <defs
     id="defs24" />
  <sodipodi:namedview
     id="namedview22"
     pagecolor="#505050"
     bordercolor="#ffffff"
     borderopacity="1"
     inkscape:pageshadow="0"
     inkscape:pageopacity="0"
     inkscape:pagecheckerboard="1"
     showgrid="false"
     showborder="false"
     inkscape:current-layer="svg20">
    <inkscape:grid
       type="xygrid"
       id="grid1401" />
  </sodipodi:namedview>
  <path
     style="display:inline;vector-effect:none;fill:none;fill-opacity:1;stroke:#3584e4;stroke-width:0.529167;stroke-linecap:butt;stroke-linejoin:miter;stroke-miterlimit:4;stroke-dasharray:none;stroke-dashoffset:0;stroke-opacity:1;marker:none"
     d="M 0.265,0.26500003 H 42.069 V 24.607 H 0.265 Z"
     id="path2" />
  <path
     id="path4"
     style="display:inline;opacity:0.287;vector-effect:none;fill:#3584e4;fill-opacity:1;stroke:none;stroke-width:2.99998;stroke-linecap:butt;stroke-linejoin:miter;stroke-miterlimit:4;stroke-dasharray:none;stroke-dashoffset:0;stroke-opacity:1;marker:none;marker-start:none;marker-mid:none;marker-end:none;paint-order:normal"
     d="M 1.9433594,5.1777344 V 92.859375 H 79.371094 V 77.052734 H 10.980469 c -1.6619682,0 -3.0000002,-1.338032 -3.0000002,-3 V 22.054688 c 0,-1.661968 1.338032,-3 3.0000002,-3 H 79.371094 V 5.1777344 Z"
     transform="matrix(0.26458511,0,0,0.26458511,-3.0851064e-4,0)"
     sodipodi:nodetypes="ccccssssccc" />
  <g
     transform="matrix(-0.26458,0,0,0.26458,424.372,1156.76)"
     style="display:inline"
     id="g16">
    <rect
       ry="3"
       rx="3"
       y="-4353.0068"
       x="1520.006"
       height="58"
       width="76"
       style="opacity:1;vector-effect:none;fill:none;fill-opacity:1;stroke:#3584e4;stroke-width:2;stroke-linecap:butt;stroke-linejoin:miter;stroke-miterlimit:4;stroke-dasharray:none;stroke-dashoffset:0;stroke-opacity:1;marker:none"
       id="rect6" />
    <path
       overflow="visible"
       font-weight="400"
       style="color:#bebebe;font-weight:400;line-height:normal;font-family:'Andale Mono';-inkscape-font-specification:'Andale Mono';text-indent:0;text-align:start;text-decoration:none;text-decoration-line:none;text-transform:none;overflow:visible;fill:#3584e4;fill-opacity:1;marker:none"
       d="m 1583,-4348.006 h 1.031 c 0.255,0.011 0.51,0.13 0.688,0.313 l 2.281,2.28 2.312,-2.28 c 0.266,-0.232 0.447,-0.307 0.688,-0.314 h 1 v 1 c 0,0.286 -0.034,0.55 -0.25,0.75 l -2.281,2.282 2.25,2.25 c 0.188,0.188 0.281,0.454 0.281,0.72 v 1 h -1 c -0.265,0 -0.53,-0.094 -0.719,-0.282 l -2.281,-2.28 -2.281,2.28 a 1.015,1.015 0 0 1 -0.719,0.281 h -1 v -1 c 0,-0.265 0.093,-0.53 0.281,-0.719 l 2.281,-2.25 -2.28,-2.28 a 0.909,0.909 0 0 1 -0.282,-0.75 z"
       id="path8" />
    <g
       style="display:inline;fill:#ffffff;fill-opacity:1;stroke:#3584e4;stroke-opacity:1"
       id="g14">
      <path
         style="color:#000000;display:block;overflow:visible;visibility:visible;fill:#3584e4;fill-opacity:1;fill-rule:nonzero;stroke:#3584e4;stroke-width:0.999998;stroke-linecap:butt;stroke-linejoin:miter;stroke-miterlimit:10;stroke-dasharray:none;stroke-dashoffset:0;stroke-opacity:1;marker:none;enable-background:accumulate"
         d="m 1545.9075,-4344.7569 v 26.8381 l -6.0528,-5.9161 -3.4601,7.0703 c -0.8479,1.9133 -5.2505,0.3755 -3.9982,-2.1826 l 3.4226,-7.3397 h -7.6394 z"
         id="path12" />
    </g>
  </g>
  <path
     d="M0 0v2.648h.528c0-.397.395-.794.793-.794h39.675c.444 0 .807.424.807.794l.51-.002.02-2.646z"
     style="color:#000;font-style:normal;font-variant:normal;font-weight:400;font-stretch:normal;font-size:medium;line-height:normal;font-family:sans-serif;font-variant-ligatures:normal;font-variant-position:normal;font-variant-caps:normal;font-variant-numeric:normal;font-variant-alternates:normal;font-feature-settings:normal;text-indent:0;text-align:start;text-decoration:none;text-decoration-line:none;text-decoration-style:solid;text-decoration-color:#000;letter-spacing:normal;word-spacing:normal;text-transform:none;writing-mode:lr-tb;direction:ltr;text-orientation:mixed;dominant-baseline:auto;baseline-shift:baseline;text-anchor:start;white-space:normal;shape-padding:0;clip-rule:nonzero;display:inline;overflow:visible;visibility:visible;isolation:auto;mix-blend-mode:normal;color-interpolation:sRGB;color-interpolation-filters:linearRGB;solid-color:#000;solid-opacity:1;vector-effect:none;fill:#3584e4;fill-opacity:1;fill-rule:nonzero;stroke:none;stroke-width:.529167;stroke-linecap:butt;stroke-linejoin:miter;stroke-miterlimit:4;stroke-dasharray:none;stroke-dashoffset:0;stroke-opacity:1;marker:none;color-rendering:auto;image-rendering:auto;shape-rendering:auto;text-rendering:auto;enable-background:accumulate"
     id="path18" />
</svg>
