<svg width="160" height="94" viewBox="0 0 42.333 24.871" xmlns="http://www.w3.org/2000/svg"><path style="display:inline;vector-effect:none;fill:#fff;fill-opacity:1;stroke:#3584e4;stroke-width:.529167;stroke-linecap:butt;stroke-linejoin:miter;stroke-miterlimit:4;stroke-dasharray:none;stroke-dashoffset:0;stroke-opacity:1;marker:none" d="M.265.265h41.804v24.342H.265z"/><path style="display:inline;opacity:.287;vector-effect:none;fill:#3584e4;fill-opacity:1;stroke:#3584e4;stroke-width:.79375;stroke-linecap:butt;stroke-linejoin:miter;stroke-miterlimit:4;stroke-dasharray:none;stroke-dashoffset:0;stroke-opacity:1;marker:none;marker-start:none;marker-mid:none;marker-end:none;paint-order:normal" d="M.514 1.37H21v23.199H.514z"/><g transform="matrix(.26458 0 0 .26458 -400.052 1156.76)" style="display:inline"><rect ry="3" rx="3" y="-4353.007" x="1520.006" height="58" width="76" style="opacity:1;vector-effect:none;fill:#fff;fill-opacity:1;stroke:#3584e4;stroke-width:2;stroke-linecap:butt;stroke-linejoin:miter;stroke-miterlimit:4;stroke-dasharray:none;stroke-dashoffset:0;stroke-opacity:1;marker:none"/><path overflow="visible" font-weight="400" style="color:#bebebe;font-weight:400;line-height:normal;font-family:'Andale Mono';-inkscape-font-specification:'Andale Mono';text-indent:0;text-align:start;text-decoration:none;text-decoration-line:none;text-transform:none;overflow:visible;fill:#3584e4;fill-opacity:1;marker:none" d="M1583-4348.006h1.031c.255.011.51.13.688.313l2.281 2.28 2.312-2.28c.266-.232.447-.307.688-.314h1v1c0 .286-.034.55-.25.75l-2.281 2.282 2.25 2.25c.188.188.281.454.281.72v1h-1c-.265 0-.53-.094-.719-.282l-2.281-2.28-2.281 2.28a1.015 1.015 0 0 1-.719.281h-1v-1c0-.265.093-.53.281-.719l2.281-2.25-2.28-2.28a.909.909 0 0 1-.282-.75z"/><g style="display:inline;fill:#fff;fill-opacity:1;stroke:#3584e4;stroke-opacity:1"><path d="M26.605 2.318v16.44l3.712-3.624 2.122 4.331c.52 1.172 3.22.23 2.452-1.337l-2.099-4.496h4.685z" style="color:#000;display:block;overflow:visible;visibility:visible;fill:#fff;fill-opacity:1;fill-rule:nonzero;stroke:#3584e4;stroke-width:.612915;stroke-linecap:butt;stroke-linejoin:miter;stroke-miterlimit:10;stroke-dasharray:none;stroke-dashoffset:0;stroke-opacity:1;marker:none;enable-background:accumulate" transform="matrix(1.6306 0 0 1.63249 1484.124 -4348.541)"/><path style="color:#000;display:block;overflow:visible;visibility:visible;fill:#fff;fill-opacity:1;fill-rule:nonzero;stroke:#3584e4;stroke-width:.612915;stroke-linecap:butt;stroke-linejoin:miter;stroke-miterlimit:10;stroke-dasharray:none;stroke-dashoffset:0;stroke-opacity:1;marker:none;enable-background:accumulate" d="M26.605 2.318v16.44l3.712-3.624 2.122 4.331c.52 1.172 3.22.23 2.452-1.337l-2.099-4.496h4.685z" transform="matrix(1.6306 0 0 1.63249 1484.124 -4348.541)"/></g></g><path d="M0 0v2.648h.528c0-.397.395-.794.793-.794h39.675c.444 0 .807.424.807.794l.51-.002.02-2.646z" style="color:#000;font-style:normal;font-variant:normal;font-weight:400;font-stretch:normal;font-size:medium;line-height:normal;font-family:sans-serif;font-variant-ligatures:normal;font-variant-position:normal;font-variant-caps:normal;font-variant-numeric:normal;font-variant-alternates:normal;font-feature-settings:normal;text-indent:0;text-align:start;text-decoration:none;text-decoration-line:none;text-decoration-style:solid;text-decoration-color:#000;letter-spacing:normal;word-spacing:normal;text-transform:none;writing-mode:lr-tb;direction:ltr;text-orientation:mixed;dominant-baseline:auto;baseline-shift:baseline;text-anchor:start;white-space:normal;shape-padding:0;clip-rule:nonzero;display:inline;overflow:visible;visibility:visible;isolation:auto;mix-blend-mode:normal;color-interpolation:sRGB;color-interpolation-filters:linearRGB;solid-color:#000;solid-opacity:1;vector-effect:none;fill:#3584e4;fill-opacity:1;fill-rule:nonzero;stroke:none;stroke-width:.529167;stroke-linecap:butt;stroke-linejoin:miter;stroke-miterlimit:4;stroke-dasharray:none;stroke-dashoffset:0;stroke-opacity:1;marker:none;color-rendering:auto;image-rendering:auto;shape-rendering:auto;text-rendering:auto;enable-background:accumulate"/></svg>