<svg width="160" height="94" viewBox="0 0 42.333 24.871" xmlns="http://www.w3.org/2000/svg"><defs><clipPath id="a" clipPathUnits="userSpaceOnUse"><path style="opacity:1;vector-effect:none;fill:#3584e4;fill-opacity:1;stroke:none;stroke-width:1;stroke-linecap:butt;stroke-linejoin:miter;stroke-miterlimit:4;stroke-dasharray:none;stroke-dashoffset:0;stroke-opacity:1;marker:none;marker-start:none;marker-mid:none;marker-end:none;paint-order:normal" d="M316-4731.007h162v95H316z"/></clipPath></defs><g style="display:inline"><path style="opacity:1;vector-effect:none;fill:none;fill-opacity:1;stroke:#3584e4;stroke-width:2;stroke-linecap:butt;stroke-linejoin:miter;stroke-miterlimit:4;stroke-dasharray:none;stroke-dashoffset:0;stroke-opacity:1;marker:none" d="M1501.006-3631.007h158v92h-158z" transform="matrix(-.26458 0 0 .26458 439.199 960.969)"/></g><g clip-path="url(#a)" transform="matrix(-.26458 0 0 .26458 125.93 1251.746)" style="display:inline"><path style="color:#000;opacity:.249;fill:#3584e4;stroke-width:.999981;-inkscape-stroke:none" d="M159.96-79.697C115.93-79.697 80.2-43.972 80.2.06a79.352 79.352 0 0 0 13.98 45.082v-5.497C87.212 28.09 83.2 14.546 83.2.061c0-42.411 34.35-76.758 76.76-76.758 42.412 0 76.76 34.347 76.76 76.758 0 42.41-34.348 76.76-76.76 76.76-19.455 0-37.203-7.245-50.728-19.165h-4.402c14.327 13.718 33.742 22.164 55.13 22.164 44.033 0 79.76-35.727 79.76-79.76 0-44.032-35.727-79.757-79.76-79.757z" transform="matrix(-1.00002 0 0 1.00002 475.963 -4731.068)"/><path style="color:#000;opacity:.474;fill:#3584e4;stroke-width:.999981;-inkscape-stroke:none" d="M159.96-49.43c-27.314 0-49.491 22.175-49.491 49.49 0 7.333 1.61 14.287 4.476 20.55l3.178-.245A46.34 46.34 0 0 1 113.47.061c0-25.695 20.798-46.49 46.492-46.49S206.45-25.635 206.45.06c0 25.694-20.796 46.49-46.49 46.49a46.337 46.337 0 0 1-20.357-4.68l-.247 3.18a49.246 49.246 0 0 0 20.604 4.5c27.315 0 49.49-22.175 49.49-49.49 0-27.316-22.175-49.49-49.49-49.49z" transform="matrix(-1.00002 0 0 1.00002 475.963 -4731.068)"/><path style="color:#000;opacity:.705;fill:#3584e4;stroke-width:.999981;-inkscape-stroke:none" d="M159.96-28.297c-15.643 0-28.358 12.713-28.358 28.358 0 7.171 2.676 13.723 7.078 18.72l2.713-.209-.21 2.721c5.005 4.43 11.58 7.127 18.778 7.127 15.644 0 28.357-12.715 28.357-28.36 0-15.644-12.713-28.357-28.357-28.357zm0 3c14.024 0 25.358 11.335 25.358 25.358 0 14.022-11.334 25.359-25.357 25.359S134.6 14.083 134.6.06c0-14.022 11.337-25.357 25.36-25.357z" transform="matrix(-1.00002 0 0 1.00002 475.963 -4731.068)"/><circle r="16.568" cy="-4731.007" cx="316" style="opacity:1;vector-effect:none;fill:none;fill-opacity:1;stroke:#3584e4;stroke-width:3;stroke-linecap:butt;stroke-linejoin:miter;stroke-miterlimit:4;stroke-dasharray:none;stroke-dashoffset:0;stroke-opacity:1;marker:none;marker-start:none;marker-mid:none;marker-end:none;paint-order:normal"/></g><path style="color:#000;display:inline;overflow:visible;visibility:visible;fill:none;fill-opacity:1;stroke:#3584e4;stroke-width:.262885;stroke-linecap:square;stroke-linejoin:round;stroke-miterlimit:4;stroke-dashoffset:.95;stroke-opacity:1;marker:none;enable-background:accumulate" d="m30.31 9.024 1.341-1.38-2.121-2.123 7.88-.607-.606 7.89-2.122-2.124-3.288 3.292"/><g style="display:inline"><path style="color:#000;display:block;overflow:visible;visibility:visible;fill:none;fill-opacity:1;fill-rule:nonzero;stroke:#3584e4;stroke-width:.612915;stroke-linecap:butt;stroke-linejoin:miter;stroke-miterlimit:10;stroke-dasharray:1.22583,.612915;stroke-dashoffset:0;stroke-opacity:1;marker:none;enable-background:accumulate" d="M29.691 6.634v16.44l3.712-3.624 2.122 4.331c.52 1.171 3.22.23 2.452-1.337l-2.099-4.497h4.685z" transform="matrix(.42866 0 0 .42916 12.191 7.553)"/></g><path style="fill:#3584e4;fill-opacity:1;stroke-width:.52917;stroke-linejoin:round;stop-color:#000" d="M0 0h42.334v1.852H0z"/></svg>