<svg width="160" height="94" viewBox="0 0 42.333 24.871" xmlns="http://www.w3.org/2000/svg"><defs><clipPath id="a" clipPathUnits="userSpaceOnUse"><path style="opacity:1;vector-effect:none;fill:#3584e4;fill-opacity:1;stroke:none;stroke-width:1;stroke-linecap:butt;stroke-linejoin:miter;stroke-miterlimit:4;stroke-dasharray:none;stroke-dashoffset:0;stroke-opacity:1;marker:none;marker-start:none;marker-mid:none;marker-end:none;paint-order:normal" d="M316-4731.007h162v95H316z"/></clipPath></defs><g style="display:inline"><path style="opacity:1;vector-effect:none;fill:none;fill-opacity:1;stroke:#3584e4;stroke-width:2;stroke-linecap:butt;stroke-linejoin:miter;stroke-miterlimit:4;stroke-dasharray:none;stroke-dashoffset:0;stroke-opacity:1;marker:none" d="M1501.006-3631.007h158v92h-158z" transform="translate(-396.877 960.969) scale(.26458)"/></g><g clip-path="url(#a)" transform="translate(-83.608 1251.746) scale(.26458)" style="display:inline"><path style="color:#000;opacity:.249;fill:#3584e4;stroke-width:.999981;-inkscape-stroke:none" d="M-.002-79.697c-44.032 0-79.76 35.725-79.76 79.758 0 44.032 35.728 79.76 79.76 79.76 21.164 0 40.396-8.27 54.678-21.733v-4.156C40.756 68.058 21.408 76.82-.002 76.82c-42.41 0-76.76-34.349-76.76-76.76 0-42.41 34.35-76.757 76.76-76.757 42.41 0 76.76 34.347 76.76 76.758 0 17.32-5.734 33.29-15.4 46.13l2.085 2.174C73.672 34.955 79.758 18.22 79.758.061c0-44.033-35.728-79.758-79.76-79.758z" transform="matrix(1.00002 0 0 1.00002 316.002 -4731.068)"/><path style="color:#000;opacity:.474;fill:#3584e4;-inkscape-stroke:none" d="M316-4780.498c-27.316 0-49.492 22.176-49.492 49.492s22.176 49.49 49.492 49.49c7.56 0 14.733-1.697 21.146-4.732l-1.283-2.711a46.295 46.295 0 0 1-19.863 4.443c-25.695 0-46.492-20.795-46.492-46.49 0-25.694 20.797-46.492 46.492-46.492 25.695 0 46.492 20.798 46.492 46.492 0 7.094-1.58 13.792-4.416 19.803l2.92.835a49.266 49.266 0 0 0 4.496-20.638c0-27.316-22.176-49.492-49.492-49.492z"/><path style="color:#000;opacity:.705;fill:#3584e4;-inkscape-stroke:none" d="M316-4759.365c-15.644 0-28.36 12.715-28.36 28.36 0 15.644 12.716 28.357 28.36 28.357a28.277 28.277 0 0 0 18.967-7.275l.035-2.145 2.033.082a28.273 28.273 0 0 0 7.324-19.02c0-15.644-12.715-28.36-28.359-28.36zm0 3c14.023 0 25.36 11.336 25.36 25.36a25.247 25.247 0 0 1-7.864 18.355 25.253 25.253 0 0 1-17.496 7.002c-14.023 0-25.36-11.335-25.36-25.358s11.337-25.36 25.36-25.36z"/><circle r="16.568" cy="-4731.007" cx="316" style="opacity:1;vector-effect:none;fill:none;fill-opacity:1;stroke:#3584e4;stroke-width:3;stroke-linecap:butt;stroke-linejoin:miter;stroke-miterlimit:4;stroke-dasharray:none;stroke-dashoffset:0;stroke-opacity:1;marker:none;marker-start:none;marker-mid:none;marker-end:none;paint-order:normal"/></g><g style="display:inline"><path style="color:#000;display:inline;overflow:visible;visibility:visible;fill:none;stroke:#3584e4;stroke-width:.612915;stroke-linecap:square;stroke-linejoin:round;stroke-miterlimit:4;stroke-dashoffset:.95;stroke-opacity:1;marker:none;enable-background:accumulate;fill-opacity:1" d="m275.62 271.75-3.13-3.214 4.95-4.95-18.385-1.414 1.414 18.385 4.95-4.95 7.671 7.672" transform="matrix(.42866 0 0 .42916 -106.135 -107.6)"/><g style="display:inline"><path style="color:#000;display:block;overflow:visible;visibility:visible;fill:none;fill-opacity:1;fill-rule:nonzero;stroke:#3584e4;stroke-width:.612915;stroke-linecap:butt;stroke-linejoin:miter;stroke-miterlimit:10;stroke-dasharray:1.22583,.612915;stroke-dashoffset:0;stroke-opacity:1;marker:none;enable-background:accumulate" d="M29.691 6.634v16.44l3.712-3.624 2.122 4.331c.52 1.171 3.22.23 2.452-1.337l-2.099-4.497h4.685z" transform="matrix(.42866 0 0 .42916 1.739 7.533)"/></g></g><path style="fill:#3584e4;fill-opacity:1;stroke-width:.52917;stroke-linejoin:round;stop-color:#000" d="M0 0h42.334v1.852H0z"/></svg>