<svg width="326" height="94" viewBox="0 0 86.255 24.871" xmlns="http://www.w3.org/2000/svg"><path style="display:inline;opacity:.287;vector-effect:none;fill:#3584e4;fill-opacity:1;stroke:#3584e4;stroke-width:.79375;stroke-linecap:butt;stroke-linejoin:miter;stroke-miterlimit:4;stroke-dasharray:none;stroke-dashoffset:0;stroke-opacity:1;marker:none;marker-start:none;marker-mid:none;marker-end:none;paint-order:normal" d="M.397.397h41.54v24.078H.397Z"/><path style="display:inline;vector-effect:none;fill:none;fill-opacity:1;stroke:#3584e4;stroke-width:.529167;stroke-linecap:butt;stroke-linejoin:miter;stroke-miterlimit:4;stroke-dasharray:none;stroke-dashoffset:0;stroke-opacity:1;marker:none" d="M.265.265h41.804v24.342H.265Z"/><path style="vector-effect:none;fill:none;fill-opacity:1;stroke:#3584e4;stroke-width:.529162;stroke-linecap:butt;stroke-linejoin:miter;stroke-miterlimit:4;stroke-dasharray:none;stroke-dashoffset:0;stroke-opacity:1;marker:none" d="M44.186.265H85.99v24.342H44.186z"/><path style="display:inline;opacity:.287;vector-effect:none;fill:#3584e4;fill-opacity:1;stroke:#3584e4;stroke-width:.79375;stroke-linecap:butt;stroke-linejoin:miter;stroke-miterlimit:4;stroke-dasharray:none;stroke-dashoffset:0;stroke-opacity:1;marker:none;marker-start:none;marker-mid:none;marker-end:none;paint-order:normal" d="M44.318.397h41.54v24.078h-41.54Z"/><rect style="opacity:1;fill:#3584e4;fill-opacity:1;stroke:#ed333b;stroke-width:0;stroke-linecap:round;stroke-miterlimit:4;stroke-dasharray:none" width="26.459" height="15.346" x="7.937" y="4.763" rx="1.323" ry="1.323"/><path style="opacity:1;fill:#3584e4;stroke:#ed333b;stroke-width:0;stroke-linecap:round;fill-opacity:1" d="M38.365 4.763h3.44V20.11h-3.44a1.32 1.32 0 0 1-1.323-1.323v-12.7c0-.733.59-1.323 1.323-1.323zM3.969 4.763H.529V20.11h3.44a1.32 1.32 0 0 0 1.323-1.323v-12.7a1.32 1.32 0 0 0-1.323-1.323z"/><g transform="translate(43.921 -.529)"><rect style="opacity:1;fill:#3584e4;fill-opacity:1;stroke:#ed333b;stroke-width:0;stroke-linecap:round;stroke-miterlimit:4;stroke-dasharray:none" width="26.459" height="15.346" x="7.937" y="5.292" rx="1.323" ry="1.323"/><path style="opacity:1;fill:#3584e4;stroke:#ed333b;stroke-width:0;stroke-linecap:round;fill-opacity:1" d="M38.365 5.292h3.44v15.346h-3.44a1.32 1.32 0 0 1-1.323-1.323v-12.7c0-.733.59-1.323 1.323-1.323zM3.969 5.292H.529v15.346h3.44a1.32 1.32 0 0 0 1.323-1.323v-12.7a1.32 1.32 0 0 0-1.323-1.323z"/></g><g style="stroke-width:.999999"><path style="fill:#3584e4;fill-opacity:1;stroke-width:.52917;stroke-linejoin:round;stop-color:#000" d="M0 0h42.334v1.852H0z"/></g></svg>