<?xml version="1.0" encoding="UTF-8"?>
<svg height="128px" viewBox="0 0 128 128" width="128px" xmlns="http://www.w3.org/2000/svg" xmlns:xlink="http://www.w3.org/1999/xlink">
    <linearGradient id="a" gradientUnits="userSpaceOnUse" x1="64" x2="64" y1="262.5" y2="232">
        <stop offset="0" stop-color="#9a9996"/>
        <stop offset="1" stop-color="#77767b"/>
    </linearGradient>
    <radialGradient id="b" cx="-243.066583" cy="-74.599978" gradientUnits="userSpaceOnUse" r="28.266656">
        <stop offset="0" stop-color="#d5d3cf"/>
        <stop offset="1" stop-color="#949390"/>
    </radialGradient>
    <linearGradient id="c" gradientUnits="userSpaceOnUse" x1="203.999985" x2="267.999985" y1="-64" y2="-64">
        <stop offset="0" stop-color="#d5d3cf"/>
        <stop offset="1" stop-color="#f6f5f4"/>
    </linearGradient>
    <clipPath id="d">
        <rect height="128" width="128"/>
    </clipPath>
    <clipPath id="e">
        <rect height="128" width="128"/>
    </clipPath>
    <filter id="f" height="100%" width="100%" x="0%" y="0%">
        <feColorMatrix in="SourceGraphic" type="matrix" values="0 0 0 0 1 0 0 0 0 1 0 0 0 0 1 0 0 0 1 0"/>
    </filter>
    <mask id="g">
        <g clip-path="url(#e)" filter="url(#f)">
            <g clip-path="url(#d)">
                <path d="m 667 292 h -6 l -2 -16 h 10 z m 0 0" fill="#9a9996" stroke="#9a9996" stroke-linecap="round" stroke-linejoin="round" stroke-width="8" transform="matrix(1 0 0 1 -600 -170)"/>
                <path d="m 661 180 h 6 l 2 16 h -10 z m 0 0" fill="#9a9996" stroke="#9a9996" stroke-linecap="round" stroke-linejoin="round" stroke-width="8" transform="matrix(1 0 0 1 -600 -170)"/>
                <path d="m 667.000092 291.999908 h -6 l -2 -16 h 10 z m 0 0" fill="#9a9996" stroke="#9a9996" stroke-linecap="round" stroke-linejoin="round" stroke-width="8" transform="matrix(0 1 -1 0 299.999908 -598.000092)"/>
                <path d="m 661.000092 179.999908 h 6 l 2 16 h -10 z m 0 0" fill="#9a9996" stroke="#9a9996" stroke-linecap="round" stroke-linejoin="round" stroke-width="8" transform="matrix(0 1 -1 0 299.999908 -598.000092)"/>
                <path d="m 666.999051 291.998922 l -5.999272 -0.00042 l -2.001544 -15.998026 l 9.999915 0.000049 z m 0 0" fill="#9a9996" stroke="#9a9996" stroke-linecap="round" stroke-linejoin="round" stroke-width="8" transform="matrix(-0.5 0.866025 -0.866025 -0.5 600.381916 -391.041005)"/>
                <path d="m 661.001107 180.000804 l 5.999273 0.000419 l 2.001544 15.998026 l -10.003298 0.001905 z m 0 0" fill="#9a9996" stroke="#9a9996" stroke-linecap="round" stroke-linejoin="round" stroke-width="8" transform="matrix(-0.5 0.866025 -0.866025 -0.5 600.381916 -391.041005)"/>
                <path d="m 667.000347 291.998468 l -5.999273 0.00042 l -2.002482 -16.00035 l 10.003298 0.001905 z m 0 0" fill="#9a9996" stroke="#9a9996" stroke-linecap="round" stroke-linejoin="round" stroke-width="8" transform="matrix(-0.866025 0.5 -0.5 -0.866025 757.040822 -61.618176)"/>
                <path d="m 660.999745 180.00119 l 5.999273 -0.00042 l 2.002481 16.00035 l -10.003298 -0.001904 z m 0 0" fill="#9a9996" stroke="#9a9996" stroke-linecap="round" stroke-linejoin="round" stroke-width="8" transform="matrix(-0.866025 0.5 -0.5 -0.866025 757.040822 -61.618176)"/>
                <path d="m 666.999018 291.999047 l -5.999273 -0.00042 l -2.001544 -15.998026 l 10.003298 -0.001904 z m 0 0" fill="#9a9996" stroke="#9a9996" stroke-linecap="round" stroke-linejoin="round" stroke-width="8" transform="matrix(0.866025 0.5 -0.5 0.866025 -393.040914 -470.382008)"/>
                <path d="m 661.001074 180.000929 l 5.999273 0.00042 l 2.001543 15.998025 l -10.003298 0.001905 z m 0 0" fill="#9a9996" stroke="#9a9996" stroke-linecap="round" stroke-linejoin="round" stroke-width="8" transform="matrix(0.866025 0.5 -0.5 0.866025 -393.040914 -470.382008)"/>
                <path d="m 667.00038 291.998593 l -5.999273 0.00042 l -2.002481 -16.00035 l 10.003298 0.001905 z m 0 0" fill="#9a9996" stroke="#9a9996" stroke-linecap="round" stroke-linejoin="round" stroke-width="8" transform="matrix(0.5 0.866025 -0.866025 0.5 -63.618084 -627.040914)"/>
                <path d="m 660.999779 180.001315 l 5.999272 -0.00042 l 1.999099 15.998397 l -9.999915 0.000049 z m 0 0" fill="#9a9996" stroke="#9a9996" stroke-linecap="round" stroke-linejoin="round" stroke-width="8" transform="matrix(0.5 0.866025 -0.866025 0.5 -63.618084 -627.040914)"/>
                <path d="m 667 292 h -6 l -2 -16 h 10 z m 0 0" fill="#f6f5f4" stroke="#f6f5f4" stroke-linecap="round" stroke-linejoin="round" stroke-width="8" transform="matrix(1 0 0 1 -600 -172)"/>
                <path d="m 661 180 h 6 l 2 16 h -10 z m 0 0" fill="#f6f5f4" stroke="#f6f5f4" stroke-linecap="round" stroke-linejoin="round" stroke-width="8" transform="matrix(1 0 0 1 -600 -172)"/>
                <path d="m 667.000092 291.999908 h -6 l -2 -16 h 10 z m 0 0" fill="#f6f5f4" stroke="#f6f5f4" stroke-linecap="round" stroke-linejoin="round" stroke-width="8" transform="matrix(0 1 -1 0 299.999908 -600.000092)"/>
                <path d="m 661.000092 179.999908 h 6 l 2 16 h -10 z m 0 0" fill="#f6f5f4" stroke="#f6f5f4" stroke-linecap="round" stroke-linejoin="round" stroke-width="8" transform="matrix(0 1 -1 0 299.999908 -600.000092)"/>
                <path d="m 666.999051 291.998922 l -5.999272 -0.00042 l -2.001544 -15.998026 l 9.999915 0.000049 z m 0 0" fill="#f6f5f4" stroke="#f6f5f4" stroke-linecap="round" stroke-linejoin="round" stroke-width="8" transform="matrix(-0.5 0.866025 -0.866025 -0.5 600.381916 -393.041005)"/>
                <path d="m 661.001107 180.000804 l 5.999273 0.000419 l 2.001544 15.998026 l -10.003298 0.001905 z m 0 0" fill="#f6f5f4" stroke="#f6f5f4" stroke-linecap="round" stroke-linejoin="round" stroke-width="8" transform="matrix(-0.5 0.866025 -0.866025 -0.5 600.381916 -393.041005)"/>
                <path d="m 667.000347 291.998468 l -5.999273 0.00042 l -2.002482 -16.00035 l 10.003298 0.001905 z m 0 0" fill="#f6f5f4" stroke="#f6f5f4" stroke-linecap="round" stroke-linejoin="round" stroke-width="8" transform="matrix(-0.866025 0.5 -0.5 -0.866025 757.040822 -63.618176)"/>
                <path d="m 660.999745 180.00119 l 5.999273 -0.00042 l 2.002481 16.00035 l -10.003298 -0.001904 z m 0 0" fill="#f6f5f4" stroke="#f6f5f4" stroke-linecap="round" stroke-linejoin="round" stroke-width="8" transform="matrix(-0.866025 0.5 -0.5 -0.866025 757.040822 -63.618176)"/>
                <path d="m 666.999018 291.999047 l -5.999273 -0.00042 l -2.001544 -15.998026 l 10.003298 -0.001904 z m 0 0" fill="#f6f5f4" stroke="#f6f5f4" stroke-linecap="round" stroke-linejoin="round" stroke-width="8" transform="matrix(0.866025 0.5 -0.5 0.866025 -393.040914 -472.382008)"/>
                <path d="m 661.001074 180.000929 l 5.999273 0.00042 l 2.001543 15.998025 l -10.003298 0.001905 z m 0 0" fill="#f6f5f4" stroke="#f6f5f4" stroke-linecap="round" stroke-linejoin="round" stroke-width="8" transform="matrix(0.866025 0.5 -0.5 0.866025 -393.040914 -472.382008)"/>
                <path d="m 667.00038 291.998593 l -5.999273 0.00042 l -2.002481 -16.00035 l 10.003298 0.001905 z m 0 0" fill="#f6f5f4" stroke="#f6f5f4" stroke-linecap="round" stroke-linejoin="round" stroke-width="8" transform="matrix(0.5 0.866025 -0.866025 0.5 -63.618084 -629.040914)"/>
                <path d="m 660.999779 180.001315 l 5.999272 -0.00042 l 1.999099 15.998397 l -9.999915 0.000049 z m 0 0" fill="#f6f5f4" stroke="#f6f5f4" stroke-linecap="round" stroke-linejoin="round" stroke-width="8" transform="matrix(0.5 0.866025 -0.866025 0.5 -63.618084 -629.040914)"/>
                <path d="m 100 238 c 0 19.882812 -16.117188 36 -36 36 s -36 -16.117188 -36 -36 s 16.117188 -36 36 -36 s 36 16.117188 36 36 z m 0 0" fill="none" stroke="url(#a)" stroke-width="24" transform="matrix(1 0 0 1 0 -172)"/>
                <path d="m 102 236 c 0 20.988281 -17.011719 38 -38 38 s -38 -17.011719 -38 -38 s 17.011719 -38 38 -38 s 38 17.011719 38 38 z m 0 0" fill="none" stroke="#f6f5f4" stroke-width="20" transform="matrix(1 0 0 1 0 -172)"/>
                <path d="m -209.5 -64 c 0 14.636719 -11.863281 26.5 -26.5 26.5 s -26.5 -11.863281 -26.5 -26.5 s 11.863281 -26.5 26.5 -26.5 s 26.5 11.863281 26.5 26.5 z m 0 0" fill="none" stroke="url(#b)" stroke-linecap="square" stroke-linejoin="round" stroke-width="5" transform="matrix(0 -1 -1 0 0 -172)"/>
                <path d="m 268 -64 c 0 17.671875 -14.328125 32 -32 32 s -32 -14.328125 -32 -32 s 14.328125 -32 32 -32 s 32 14.328125 32 32 z m 0 0" fill="none" stroke="url(#c)" stroke-linecap="square" stroke-linejoin="round" stroke-width="8" transform="matrix(0 1 -1 0 0 -172)"/>
            </g>
        </g>
    </mask>
    <mask id="h">
        <g filter="url(#f)">
            <rect fill-opacity="0.8" height="128" width="128"/>
        </g>
    </mask>
    <linearGradient id="i" gradientTransform="matrix(0 0.37 -0.98462 0 295.38501 -30.360001)" gradientUnits="userSpaceOnUse" x1="300" x2="428" y1="235" y2="235">
        <stop offset="0" stop-color="#f9f06b"/>
        <stop offset="1" stop-color="#f5c211"/>
    </linearGradient>
    <clipPath id="j">
        <rect height="128" width="128"/>
    </clipPath>
    <clipPath id="k">
        <rect height="128" width="128"/>
    </clipPath>
    <g stroke-linecap="round" stroke-linejoin="round" stroke-width="8">
        <path d="m 67 122 h -6 l -2 -16 h 10 z m 0 0" fill="#9a9996" stroke="#9a9996"/>
        <path d="m 61 10 h 6 l 2 16 h -10 z m 0 0" fill="#9a9996" stroke="#9a9996"/>
        <path d="m 667.000092 291.999908 h -6 l -2 -16 h 10 z m 0 0" fill="#9a9996" stroke="#9a9996" transform="matrix(0 1 -1 0 299.999908 -598.000092)"/>
        <path d="m 661.000092 179.999908 h 6 l 2 16 h -10 z m 0 0" fill="#9a9996" stroke="#9a9996" transform="matrix(0 1 -1 0 299.999908 -598.000092)"/>
        <path d="m 666.999051 291.998922 l -5.999272 -0.00042 l -2.001544 -15.998026 l 9.999915 0.000049 z m 0 0" fill="#9a9996" stroke="#9a9996" transform="matrix(-0.5 0.866025 -0.866025 -0.5 600.381916 -391.041005)"/>
        <path d="m 661.001107 180.000804 l 5.999273 0.000419 l 2.001544 15.998026 l -10.003298 0.001905 z m 0 0" fill="#9a9996" stroke="#9a9996" transform="matrix(-0.5 0.866025 -0.866025 -0.5 600.381916 -391.041005)"/>
        <path d="m 667.000347 291.998468 l -5.999273 0.00042 l -2.002482 -16.00035 l 10.003298 0.001905 z m 0 0" fill="#9a9996" stroke="#9a9996" transform="matrix(-0.866025 0.5 -0.5 -0.866025 757.040822 -61.618176)"/>
        <path d="m 660.999745 180.00119 l 5.999273 -0.00042 l 2.002481 16.00035 l -10.003298 -0.001904 z m 0 0" fill="#9a9996" stroke="#9a9996" transform="matrix(-0.866025 0.5 -0.5 -0.866025 757.040822 -61.618176)"/>
        <path d="m 666.999018 291.999047 l -5.999273 -0.00042 l -2.001544 -15.998026 l 10.003298 -0.001904 z m 0 0" fill="#9a9996" stroke="#9a9996" transform="matrix(0.866025 0.5 -0.5 0.866025 -393.040914 -470.382008)"/>
        <path d="m 661.001074 180.000929 l 5.999273 0.00042 l 2.001543 15.998025 l -10.003298 0.001905 z m 0 0" fill="#9a9996" stroke="#9a9996" transform="matrix(0.866025 0.5 -0.5 0.866025 -393.040914 -470.382008)"/>
        <path d="m 667.00038 291.998593 l -5.999273 0.00042 l -2.002481 -16.00035 l 10.003298 0.001905 z m 0 0" fill="#9a9996" stroke="#9a9996" transform="matrix(0.5 0.866025 -0.866025 0.5 -63.618084 -627.040914)"/>
        <path d="m 660.999779 180.001315 l 5.999272 -0.00042 l 1.999099 15.998397 l -9.999915 0.000049 z m 0 0" fill="#9a9996" stroke="#9a9996" transform="matrix(0.5 0.866025 -0.866025 0.5 -63.618084 -627.040914)"/>
        <path d="m 67 120 h -6 l -2 -16 h 10 z m 0 0" fill="#f6f5f4" stroke="#f6f5f4"/>
        <path d="m 61 8 h 6 l 2 16 h -10 z m 0 0" fill="#f6f5f4" stroke="#f6f5f4"/>
        <path d="m 667.000092 291.999908 h -6 l -2 -16 h 10 z m 0 0" fill="#f6f5f4" stroke="#f6f5f4" transform="matrix(0 1 -1 0 299.999908 -600.000092)"/>
        <path d="m 661.000092 179.999908 h 6 l 2 16 h -10 z m 0 0" fill="#f6f5f4" stroke="#f6f5f4" transform="matrix(0 1 -1 0 299.999908 -600.000092)"/>
        <path d="m 666.999051 291.998922 l -5.999272 -0.00042 l -2.001544 -15.998026 l 9.999915 0.000049 z m 0 0" fill="#f6f5f4" stroke="#f6f5f4" transform="matrix(-0.5 0.866025 -0.866025 -0.5 600.381916 -393.041005)"/>
        <path d="m 661.001107 180.000804 l 5.999273 0.000419 l 2.001544 15.998026 l -10.003298 0.001905 z m 0 0" fill="#f6f5f4" stroke="#f6f5f4" transform="matrix(-0.5 0.866025 -0.866025 -0.5 600.381916 -393.041005)"/>
        <path d="m 667.000347 291.998468 l -5.999273 0.00042 l -2.002482 -16.00035 l 10.003298 0.001905 z m 0 0" fill="#f6f5f4" stroke="#f6f5f4" transform="matrix(-0.866025 0.5 -0.5 -0.866025 757.040822 -63.618176)"/>
        <path d="m 660.999745 180.00119 l 5.999273 -0.00042 l 2.002481 16.00035 l -10.003298 -0.001904 z m 0 0" fill="#f6f5f4" stroke="#f6f5f4" transform="matrix(-0.866025 0.5 -0.5 -0.866025 757.040822 -63.618176)"/>
        <path d="m 666.999018 291.999047 l -5.999273 -0.00042 l -2.001544 -15.998026 l 10.003298 -0.001904 z m 0 0" fill="#f6f5f4" stroke="#f6f5f4" transform="matrix(0.866025 0.5 -0.5 0.866025 -393.040914 -472.382008)"/>
        <path d="m 661.001074 180.000929 l 5.999273 0.00042 l 2.001543 15.998025 l -10.003298 0.001905 z m 0 0" fill="#f6f5f4" stroke="#f6f5f4" transform="matrix(0.866025 0.5 -0.5 0.866025 -393.040914 -472.382008)"/>
        <path d="m 667.00038 291.998593 l -5.999273 0.00042 l -2.002481 -16.00035 l 10.003298 0.001905 z m 0 0" fill="#f6f5f4" stroke="#f6f5f4" transform="matrix(0.5 0.866025 -0.866025 0.5 -63.618084 -629.040914)"/>
        <path d="m 660.999779 180.001315 l 5.999272 -0.00042 l 1.999099 15.998397 l -9.999915 0.000049 z m 0 0" fill="#f6f5f4" stroke="#f6f5f4" transform="matrix(0.5 0.866025 -0.866025 0.5 -63.618084 -629.040914)"/>
    </g>
    <path d="m 100 238 c 0 19.882812 -16.117188 36 -36 36 s -36 -16.117188 -36 -36 s 16.117188 -36 36 -36 s 36 16.117188 36 36 z m 0 0" fill="none" stroke="url(#a)" stroke-width="24" transform="matrix(1 0 0 1 0 -172)"/>
    <path d="m 102 64 c 0 20.988281 -17.011719 38 -38 38 s -38 -17.011719 -38 -38 s 17.011719 -38 38 -38 s 38 17.011719 38 38 z m 0 0" fill="none" stroke="#f6f5f4" stroke-width="20"/>
    <path d="m -209.5 -64 c 0 14.636719 -11.863281 26.5 -26.5 26.5 s -26.5 -11.863281 -26.5 -26.5 s 11.863281 -26.5 26.5 -26.5 s 26.5 11.863281 26.5 26.5 z m 0 0" fill="none" stroke="url(#b)" stroke-linecap="square" stroke-linejoin="round" stroke-width="5" transform="matrix(0 -1 -1 0 0 -172)"/>
    <path d="m 268 -64 c 0 17.671875 -14.328125 32 -32 32 s -32 -14.328125 -32 -32 s 14.328125 -32 32 -32 s 32 14.328125 32 32 z m 0 0" fill="none" stroke="url(#c)" stroke-linecap="square" stroke-linejoin="round" stroke-width="8" transform="matrix(0 1 -1 0 0 -172)"/>
    <g clip-path="url(#k)" mask="url(#g)">
        <g clip-path="url(#j)" mask="url(#h)">
            <path d="m 128 80.640625 v 47.359375 h -128 v -47.359375 z m 0 0" fill="url(#i)"/>
            <path d="m 13.308594 80.640625 l 47.355468 47.359375 h 21.214844 l -47.359375 -47.359375 z m 42.421875 0 l 47.363281 47.359375 h 21.214844 l -47.363282 -47.359375 z m 42.429687 0 l 29.839844 29.839844 v -21.210938 l -8.628906 -8.628906 z m -98.160156 7.90625 v 21.214844 l 18.238281 18.238281 h 21.214844 z m 0 0"/>
        </g>
    </g>
</svg>
