<svg xmlns="http://www.w3.org/2000/svg" xmlns:xlink="http://www.w3.org/1999/xlink" width="128" height="128"><defs><linearGradient id="n" gradientUnits="userSpaceOnUse" x1="64" y1="262.5" x2="64" y2="232" gradientTransform="translate(0 -172)"><stop offset="0" stop-color="#9a9996"/><stop offset="1" stop-color="#77767b"/></linearGradient><linearGradient id="p" gradientUnits="userSpaceOnUse" x1="32" y1="236" x2="96" y2="236" gradientTransform="translate(0 -300)"><stop offset="0" stop-color="#d5d3cf"/><stop offset="1" stop-color="#f6f5f4"/></linearGradient><linearGradient id="b" gradientUnits="userSpaceOnUse" x1="64" y1="262.5" x2="64" y2="232" gradientTransform="translate(0 -172)"><stop offset="0" stop-color="#9a9996"/><stop offset="1" stop-color="#77767b"/></linearGradient><linearGradient id="d" gradientUnits="userSpaceOnUse" x1="32" y1="236" x2="96" y2="236" gradientTransform="translate(0 -300)"><stop offset="0" stop-color="#d5d3cf"/><stop offset="1" stop-color="#f6f5f4"/></linearGradient><linearGradient id="j" gradientUnits="userSpaceOnUse" x1="300" y1="235" x2="428" y2="235" gradientTransform="matrix(0 .37 -.98462 0 295.385 -30.36)"><stop offset="0" stop-color="#f9f06b"/><stop offset="1" stop-color="#f5c211"/></linearGradient><clipPath id="k"><path d="M0 0h128v128H0z"/></clipPath><clipPath id="a"><path d="M0 0h128v128H0z"/></clipPath><clipPath id="e"><path d="M0 0h128v128H0z"/></clipPath><clipPath id="i"><path d="M0 0h128v128H0z"/></clipPath><g id="l" clip-path="url(#i)"><path d="M128 80.64V128H0V80.64zm0 0" fill="url(#j)"/><path d="M13.309 80.64L60.664 128H81.88l-47.36-47.36zm42.421 0L103.094 128h21.215L76.945 80.64zm42.43 0L128 110.48V89.27l-8.629-8.63zM0 88.548v21.215L18.238 128h21.215zm0 0"/></g><g id="h" clip-path="url(#e)" filter="url(#f)"><use xlink:href="#g"/></g><g id="g" clip-path="url(#a)"><path d="M60 6h8a8 8 0 018 8v8a8 8 0 01-8 8h-8a8 8 0 01-8-8v-8a8 8 0 018-8zm0 0M60 102h8a8 8 0 018 8v8a8 8 0 01-8 8h-8a8 8 0 01-8-8v-8a8 8 0 018-8zm0 0M18.746 26.402l5.656-5.656a7.997 7.997 0 0111.313 0l5.656 5.656a7.997 7.997 0 010 11.313l-5.656 5.656a7.997 7.997 0 01-11.313 0l-5.656-5.656a7.997 7.997 0 010-11.313zm0 0M86.629 94.285l5.656-5.656a7.997 7.997 0 0111.313 0l5.656 5.656a7.997 7.997 0 010 11.313l-5.656 5.656a7.997 7.997 0 01-11.313 0l-5.656-5.656a7.997 7.997 0 010-11.313zm0 0M4 70v-8a8 8 0 018-8h8a8 8 0 018 8v8a8 8 0 01-8 8h-8a8 8 0 01-8-8zm0 0M100 70v-8a8 8 0 018-8h8a8 8 0 018 8v8a8 8 0 01-8 8h-8a8 8 0 01-8-8zm0 0M24.402 111.254l-5.656-5.656a7.997 7.997 0 010-11.313l5.656-5.656a7.997 7.997 0 0111.313 0l5.656 5.656a7.997 7.997 0 010 11.313l-5.656 5.656a7.997 7.997 0 01-11.313 0zm0 0M92.285 43.371l-5.656-5.656a7.997 7.997 0 010-11.313l5.656-5.656a7.997 7.997 0 0111.313 0l5.656 5.656a7.997 7.997 0 010 11.313l-5.656 5.656a7.997 7.997 0 01-11.313 0zm0 0" fill="#77767b"/><path d="M60 4h8a8 8 0 018 8v8a8 8 0 01-8 8h-8a8 8 0 01-8-8v-8a8 8 0 018-8zm0 0M60 100h8a8 8 0 018 8v8a8 8 0 01-8 8h-8a8 8 0 01-8-8v-8a8 8 0 018-8zm0 0M18.746 24.402l5.656-5.656a7.997 7.997 0 0111.313 0l5.656 5.656a7.997 7.997 0 010 11.313l-5.656 5.656a7.997 7.997 0 01-11.313 0l-5.656-5.656a7.997 7.997 0 010-11.313zm0 0M86.629 92.285l5.656-5.656a7.997 7.997 0 0111.313 0l5.656 5.656a7.997 7.997 0 010 11.313l-5.656 5.656a7.997 7.997 0 01-11.313 0l-5.656-5.656a7.997 7.997 0 010-11.313zm0 0M4 68v-8a8 8 0 018-8h8a8 8 0 018 8v8a8 8 0 01-8 8h-8a8 8 0 01-8-8zm0 0M100 68v-8a8 8 0 018-8h8a8 8 0 018 8v8a8 8 0 01-8 8h-8a8 8 0 01-8-8zm0 0M24.402 109.254l-5.656-5.656a7.997 7.997 0 010-11.313l5.656-5.656a7.997 7.997 0 0111.313 0l5.656 5.656a7.997 7.997 0 010 11.313l-5.656 5.656a7.997 7.997 0 01-11.313 0zm0 0M92.285 41.371l-5.656-5.656a7.997 7.997 0 010-11.313l5.656-5.656a7.997 7.997 0 0111.313 0l5.656 5.656a7.997 7.997 0 010 11.313l-5.656 5.656a7.997 7.997 0 01-11.313 0zm0 0" fill="#f6f5f4"/><path d="M100 66c0 19.883-16.117 36-36 36S28 85.883 28 66s16.117-36 36-36 36 16.117 36 36zm0 0" fill="none" stroke-width="24" stroke="url(#b)"/><path d="M102 64c0 20.988-17.012 38-38 38S26 84.988 26 64s17.012-38 38-38 38 17.012 38 38zm0 0" fill="none" stroke-width="20" stroke="#f6f5f4"/><path d="M-37.5-64c0 14.637-11.863 26.5-26.5 26.5S-90.5-49.363-90.5-64-78.637-90.5-64-90.5-37.5-78.637-37.5-64zm0 0" transform="matrix(0 -1 -1 0 0 0)" fill="none" stroke-width="5" stroke-linecap="square" stroke-linejoin="round" stroke="url(#c)"/><path d="M96-64c0 17.672-14.328 32-32 32S32-46.328 32-64s14.328-32 32-32 32 14.328 32 32zm0 0" transform="rotate(90)" fill="none" stroke-width="8" stroke-linecap="square" stroke-linejoin="round" stroke="url(#d)"/></g><g id="q" clip-path="url(#k)"><use xlink:href="#l" mask="url(#m)"/></g><radialGradient id="o" gradientUnits="userSpaceOnUse" cx="-244" cy="-76" fx="-244" fy="-76" r="32" gradientTransform="matrix(.88333 0 0 .88333 144.467 -7.467)"><stop offset="0" stop-color="#d5d3cf"/><stop offset="1" stop-color="#949390"/></radialGradient><radialGradient id="c" gradientUnits="userSpaceOnUse" cx="-244" cy="-76" fx="-244" fy="-76" r="32" gradientTransform="matrix(.88333 0 0 .88333 144.467 -7.467)"><stop offset="0" stop-color="#d5d3cf"/><stop offset="1" stop-color="#949390"/></radialGradient><mask id="m"><g filter="url(#f)"><path fill-opacity=".8" d="M0 0h128v128H0z"/></g></mask><mask id="r"><use xlink:href="#h"/></mask><filter id="f" filterUnits="objectBoundingBox" x="0%" y="0%" width="100%" height="100%"><feColorMatrix in="SourceGraphic" values="0 0 0 0 1 0 0 0 0 1 0 0 0 0 1 0 0 0 1 0"/></filter></defs><path d="M60 6h8a8 8 0 018 8v8a8 8 0 01-8 8h-8a8 8 0 01-8-8v-8a8 8 0 018-8zm0 0M60 102h8a8 8 0 018 8v8a8 8 0 01-8 8h-8a8 8 0 01-8-8v-8a8 8 0 018-8zm0 0M18.746 26.402l5.656-5.656a7.997 7.997 0 0111.313 0l5.656 5.656a7.997 7.997 0 010 11.313l-5.656 5.656a7.997 7.997 0 01-11.313 0l-5.656-5.656a7.997 7.997 0 010-11.313zm0 0M86.629 94.285l5.656-5.656a7.997 7.997 0 0111.313 0l5.656 5.656a7.997 7.997 0 010 11.313l-5.656 5.656a7.997 7.997 0 01-11.313 0l-5.656-5.656a7.997 7.997 0 010-11.313zm0 0M4 70v-8a8 8 0 018-8h8a8 8 0 018 8v8a8 8 0 01-8 8h-8a8 8 0 01-8-8zm0 0M100 70v-8a8 8 0 018-8h8a8 8 0 018 8v8a8 8 0 01-8 8h-8a8 8 0 01-8-8zm0 0M24.402 111.254l-5.656-5.656a7.997 7.997 0 010-11.313l5.656-5.656a7.997 7.997 0 0111.313 0l5.656 5.656a7.997 7.997 0 010 11.313l-5.656 5.656a7.997 7.997 0 01-11.313 0zm0 0M92.285 43.371l-5.656-5.656a7.997 7.997 0 010-11.313l5.656-5.656a7.997 7.997 0 0111.313 0l5.656 5.656a7.997 7.997 0 010 11.313l-5.656 5.656a7.997 7.997 0 01-11.313 0zm0 0" fill="#77767b"/><path d="M60 4h8a8 8 0 018 8v8a8 8 0 01-8 8h-8a8 8 0 01-8-8v-8a8 8 0 018-8zm0 0M60 100h8a8 8 0 018 8v8a8 8 0 01-8 8h-8a8 8 0 01-8-8v-8a8 8 0 018-8zm0 0M18.746 24.402l5.656-5.656a7.997 7.997 0 0111.313 0l5.656 5.656a7.997 7.997 0 010 11.313l-5.656 5.656a7.997 7.997 0 01-11.313 0l-5.656-5.656a7.997 7.997 0 010-11.313zm0 0M86.629 92.285l5.656-5.656a7.997 7.997 0 0111.313 0l5.656 5.656a7.997 7.997 0 010 11.313l-5.656 5.656a7.997 7.997 0 01-11.313 0l-5.656-5.656a7.997 7.997 0 010-11.313zm0 0M4 68v-8a8 8 0 018-8h8a8 8 0 018 8v8a8 8 0 01-8 8h-8a8 8 0 01-8-8zm0 0M100 68v-8a8 8 0 018-8h8a8 8 0 018 8v8a8 8 0 01-8 8h-8a8 8 0 01-8-8zm0 0M24.402 109.254l-5.656-5.656a7.997 7.997 0 010-11.313l5.656-5.656a7.997 7.997 0 0111.313 0l5.656 5.656a7.997 7.997 0 010 11.313l-5.656 5.656a7.997 7.997 0 01-11.313 0zm0 0M92.285 41.371l-5.656-5.656a7.997 7.997 0 010-11.313l5.656-5.656a7.997 7.997 0 0111.313 0l5.656 5.656a7.997 7.997 0 010 11.313l-5.656 5.656a7.997 7.997 0 01-11.313 0zm0 0" fill="#f6f5f4"/><path d="M100 66c0 19.883-16.117 36-36 36S28 85.883 28 66s16.117-36 36-36 36 16.117 36 36zm0 0" fill="none" stroke-width="24" stroke="url(#n)"/><path d="M102 64c0 20.988-17.012 38-38 38S26 84.988 26 64s17.012-38 38-38 38 17.012 38 38zm0 0" fill="none" stroke-width="20" stroke="#f6f5f4"/><path d="M-37.5-64c0 14.637-11.863 26.5-26.5 26.5S-90.5-49.363-90.5-64-78.637-90.5-64-90.5-37.5-78.637-37.5-64zm0 0" transform="matrix(0 -1 -1 0 0 0)" fill="none" stroke-width="5" stroke-linecap="square" stroke-linejoin="round" stroke="url(#o)"/><path d="M96-64c0 17.672-14.328 32-32 32S32-46.328 32-64s14.328-32 32-32 32 14.328 32 32zm0 0" transform="rotate(90)" fill="none" stroke-width="8" stroke-linecap="square" stroke-linejoin="round" stroke="url(#p)"/><use xlink:href="#q" mask="url(#r)"/></svg>