<?xml version="1.0" encoding="UTF-8"?>
<svg height="16px" viewBox="0 0 16 16" width="16px" xmlns="http://www.w3.org/2000/svg" xmlns:xlink="http://www.w3.org/1999/xlink">
    <filter id="a" height="100%" width="100%" x="0%" y="0%">
        <feColorMatrix color-interpolation-filters="sRGB" values="0 0 0 0 1 0 0 0 0 1 0 0 0 0 1 0 0 0 1 0"/>
    </filter>
    <mask id="b">
        <g filter="url(#a)">
            <path d="m -1.6 -1.6 h 19.2 v 19.2 h -19.2 z" fill-opacity="0.5"/>
        </g>
    </mask>
    <clipPath id="c">
        <path d="m 0 0 h 601 v 400 h -601 z"/>
    </clipPath>
    <path d="m 3.039062 0 c -1.667968 0 -3.039062 1.371094 -3.039062 3.039062 v 8.921876 c 0 1.667968 1.371094 3.039062 3.039062 3.039062 h 9.921876 c 1.667968 0 3.039062 -1.371094 3.039062 -3.039062 v -8.921876 c 0 -1.667968 -1.371094 -3.039062 -3.039062 -3.039062 z m 0 2 h 9.921876 c 0.59375 0 1.039062 0.445312 1.039062 1.039062 v 8.921876 c 0 0.59375 -0.445312 1.039062 -1.039062 1.039062 h -9.921876 c -0.59375 0 -1.039062 -0.445312 -1.039062 -1.039062 v -8.921876 c 0 -0.59375 0.445312 -1.039062 1.039062 -1.039062 z m 1.476563 3.898438 c -0.164063 -0.003907 -0.324219 0.0625 -0.441406 0.175781 c -0.230469 0.234375 -0.230469 0.617187 0 0.851562 l 1.578125 1.574219 l -1.578125 1.574219 c -0.230469 0.234375 -0.230469 0.617187 0 0.851562 c 0.234375 0.230469 0.617187 0.230469 0.851562 0 l 2 -2 c 0.230469 -0.234375 0.230469 -0.617187 0 -0.851562 l -2 -2 c -0.109375 -0.105469 -0.257812 -0.167969 -0.410156 -0.175781 z m 3.484375 4.101562 v 1 h 3 v -1 z m 0 0" fill="#222222"/>
    <g mask="url(#b)">
        <g clip-path="url(#c)" transform="matrix(1 0 0 1 -144 -220)">
            <path d="m 210.5 151 c 0 1.382812 -1.121094 2.5 -2.5 2.5 c -1.382812 0 -2.5 -1.121094 -2.5 -2.5 s 1.117188 -2.5 2.5 -2.5 c 1.378906 0 2.5 1.117188 2.5 2.5 z m 0 0" fill="#222222" fill-opacity="0.34902"/>
        </g>
    </g>
</svg>
