<?xml version="1.0" encoding="UTF-8"?>
<svg height="16px" viewBox="0 0 16 16" width="16px" xmlns="http://www.w3.org/2000/svg" xmlns:xlink="http://www.w3.org/1999/xlink">
    <filter id="a" height="100%" width="100%" x="0%" y="0%">
        <feColorMatrix color-interpolation-filters="sRGB" values="0 0 0 0 1 0 0 0 0 1 0 0 0 0 1 0 0 0 1 0"/>
    </filter>
    <mask id="b">
        <g filter="url(#a)">
            <path d="m -1.6 -1.6 h 19.2 v 19.2 h -19.2 z" fill-opacity="0.5"/>
        </g>
    </mask>
    <clipPath id="c">
        <path d="m 0 0 h 601 v 400 h -601 z"/>
    </clipPath>
    <path d="m 12 1 c 1.660156 0 3 1.339844 3 3 v 6 c 0 1.660156 -1.339844 3 -3 3 h -8 c -1.660156 0 -3 -1.339844 -3 -3 v -6 c 0 -1.660156 1.339844 -3 3 -3 z m 0 2 h -8 c -0.554688 0 -1 0.445312 -1 1 v 6 c 0 0.554688 0.445312 1 1 1 h 8 c 0.554688 0 1 -0.445312 1 -1 v -6 c 0 -0.554688 -0.445312 -1 -1 -1 z m -4 11 c -5 0 -5 1 -5 1 c 0 1 1 1 1 1 h 8 c 1 0 1 -1 1 -1 s 0 -1 -5 -1 z m 0 0" fill="#222222"/>
    <path d="m 12 4 v 3.5 c 0 0.277344 -0.222656 0.5 -0.5 0.5 s -0.5 -0.222656 -0.5 -0.5 c 0 -0.007812 0 -0.015625 0 -0.027344 v -1.765625 l -3.144531 3.144531 c -0.195313 0.195313 -0.515625 0.195313 -0.707031 0 c -0.195313 -0.191406 -0.195313 -0.511718 0 -0.707031 l 3.144531 -3.144531 h -1.792969 c -0.277344 0 -0.5 -0.222656 -0.5 -0.5 s 0.222656 -0.5 0.5 -0.5 z m 0 0" fill="#222222"/>
    <g mask="url(#b)">
        <g clip-path="url(#c)" transform="matrix(1 0 0 1 -124 -220)">
            <path d="m 210.5 151 c 0 1.382812 -1.121094 2.5 -2.5 2.5 c -1.382812 0 -2.5 -1.121094 -2.5 -2.5 s 1.117188 -2.5 2.5 -2.5 c 1.378906 0 2.5 1.117188 2.5 2.5 z m 0 0" fill="#222222" fill-opacity="0.34902"/>
        </g>
    </g>
</svg>
