<?xml version="1.0" encoding="UTF-8"?>
<svg height="16px" viewBox="0 0 16 16" width="16px" xmlns="http://www.w3.org/2000/svg">
    <path d="m 2 0 v 16 h 2 v -7 h 2 c 0.234375 0 0.445312 0.128906 0.550781 0.34375 l 0.105469 0.207031 c 0.445312 0.886719 1.355469 1.449219 2.34375 1.449219 h 2.5 c 1.367188 0 2.5 -1.132812 2.5 -2.5 v -4 c 0 -1.367188 -1.132812 -2.5 -2.5 -2.5 h -2 l -0.597656 -0.800781 c -0.566406 -0.753907 -1.457032 -1.199219 -2.402344 -1.199219 z m 2 2 h 2.5 c 0.316406 0 0.613281 0.148438 0.800781 0.402344 l 0.601563 0.796875 c 0.375 0.503906 0.96875 0.800781 1.597656 0.800781 h 2 c 0.289062 0 0.5 0.210938 0.5 0.5 v 4 c 0 0.289062 -0.210938 0.5 -0.5 0.5 h -2.5 c -0.234375 0 -0.445312 -0.128906 -0.550781 -0.34375 l -0.105469 -0.207031 c -0.445312 -0.886719 -1.355469 -1.449219 -2.34375 -1.449219 h -2 z m 0 0" fill="#222222"/>
</svg>
