<?xml version="1.0" encoding="UTF-8"?>
<svg height="16px" viewBox="0 0 16 16" width="16px" xmlns="http://www.w3.org/2000/svg">
    <path d="m 8 0 c -4.40625 0 -8 3.59375 -8 8 s 3.59375 8 8 8 s 8 -3.59375 8 -8 s -3.59375 -8 -8 -8 z m 0 2 c 3.324219 0 6 2.675781 6 6 s -2.675781 6 -6 6 s -6 -2.675781 -6 -6 s 2.675781 -6 6 -6 z m -3.066406 2.957031 c -0.132813 0 -0.261719 0.054688 -0.355469 0.148438 c -0.191406 0.199219 -0.1875 0.515625 0.011719 0.707031 l 3.109375 3.046875 c 0.105469 0.09375 0.246093 0.140625 0.386719 0.128906 h 2.914062 c 0.277344 0 0.5 -0.226562 0.5 -0.5 c 0 -0.277343 -0.222656 -0.5 -0.5 -0.5 h -2.761719 l -2.953125 -2.890625 c -0.09375 -0.09375 -0.222656 -0.144531 -0.351562 -0.140625 z m 0 0" fill="#222222"/>
</svg>
