<?xml version="1.0" encoding="UTF-8"?>
<svg height="16px" viewBox="0 0 16 16" width="16px" xmlns="http://www.w3.org/2000/svg">
    <path d="m 6.507812 0 c -1.382812 0 -2.5 1.113281 -2.5 2.5 v 0.5 h -3 c -0.546874 0 -0.9999995 0.449219 -0.9999995 1 s 0.4531255 1 0.9999995 1 h 1 v 8 c 0 1.660156 1.34375 3 3 3 h 6.003907 c 1.65625 0 3 -1.339844 3 -3 v -8 h 1 c 0.546875 0 1 -0.449219 1 -1 s -0.453125 -1 -1 -1 h -3.019531 v -0.5 c 0 -1.386719 -1.121094 -2.5 -2.503907 -2.5 z m 0 2 h 2.980469 c 0.269531 0 0.5 0.230469 0.5 0.5 v 0.5 h -3.980469 v -0.5 c 0 -0.269531 0.234376 -0.5 0.5 -0.5 z m -2.5 3 h 8.003907 v 8 c 0 0.546875 -0.457031 1 -1 1 h -6.003907 c -0.542968 0 -1 -0.453125 -1 -1 z m 2.5 1.5 c -0.273437 0 -0.5 0.222656 -0.5 0.5 v 5 c 0 0.277344 0.226563 0.5 0.5 0.5 c 0.277344 0 0.5 -0.222656 0.5 -0.5 v -5 c 0 -0.277344 -0.222656 -0.5 -0.5 -0.5 z m 3.003907 0 c -0.277344 0 -0.5 0.222656 -0.5 0.5 v 5 c 0 0.277344 0.222656 0.5 0.5 0.5 c 0.273437 0 0.5 -0.222656 0.5 -0.5 v -5 c 0 -0.277344 -0.226563 -0.5 -0.5 -0.5 z m 0 0" fill="#222222"/>
</svg>
